NotoAmalgamated-Light.ufo
<glyph name="exclam.guru" format="2">
  <advance width="272"/>
  <unicode hex="0021"/>
  <outline>
    <contour>
      <point x="123" y="167" type="line"/>
      <point x="148" y="167" type="line"/>
      <point x="149" y="714" type="line"/>
      <point x="120" y="714" type="line"/>
    </contour>
    <contour>
      <point x="136" y="-5" type="curve" smooth="yes"/>
      <point x="152" y="-5"/>
      <point x="165" y="4"/>
      <point x="165" y="35" type="curve" smooth="yes"/>
      <point x="165" y="65"/>
      <point x="152" y="73"/>
      <point x="136" y="73" type="curve" smooth="yes"/>
      <point x="121" y="73"/>
      <point x="107" y="65"/>
      <point x="107" y="35" type="curve" smooth="yes"/>
      <point x="107" y="4"/>
      <point x="121" y="-5"/>
    </contour>
  </outline>
</glyph>
<glyph name="exclam.mono" format="2">
  <advance width="600"/>
  <unicode hex="0021"/>
  <outline>
    <contour>
      <point x="288" y="174" type="line"/>
      <point x="313" y="174" type="line"/>
      <point x="315" y="714" type="line"/>
      <point x="286" y="714" type="line"/>
    </contour>
    <contour>
      <point x="299" y="-12" type="curve" smooth="yes"/>
      <point x="326" y="-12"/>
      <point x="329" y="4"/>
      <point x="329" y="23" type="curve" smooth="yes"/>
      <point x="329" y="41"/>
      <point x="326" y="58"/>
      <point x="299" y="58" type="curve" smooth="yes"/>
      <point x="277" y="58"/>
      <point x="271" y="41"/>
      <point x="271" y="23" type="curve" smooth="yes"/>
      <point x="271" y="4"/>
      <point x="277" y="-12"/>
    </contour>
  </outline>
</glyph>
<glyph name="quotedbl.guru" format="2">
  <advance width="282"/>
  <unicode hex="0022"/>
  <outline>
    <contour>
      <point x="57" y="499" type="line"/>
      <point x="79" y="499" type="line"/>
      <point x="87" y="714" type="line"/>
      <point x="47" y="714" type="line"/>
    </contour>
    <contour>
      <point x="205" y="499" type="line"/>
      <point x="227" y="499" type="line"/>
      <point x="235" y="714" type="line"/>
      <point x="195" y="714" type="line"/>
    </contour>
  </outline>
</glyph>
<glyph name="quotedbl.mono" format="2">
  <advance width="600"/>
  <unicode hex="0022"/>
  <outline>
    <contour>
      <point x="363" y="456" type="line"/>
      <point x="383" y="456" type="line"/>
      <point x="387" y="714" type="line"/>
      <point x="359" y="714" type="line"/>
    </contour>
    <contour>
      <point x="217" y="456" type="line"/>
      <point x="237" y="456" type="line"/>
      <point x="241" y="714" type="line"/>
      <point x="213" y="714" type="line"/>
    </contour>
  </outline>
</glyph>
<glyph name="numbersign.mono" format="2">
  <advance width="600"/>
  <unicode hex="0023"/>
  <outline>
    <contour>
      <point x="105" y="0" type="line"/>
      <point x="129" y="0" type="line"/>
      <point x="165" y="231" type="line"/>
      <point x="330" y="231" type="line"/>
      <point x="294" y="0" type="line"/>
      <point x="319" y="0" type="line"/>
      <point x="355" y="231" type="line"/>
      <point x="479" y="231" type="line"/>
      <point x="479" y="255" type="line"/>
      <point x="358" y="255" type="line"/>
      <point x="391" y="471" type="line"/>
      <point x="512" y="471" type="line"/>
      <point x="512" y="495" type="line"/>
      <point x="394" y="495" type="line"/>
      <point x="427" y="714" type="line"/>
      <point x="403" y="714" type="line"/>
      <point x="369" y="495" type="line"/>
      <point x="205" y="495" type="line"/>
      <point x="238" y="714" type="line"/>
      <point x="214" y="714" type="line"/>
      <point x="180" y="495" type="line"/>
      <point x="54" y="495" type="line"/>
      <point x="54" y="471" type="line"/>
      <point x="176" y="471" type="line"/>
      <point x="143" y="255" type="line"/>
      <point x="23" y="255" type="line"/>
      <point x="23" y="231" type="line"/>
      <point x="140" y="231" type="line"/>
    </contour>
    <contour>
      <point x="168" y="255" type="line"/>
      <point x="201" y="471" type="line"/>
      <point x="366" y="471" type="line"/>
      <point x="334" y="255" type="line"/>
    </contour>
  </outline>
</glyph>
<glyph name="dollar.mono" format="2">
  <advance width="600"/>
  <unicode hex="0024"/>
  <outline>
    <contour>
      <point x="286" y="20" type="curve"/>
      <point x="286" y="-58" type="line"/>
      <point x="310" y="-58" type="line"/>
      <point x="310" y="20" type="line"/>
      <point x="421" y="26"/>
      <point x="502" y="79"/>
      <point x="502" y="186" type="curve" smooth="yes"/>
      <point x="502" y="292"/>
      <point x="422" y="329"/>
      <point x="310" y="370" type="curve"/>
      <point x="310" y="669" type="line"/>
      <point x="353" y="668"/>
      <point x="405" y="659"/>
      <point x="461" y="634" type="curve"/>
      <point x="472" y="657" type="line"/>
      <point x="418" y="682"/>
      <point x="363" y="693"/>
      <point x="310" y="694" type="curve"/>
      <point x="310" y="759" type="line"/>
      <point x="286" y="759" type="line"/>
      <point x="286" y="694" type="line"/>
      <point x="178" y="688"/>
      <point x="97" y="635"/>
      <point x="97" y="536" type="curve" smooth="yes"/>
      <point x="97" y="428"/>
      <point x="183" y="392"/>
      <point x="286" y="353" type="curve"/>
      <point x="286" y="45" type="line"/>
      <point x="213" y="46"/>
      <point x="146" y="60"/>
      <point x="100" y="78" type="curve"/>
      <point x="100" y="49" type="line"/>
      <point x="142" y="35"/>
      <point x="202" y="21"/>
    </contour>
    <contour>
      <point x="310" y="45" type="curve"/>
      <point x="310" y="343" type="line"/>
      <point x="411" y="304"/>
      <point x="475" y="271"/>
      <point x="475" y="187" type="curve" smooth="yes"/>
      <point x="475" y="94"/>
      <point x="405" y="50"/>
    </contour>
    <contour>
      <point x="286" y="669" type="curve"/>
      <point x="286" y="379" type="line"/>
      <point x="201" y="411"/>
      <point x="124" y="445"/>
      <point x="124" y="538" type="curve" smooth="yes"/>
      <point x="124" y="623"/>
      <point x="196" y="665"/>
    </contour>
  </outline>
</glyph>
<glyph name="dollar.serif" format="2">
  <advance width="559"/>
  <unicode hex="0024"/>
  <outline>
    <contour>
      <point x="266" y="40" type="curve"/>
      <point x="266" y="-79" type="line"/>
      <point x="294" y="-79" type="line"/>
      <point x="294" y="40" type="line"/>
      <point x="393" y="40"/>
      <point x="468" y="95"/>
      <point x="468" y="192" type="curve" smooth="yes"/>
      <point x="468" y="271"/>
      <point x="429" y="330"/>
      <point x="294" y="381" type="curve"/>
      <point x="294" y="662" type="line"/>
      <point x="406" y="662"/>
      <point x="435" y="605"/>
      <point x="435" y="521" type="curve"/>
      <point x="449" y="521"/>
      <point x="456" y="535"/>
      <point x="456" y="567" type="curve" smooth="yes"/>
      <point x="456" y="623"/>
      <point x="410" y="687"/>
      <point x="294" y="687" type="curve"/>
      <point x="294" y="760" type="line"/>
      <point x="266" y="760" type="line"/>
      <point x="266" y="687" type="line"/>
      <point x="173" y="680"/>
      <point x="114" y="626"/>
      <point x="114" y="542" type="curve" smooth="yes"/>
      <point x="114" y="454"/>
      <point x="167" y="409"/>
      <point x="266" y="365" type="curve"/>
      <point x="266" y="65" type="line"/>
      <point x="127" y="65"/>
      <point x="102" y="139"/>
      <point x="102" y="215" type="curve"/>
      <point x="88" y="215"/>
      <point x="81" y="201"/>
      <point x="81" y="169" type="curve" smooth="yes"/>
      <point x="81" y="124"/>
      <point x="115" y="40"/>
    </contour>
    <contour>
      <point x="294" y="65" type="curve"/>
      <point x="294" y="353" type="line"/>
      <point x="407" y="308"/>
      <point x="440" y="259"/>
      <point x="440" y="191" type="curve" smooth="yes"/>
      <point x="440" y="120"/>
      <point x="387" y="67"/>
    </contour>
    <contour>
      <point x="266" y="662" type="curve"/>
      <point x="266" y="395" type="line"/>
      <point x="181" y="436"/>
      <point x="142" y="465"/>
      <point x="142" y="547" type="curve" smooth="yes"/>
      <point x="142" y="607"/>
      <point x="186" y="655"/>
    </contour>
  </outline>
</glyph>
<glyph name="percent.mono" format="2">
  <advance width="600"/>
  <unicode hex="0025"/>
  <outline>
    <contour>
      <point x="94" y="0" type="line"/>
      <point x="124" y="0" type="line"/>
      <point x="494" y="714" type="line"/>
      <point x="464" y="714" type="line"/>
    </contour>
    <contour>
      <point x="463" y="-9" type="curve" smooth="yes"/>
      <point x="556" y="-9"/>
      <point x="600" y="63"/>
      <point x="600" y="163" type="curve" smooth="yes"/>
      <point x="600" y="258"/>
      <point x="556" y="330"/>
      <point x="463" y="330" type="curve" smooth="yes"/>
      <point x="368" y="330"/>
      <point x="324" y="258"/>
      <point x="324" y="163" type="curve" smooth="yes"/>
      <point x="324" y="63"/>
      <point x="368" y="-9"/>
    </contour>
    <contour>
      <point x="463" y="15" type="curve" smooth="yes"/>
      <point x="385" y="15"/>
      <point x="350" y="78"/>
      <point x="350" y="163" type="curve" smooth="yes"/>
      <point x="350" y="246"/>
      <point x="385" y="306"/>
      <point x="463" y="306" type="curve" smooth="yes"/>
      <point x="539" y="306"/>
      <point x="574" y="244"/>
      <point x="574" y="163" type="curve" smooth="yes"/>
      <point x="574" y="77"/>
      <point x="538" y="15"/>
    </contour>
    <contour>
      <point x="139" y="383" type="curve" smooth="yes"/>
      <point x="232" y="383"/>
      <point x="276" y="455"/>
      <point x="276" y="555" type="curve" smooth="yes"/>
      <point x="276" y="650"/>
      <point x="232" y="722"/>
      <point x="139" y="722" type="curve" smooth="yes"/>
      <point x="44" y="722"/>
      <point x="0" y="650"/>
      <point x="0" y="555" type="curve" smooth="yes"/>
      <point x="0" y="455"/>
      <point x="44" y="383"/>
    </contour>
    <contour>
      <point x="139" y="407" type="curve" smooth="yes"/>
      <point x="61" y="407"/>
      <point x="26" y="470"/>
      <point x="26" y="555" type="curve" smooth="yes"/>
      <point x="26" y="638"/>
      <point x="61" y="698"/>
      <point x="139" y="698" type="curve" smooth="yes"/>
      <point x="215" y="698"/>
      <point x="250" y="636"/>
      <point x="250" y="555" type="curve" smooth="yes"/>
      <point x="250" y="469"/>
      <point x="214" y="407"/>
    </contour>
  </outline>
</glyph>
<glyph name="ampersand.mono" format="2">
  <advance width="600"/>
  <unicode hex="0026"/>
  <outline>
    <contour>
      <point x="262" y="-10" type="curve" smooth="yes"/>
      <point x="426" y="-10"/>
      <point x="523" y="149"/>
      <point x="544" y="317" type="curve"/>
      <point x="519" y="317" type="line"/>
      <point x="504" y="172"/>
      <point x="412" y="15"/>
      <point x="261" y="15" type="curve" smooth="yes"/>
      <point x="168" y="15"/>
      <point x="110" y="75"/>
      <point x="110" y="174" type="curve" smooth="yes"/>
      <point x="110" y="283"/>
      <point x="180" y="330"/>
      <point x="257" y="379" type="curve" smooth="yes"/>
      <point x="324" y="422"/>
      <point x="400" y="473"/>
      <point x="400" y="583" type="curve" smooth="yes"/>
      <point x="400" y="674"/>
      <point x="349" y="725"/>
      <point x="276" y="725" type="curve" smooth="yes"/>
      <point x="200" y="725"/>
      <point x="149" y="669"/>
      <point x="149" y="583" type="curve" smooth="yes"/>
      <point x="149" y="515"/>
      <point x="181" y="456"/>
      <point x="239" y="381" type="curve" smooth="yes"/>
      <point x="532" y="0" type="line"/>
      <point x="563" y="0" type="line"/>
      <point x="259" y="393" type="line" smooth="yes"/>
      <point x="212" y="454"/>
      <point x="174" y="517"/>
      <point x="174" y="585" type="curve" smooth="yes"/>
      <point x="174" y="652"/>
      <point x="212" y="700"/>
      <point x="276" y="700" type="curve" smooth="yes"/>
      <point x="338" y="700"/>
      <point x="374" y="654"/>
      <point x="374" y="584" type="curve" smooth="yes"/>
      <point x="374" y="488"/>
      <point x="305" y="438"/>
      <point x="241" y="398" type="curve" smooth="yes"/>
      <point x="160" y="347"/>
      <point x="84" y="296"/>
      <point x="84" y="175" type="curve" smooth="yes"/>
      <point x="84" y="60"/>
      <point x="153" y="-10"/>
    </contour>
  </outline>
</glyph>
<glyph name="ampersand.serif" format="2">
  <advance width="668"/>
  <unicode hex="0026"/>
  <outline>
    <contour>
      <point x="229" y="-10" type="curve" smooth="yes"/>
      <point x="344" y="-10"/>
      <point x="406" y="48"/>
      <point x="450" y="112" type="curve"/>
      <point x="554" y="0" type="line"/>
      <point x="663" y="0" type="line"/>
      <point x="663" y="20" type="line"/>
      <point x="648" y="20" type="line" smooth="yes"/>
      <point x="592" y="20"/>
      <point x="570" y="24"/>
      <point x="551" y="45" type="curve" smooth="yes"/>
      <point x="465" y="138" type="line"/>
      <point x="496" y="195"/>
      <point x="512" y="273"/>
      <point x="519" y="335" type="curve" smooth="yes"/>
      <point x="525" y="392"/>
      <point x="531" y="395"/>
      <point x="596" y="395" type="curve" smooth="yes"/>
      <point x="627" y="395" type="line"/>
      <point x="627" y="415" type="line"/>
      <point x="495" y="415" type="line"/>
      <point x="495" y="382" type="line" smooth="yes"/>
      <point x="495" y="317"/>
      <point x="482" y="227"/>
      <point x="447" y="156" type="curve"/>
      <point x="230" y="391" type="line"/>
      <point x="366" y="429"/>
      <point x="423" y="490"/>
      <point x="423" y="582" type="curve" smooth="yes"/>
      <point x="423" y="655"/>
      <point x="376" y="724"/>
      <point x="264" y="724" type="curve" smooth="yes"/>
      <point x="139" y="724"/>
      <point x="95" y="649"/>
      <point x="95" y="580" type="curve" smooth="yes"/>
      <point x="95" y="495"/>
      <point x="134" y="454"/>
      <point x="175" y="405" type="curve"/>
      <point x="79" y="366"/>
      <point x="22" y="303"/>
      <point x="22" y="194" type="curve" smooth="yes"/>
      <point x="22" y="78"/>
      <point x="102" y="-10"/>
    </contour>
    <contour>
      <point x="229" y="15" type="curve" smooth="yes"/>
      <point x="124" y="15"/>
      <point x="50" y="86"/>
      <point x="50" y="201" type="curve" smooth="yes"/>
      <point x="50" y="319"/>
      <point x="129" y="364"/>
      <point x="197" y="386" type="curve"/>
      <point x="434" y="130" type="line"/>
      <point x="394" y="66"/>
      <point x="329" y="15"/>
    </contour>
    <contour>
      <point x="208" y="411" type="curve"/>
      <point x="153" y="469"/>
      <point x="123" y="507"/>
      <point x="123" y="580" type="curve" smooth="yes"/>
      <point x="123" y="651"/>
      <point x="172" y="699"/>
      <point x="266" y="699" type="curve" smooth="yes"/>
      <point x="351" y="699"/>
      <point x="395" y="644"/>
      <point x="395" y="581" type="curve" smooth="yes"/>
      <point x="395" y="499"/>
      <point x="340" y="443"/>
    </contour>
  </outline>
</glyph>
<glyph name="quotesingle.guru" format="2">
  <advance width="134"/>
  <unicode hex="0027"/>
  <outline>
    <contour>
      <point x="57" y="499" type="line"/>
      <point x="79" y="499" type="line"/>
      <point x="87" y="714" type="line"/>
      <point x="47" y="714" type="line"/>
    </contour>
  </outline>
</glyph>
<glyph name="quotesingle.serif" format="2">
  <advance width="134"/>
  <unicode hex="0027"/>
  <outline>
    <contour>
      <point x="57" y="499" type="line"/>
      <point x="79" y="499" type="line"/>
      <point x="87" y="714" type="line"/>
      <point x="47" y="714" type="line"/>
    </contour>
  </outline>
</glyph>
<glyph name="parenleft.mono" format="2">
  <advance width="600"/>
  <unicode hex="0028"/>
  <outline>
    <contour>
      <point x="367" y="-158" type="curve"/>
      <point x="396" y="-158" type="line"/>
      <point x="295" y="-39"/>
      <point x="249" y="109"/>
      <point x="249" y="275" type="curve" smooth="yes"/>
      <point x="249" y="443"/>
      <point x="294" y="596"/>
      <point x="397" y="714" type="curve"/>
      <point x="367" y="714" type="line"/>
      <point x="276" y="606"/>
      <point x="222" y="451"/>
      <point x="222" y="274" type="curve" smooth="yes"/>
      <point x="222" y="99"/>
      <point x="276" y="-46"/>
    </contour>
  </outline>
</glyph>
<glyph name="parenleft.serif" format="2">
  <advance width="278"/>
  <unicode hex="0028"/>
  <outline>
    <contour>
      <point x="246" y="-114" type="curve"/>
      <point x="246" y="-90" type="line"/>
      <point x="96" y="-21"/>
      <point x="85" y="156"/>
      <point x="85" y="315" type="curve" smooth="yes"/>
      <point x="85" y="474"/>
      <point x="93" y="659"/>
      <point x="246" y="719" type="curve"/>
      <point x="246" y="744" type="line"/>
      <point x="112" y="693"/>
      <point x="57" y="587"/>
      <point x="57" y="315" type="curve" smooth="yes"/>
      <point x="57" y="44"/>
      <point x="112" y="-61"/>
    </contour>
  </outline>
</glyph>
<glyph name="asterisk.mono" format="2">
  <advance width="600"/>
  <unicode hex="002A"/>
  <outline>
    <contour>
      <point x="439" y="357" type="line"/>
      <point x="462" y="374" type="line"/>
      <point x="339" y="537" type="line"/>
      <point x="533" y="594" type="line"/>
      <point x="525" y="621" type="line"/>
      <point x="332" y="556" type="line"/>
      <point x="337" y="758" type="line"/>
      <point x="309" y="758" type="line"/>
      <point x="313" y="556" type="line"/>
      <point x="121" y="621" type="line"/>
      <point x="112" y="594" type="line"/>
      <point x="307" y="536" type="line"/>
      <point x="185" y="374" type="line"/>
      <point x="208" y="358" type="line"/>
      <point x="323" y="524" type="line"/>
    </contour>
  </outline>
</glyph>
<glyph name="comma.mono" format="2">
  <advance width="600"/>
  <unicode hex="002C"/>
  <outline>
    <contour>
      <point x="248" y="-129" type="curve"/>
      <point x="270" y="-129" type="line"/>
      <point x="298" y="-60"/>
      <point x="320" y="30"/>
      <point x="335" y="104" type="curve"/>
      <point x="332" y="116" type="line"/>
      <point x="304" y="116" type="line"/>
      <point x="293" y="40"/>
      <point x="277" y="-32"/>
    </contour>
  </outline>
</glyph>
<glyph name="period.serif" format="2">
  <advance width="194"/>
  <unicode hex="002E"/>
  <outline>
    <contour>
      <point x="97" y="-5" type="curve" smooth="yes"/>
      <point x="113" y="-5"/>
      <point x="126" y="4"/>
      <point x="126" y="35" type="curve" smooth="yes"/>
      <point x="126" y="65"/>
      <point x="113" y="73"/>
      <point x="97" y="73" type="curve" smooth="yes"/>
      <point x="82" y="73"/>
      <point x="68" y="65"/>
      <point x="68" y="35" type="curve" smooth="yes"/>
      <point x="68" y="4"/>
      <point x="82" y="-5"/>
    </contour>
  </outline>
</glyph>
<glyph name="zero.mono" format="2">
  <advance width="600"/>
  <unicode hex="0030"/>
  <outline>
    <contour>
      <point x="301" y="-10" type="curve" smooth="yes"/>
      <point x="445" y="-10"/>
      <point x="512" y="113"/>
      <point x="512" y="365" type="curve" smooth="yes"/>
      <point x="512" y="573"/>
      <point x="466" y="725"/>
      <point x="303" y="725" type="curve" smooth="yes"/>
      <point x="141" y="725"/>
      <point x="87" y="574"/>
      <point x="87" y="359" type="curve" smooth="yes"/>
      <point x="87" y="105"/>
      <point x="162" y="-10"/>
    </contour>
    <contour>
      <point x="151" y="87" type="line"/>
      <point x="463" y="617" type="line"/>
      <point x="446" y="637" type="line"/>
      <point x="143" y="121" type="line"/>
    </contour>
    <contour>
      <point x="302" y="15" type="curve" smooth="yes"/>
      <point x="177" y="15"/>
      <point x="114" y="123"/>
      <point x="114" y="360" type="curve" smooth="yes"/>
      <point x="114" y="559"/>
      <point x="159" y="700"/>
      <point x="303" y="700" type="curve" smooth="yes"/>
      <point x="447" y="700"/>
      <point x="485" y="560"/>
      <point x="485" y="363" type="curve" smooth="yes"/>
      <point x="485" y="127"/>
      <point x="430" y="15"/>
    </contour>
  </outline>
</glyph>
<glyph name="one.mono" format="2">
  <advance width="600"/>
  <unicode hex="0031"/>
  <outline>
    <contour>
      <point x="333" y="563" type="curve" smooth="yes"/>
      <point x="333" y="0" type="line"/>
      <point x="359" y="0" type="line"/>
      <point x="359" y="714" type="line"/>
      <point x="336" y="714" type="line"/>
      <point x="141" y="572" type="line"/>
      <point x="157" y="551" type="line"/>
      <point x="280" y="642" type="line" smooth="yes"/>
      <point x="305" y="661"/>
      <point x="318" y="671"/>
      <point x="334" y="685" type="curve"/>
      <point x="333" y="658"/>
      <point x="333" y="620"/>
    </contour>
    <contour>
      <point x="200" y="0" type="line"/>
      <point x="486" y="0" type="line"/>
      <point x="486" y="20" type="line"/>
      <point x="359" y="23" type="line"/>
      <point x="333" y="23" type="line"/>
      <point x="200" y="20" type="line"/>
    </contour>
  </outline>
</glyph>
<glyph name="two.mono" format="2">
  <advance width="600"/>
  <unicode hex="0032"/>
  <outline>
    <contour>
      <point x="109" y="0" type="line"/>
      <point x="521" y="0" type="line"/>
      <point x="521" y="25" type="line"/>
      <point x="145" y="25" type="line"/>
      <point x="145" y="27" type="line"/>
      <point x="353" y="246" type="line" smooth="yes"/>
      <point x="445" y="342"/>
      <point x="487" y="419"/>
      <point x="487" y="539" type="curve" smooth="yes"/>
      <point x="487" y="652"/>
      <point x="414" y="724"/>
      <point x="300" y="724" type="curve" smooth="yes"/>
      <point x="238" y="724"/>
      <point x="171" y="705"/>
      <point x="110" y="655" type="curve"/>
      <point x="125" y="635" type="line"/>
      <point x="178" y="678"/>
      <point x="241" y="699"/>
      <point x="298" y="699" type="curve" smooth="yes"/>
      <point x="399" y="699"/>
      <point x="460" y="639"/>
      <point x="460" y="539" type="curve" smooth="yes"/>
      <point x="460" y="428"/>
      <point x="424" y="357"/>
      <point x="333" y="260" type="curve" smooth="yes"/>
      <point x="109" y="23" type="line"/>
    </contour>
  </outline>
</glyph>
<glyph name="three.mono" format="2">
  <advance width="600"/>
  <unicode hex="0033"/>
  <outline>
    <contour>
      <point x="284" y="-10" type="curve" smooth="yes"/>
      <point x="441" y="-10"/>
      <point x="522" y="72"/>
      <point x="522" y="195" type="curve" smooth="yes"/>
      <point x="522" y="300"/>
      <point x="463" y="358"/>
      <point x="358" y="373" type="curve"/>
      <point x="358" y="375" type="line"/>
      <point x="440" y="391"/>
      <point x="500" y="455"/>
      <point x="500" y="554" type="curve" smooth="yes"/>
      <point x="500" y="661"/>
      <point x="424" y="724"/>
      <point x="311" y="724" type="curve" smooth="yes"/>
      <point x="230" y="724"/>
      <point x="165" y="695"/>
      <point x="106" y="650" type="curve"/>
      <point x="121" y="630" type="line"/>
      <point x="186" y="677"/>
      <point x="243" y="699"/>
      <point x="310" y="699" type="curve" smooth="yes"/>
      <point x="409" y="699"/>
      <point x="473" y="651"/>
      <point x="473" y="553" type="curve" smooth="yes"/>
      <point x="473" y="434"/>
      <point x="380" y="384"/>
      <point x="279" y="384" type="curve" smooth="yes"/>
      <point x="196" y="384" type="line"/>
      <point x="196" y="359" type="line"/>
      <point x="279" y="359" type="line" smooth="yes"/>
      <point x="406" y="359"/>
      <point x="495" y="314"/>
      <point x="495" y="194" type="curve" smooth="yes"/>
      <point x="495" y="85"/>
      <point x="423" y="15"/>
      <point x="288" y="15" type="curve" smooth="yes"/>
      <point x="216" y="15"/>
      <point x="148" y="35"/>
      <point x="98" y="60" type="curve"/>
      <point x="98" y="32" type="line"/>
      <point x="149" y="8"/>
      <point x="215" y="-10"/>
    </contour>
  </outline>
</glyph>
<glyph name="four.mono" format="2">
  <advance width="600"/>
  <unicode hex="0034"/>
  <outline>
    <contour>
      <point x="400" y="0" type="line"/>
      <point x="426" y="0" type="line"/>
      <point x="426" y="195" type="line"/>
      <point x="540" y="195" type="line"/>
      <point x="540" y="219" type="line"/>
      <point x="426" y="219" type="line"/>
      <point x="426" y="718" type="line"/>
      <point x="394" y="718" type="line"/>
      <point x="60" y="213" type="line"/>
      <point x="60" y="195" type="line"/>
      <point x="400" y="195" type="line"/>
    </contour>
    <contour>
      <point x="94" y="219" type="line"/>
      <point x="337" y="587" type="line" smooth="yes"/>
      <point x="365" y="629"/>
      <point x="377" y="650"/>
      <point x="399" y="686" type="curve"/>
      <point x="401" y="686" type="line"/>
      <point x="400" y="635"/>
      <point x="400" y="610"/>
      <point x="400" y="524" type="curve" smooth="yes"/>
      <point x="400" y="219" type="line"/>
    </contour>
  </outline>
</glyph>
<glyph name="five.mono" format="2">
  <advance width="600"/>
  <unicode hex="0035"/>
  <outline>
    <contour>
      <point x="276" y="-10" type="curve" smooth="yes"/>
      <point x="423" y="-10"/>
      <point x="505" y="77"/>
      <point x="505" y="219" type="curve" smooth="yes"/>
      <point x="505" y="351"/>
      <point x="427" y="426"/>
      <point x="289" y="426" type="curve" smooth="yes"/>
      <point x="229" y="426"/>
      <point x="174" y="413"/>
      <point x="155" y="406" type="curve"/>
      <point x="181" y="689" type="line"/>
      <point x="472" y="689" type="line"/>
      <point x="472" y="714" type="line"/>
      <point x="158" y="714" type="line"/>
      <point x="128" y="393" type="line"/>
      <point x="147" y="378" type="line"/>
      <point x="195" y="393"/>
      <point x="244" y="401"/>
      <point x="288" y="401" type="curve" smooth="yes"/>
      <point x="418" y="401"/>
      <point x="478" y="331"/>
      <point x="478" y="217" type="curve" smooth="yes"/>
      <point x="478" y="91"/>
      <point x="404" y="15"/>
      <point x="278" y="15" type="curve" smooth="yes"/>
      <point x="215" y="15"/>
      <point x="150" y="34"/>
      <point x="104" y="62" type="curve"/>
      <point x="104" y="32" type="line"/>
      <point x="143" y="9"/>
      <point x="211" y="-10"/>
    </contour>
  </outline>
</glyph>
<glyph name="six.mono" format="2">
  <advance width="600"/>
  <unicode hex="0036"/>
  <outline>
    <contour>
      <point x="312" y="-10" type="curve" smooth="yes"/>
      <point x="440" y="-10"/>
      <point x="514" y="88"/>
      <point x="514" y="225" type="curve" smooth="yes"/>
      <point x="514" y="355"/>
      <point x="439" y="439"/>
      <point x="315" y="439" type="curve" smooth="yes"/>
      <point x="204" y="439"/>
      <point x="143" y="379"/>
      <point x="117" y="322" type="curve"/>
      <point x="115" y="322" type="line"/>
      <point x="115" y="599"/>
      <point x="230" y="701"/>
      <point x="362" y="701" type="curve" smooth="yes"/>
      <point x="395" y="701"/>
      <point x="431" y="695"/>
      <point x="455" y="686" type="curve"/>
      <point x="455" y="713" type="line"/>
      <point x="428" y="721"/>
      <point x="394" y="726"/>
      <point x="363" y="726" type="curve" smooth="yes"/>
      <point x="210" y="726"/>
      <point x="90" y="604"/>
      <point x="90" y="327" type="curve" smooth="yes"/>
      <point x="90" y="147"/>
      <point x="145" y="-10"/>
    </contour>
    <contour>
      <point x="312" y="15" type="curve" smooth="yes"/>
      <point x="151" y="15"/>
      <point x="122" y="188"/>
      <point x="122" y="245" type="curve" smooth="yes"/>
      <point x="122" y="337"/>
      <point x="197" y="414"/>
      <point x="314" y="414" type="curve" smooth="yes"/>
      <point x="433" y="414"/>
      <point x="487" y="339"/>
      <point x="487" y="225" type="curve" smooth="yes"/>
      <point x="487" y="97"/>
      <point x="425" y="15"/>
    </contour>
  </outline>
</glyph>
<glyph name="seven.guru" format="2">
  <advance width="559"/>
  <unicode hex="0037"/>
  <outline>
    <contour>
      <point x="183" y="0" type="line"/>
      <point x="213" y="0" type="line"/>
      <point x="493" y="692" type="line"/>
      <point x="493" y="714" type="line"/>
      <point x="65" y="714" type="line"/>
      <point x="59" y="570" type="line"/>
      <point x="79" y="570" type="line"/>
      <point x="83" y="633" type="line" smooth="yes"/>
      <point x="86" y="682"/>
      <point x="97" y="686"/>
      <point x="133" y="686" type="curve" smooth="yes"/>
      <point x="463" y="686" type="line"/>
    </contour>
  </outline>
</glyph>
<glyph name="seven.mono" format="2">
  <advance width="600"/>
  <unicode hex="0037"/>
  <outline>
    <contour>
      <point x="213" y="0" type="line"/>
      <point x="242" y="0" type="line"/>
      <point x="510" y="697" type="line"/>
      <point x="510" y="714" type="line"/>
      <point x="128" y="714" type="line"/>
      <point x="128" y="689" type="line"/>
      <point x="480" y="689" type="line"/>
    </contour>
  </outline>
</glyph>
<glyph name="eight.mono" format="2">
  <advance width="600"/>
  <unicode hex="0038"/>
  <outline>
    <contour>
      <point x="278" y="-10" type="curve" smooth="yes"/>
      <point x="398" y="-10"/>
      <point x="493" y="59"/>
      <point x="493" y="181" type="curve" smooth="yes"/>
      <point x="493" y="281"/>
      <point x="431" y="339"/>
      <point x="314" y="382" type="curve"/>
      <point x="413" y="424"/>
      <point x="469" y="474"/>
      <point x="469" y="564" type="curve" smooth="yes"/>
      <point x="469" y="663"/>
      <point x="393" y="724"/>
      <point x="287" y="724" type="curve" smooth="yes"/>
      <point x="171" y="724"/>
      <point x="97" y="659"/>
      <point x="97" y="558" type="curve" smooth="yes"/>
      <point x="97" y="461"/>
      <point x="166" y="415"/>
      <point x="251" y="381" type="curve"/>
      <point x="143" y="342"/>
      <point x="74" y="282"/>
      <point x="74" y="176" type="curve" smooth="yes"/>
      <point x="74" y="65"/>
      <point x="158" y="-10"/>
    </contour>
    <contour>
      <point x="278" y="15" type="curve" smooth="yes"/>
      <point x="172" y="15"/>
      <point x="101" y="79"/>
      <point x="101" y="176" type="curve" smooth="yes"/>
      <point x="101" y="282"/>
      <point x="181" y="332"/>
      <point x="281" y="368" type="curve"/>
      <point x="420" y="318"/>
      <point x="466" y="269"/>
      <point x="466" y="183" type="curve" smooth="yes"/>
      <point x="466" y="72"/>
      <point x="387" y="15"/>
    </contour>
    <contour>
      <point x="284" y="395" type="curve"/>
      <point x="186" y="431"/>
      <point x="124" y="469"/>
      <point x="124" y="560" type="curve" smooth="yes"/>
      <point x="124" y="649"/>
      <point x="190" y="699"/>
      <point x="287" y="699" type="curve" smooth="yes"/>
      <point x="383" y="699"/>
      <point x="442" y="649"/>
      <point x="442" y="565" type="curve" smooth="yes"/>
      <point x="442" y="477"/>
      <point x="390" y="437"/>
    </contour>
  </outline>
</glyph>
<glyph name="nine.mono" format="2">
  <advance width="600"/>
  <unicode hex="0039"/>
  <outline>
    <contour>
      <point x="229" y="-10" type="curve" smooth="yes"/>
      <point x="388" y="-10"/>
      <point x="507" y="108"/>
      <point x="507" y="401" type="curve" smooth="yes"/>
      <point x="507" y="569"/>
      <point x="448" y="726"/>
      <point x="287" y="726" type="curve" smooth="yes"/>
      <point x="157" y="726"/>
      <point x="83" y="630"/>
      <point x="83" y="491" type="curve" smooth="yes"/>
      <point x="83" y="361"/>
      <point x="154" y="277"/>
      <point x="280" y="277" type="curve" smooth="yes"/>
      <point x="390" y="277"/>
      <point x="453" y="336"/>
      <point x="481" y="394" type="curve"/>
      <point x="483" y="394" type="line"/>
      <point x="477" y="112"/>
      <point x="367" y="15"/>
      <point x="229" y="15" type="curve" smooth="yes"/>
      <point x="187" y="15"/>
      <point x="145" y="22"/>
      <point x="121" y="31" type="curve"/>
      <point x="121" y="3" type="line"/>
      <point x="148" y="-5"/>
      <point x="187" y="-10"/>
    </contour>
    <contour>
      <point x="282" y="302" type="curve" smooth="yes"/>
      <point x="167" y="302"/>
      <point x="110" y="374"/>
      <point x="110" y="491" type="curve" smooth="yes"/>
      <point x="110" y="621"/>
      <point x="172" y="701"/>
      <point x="287" y="701" type="curve" smooth="yes"/>
      <point x="441" y="701"/>
      <point x="476" y="537"/>
      <point x="476" y="458" type="curve" smooth="yes"/>
      <point x="476" y="389"/>
      <point x="402" y="302"/>
    </contour>
  </outline>
</glyph>
<glyph name="colon.mono" format="2">
  <advance width="600"/>
  <unicode hex="003A"/>
  <outline>
    <contour>
      <point x="300" y="466" type="curve" smooth="yes"/>
      <point x="325" y="466"/>
      <point x="328" y="482"/>
      <point x="328" y="501" type="curve" smooth="yes"/>
      <point x="328" y="519"/>
      <point x="325" y="536"/>
      <point x="300" y="536" type="curve" smooth="yes"/>
      <point x="276" y="536"/>
      <point x="270" y="519"/>
      <point x="270" y="501" type="curve" smooth="yes"/>
      <point x="270" y="482"/>
      <point x="276" y="466"/>
    </contour>
    <contour>
      <point x="300" y="-12" type="curve" smooth="yes"/>
      <point x="325" y="-12"/>
      <point x="328" y="4"/>
      <point x="328" y="23" type="curve" smooth="yes"/>
      <point x="328" y="41"/>
      <point x="325" y="58"/>
      <point x="300" y="58" type="curve" smooth="yes"/>
      <point x="276" y="58"/>
      <point x="270" y="41"/>
      <point x="270" y="23" type="curve" smooth="yes"/>
      <point x="270" y="4"/>
      <point x="276" y="-12"/>
    </contour>
  </outline>
</glyph>
<glyph name="semicolon.mono" format="2">
  <advance width="600"/>
  <unicode hex="003B"/>
  <outline>
    <contour>
      <point x="238" y="-129" type="curve"/>
      <point x="260" y="-129" type="line"/>
      <point x="288" y="-60"/>
      <point x="310" y="30"/>
      <point x="325" y="104" type="curve"/>
      <point x="322" y="116" type="line"/>
      <point x="294" y="116" type="line"/>
      <point x="283" y="40"/>
      <point x="267" y="-32"/>
    </contour>
    <contour>
      <point x="310" y="470" type="curve" smooth="yes"/>
      <point x="334" y="470"/>
      <point x="337" y="484"/>
      <point x="337" y="501" type="curve" smooth="yes"/>
      <point x="337" y="517"/>
      <point x="334" y="532"/>
      <point x="310" y="532" type="curve" smooth="yes"/>
      <point x="290" y="532"/>
      <point x="285" y="517"/>
      <point x="285" y="501" type="curve" smooth="yes"/>
      <point x="285" y="484"/>
      <point x="290" y="470"/>
    </contour>
  </outline>
</glyph>
<glyph name="semicolon.serif" format="2">
  <advance width="224"/>
  <unicode hex="003B"/>
  <outline>
    <contour>
      <point x="42" y="-132" type="curve"/>
      <point x="42" y="-154" type="line"/>
      <point x="123" y="-127"/>
      <point x="154" y="-67"/>
      <point x="154" y="0" type="curve" smooth="yes"/>
      <point x="154" y="52"/>
      <point x="130" y="73"/>
      <point x="103" y="73" type="curve" smooth="yes"/>
      <point x="84" y="73"/>
      <point x="76" y="60"/>
      <point x="76" y="42" type="curve" smooth="yes"/>
      <point x="76" y="17"/>
      <point x="123" y="4"/>
      <point x="123" y="-30" type="curve" smooth="yes"/>
      <point x="123" y="-61"/>
      <point x="101" y="-115"/>
    </contour>
    <contour>
      <point x="110" y="433" type="curve" smooth="yes"/>
      <point x="126" y="433"/>
      <point x="139" y="442"/>
      <point x="139" y="473" type="curve" smooth="yes"/>
      <point x="139" y="503"/>
      <point x="126" y="511"/>
      <point x="110" y="511" type="curve" smooth="yes"/>
      <point x="95" y="511"/>
      <point x="81" y="503"/>
      <point x="81" y="473" type="curve" smooth="yes"/>
      <point x="81" y="442"/>
      <point x="95" y="433"/>
    </contour>
  </outline>
</glyph>
<glyph name="greater.mono" format="2">
  <advance width="600"/>
  <unicode hex="003E"/>
  <outline>
    <contour>
      <point x="71" y="138" type="line"/>
      <point x="529" y="353" type="line"/>
      <point x="529" y="371" type="line"/>
      <point x="71" y="586" type="line"/>
      <point x="71" y="560" type="line"/>
      <point x="494" y="362" type="line"/>
      <point x="71" y="164" type="line"/>
    </contour>
  </outline>
</glyph>
<glyph name="question.mono" format="2">
  <advance width="600"/>
  <unicode hex="003F"/>
  <outline>
    <contour>
      <point x="238" y="186" type="curve" smooth="yes"/>
      <point x="238" y="174" type="line"/>
      <point x="263" y="174" type="line"/>
      <point x="263" y="186" type="line" smooth="yes"/>
      <point x="263" y="277"/>
      <point x="284" y="314"/>
      <point x="336" y="350" type="curve" smooth="yes"/>
      <point x="415" y="405"/>
      <point x="468" y="454"/>
      <point x="468" y="554" type="curve" smooth="yes"/>
      <point x="468" y="668"/>
      <point x="394" y="724"/>
      <point x="282" y="724" type="curve" smooth="yes"/>
      <point x="228" y="724"/>
      <point x="190" y="715"/>
      <point x="132" y="691" type="curve"/>
      <point x="142" y="665" type="line"/>
      <point x="190" y="689"/>
      <point x="233" y="699"/>
      <point x="282" y="699" type="curve" smooth="yes"/>
      <point x="375" y="699"/>
      <point x="441" y="654"/>
      <point x="441" y="554" type="curve" smooth="yes"/>
      <point x="441" y="463"/>
      <point x="395" y="422"/>
      <point x="323" y="371" type="curve" smooth="yes"/>
      <point x="254" y="322"/>
      <point x="238" y="285"/>
    </contour>
    <contour>
      <point x="252" y="-12" type="curve" smooth="yes"/>
      <point x="279" y="-12"/>
      <point x="282" y="4"/>
      <point x="282" y="23" type="curve" smooth="yes"/>
      <point x="282" y="41"/>
      <point x="279" y="58"/>
      <point x="252" y="58" type="curve" smooth="yes"/>
      <point x="230" y="58"/>
      <point x="224" y="41"/>
      <point x="224" y="23" type="curve" smooth="yes"/>
      <point x="224" y="4"/>
      <point x="230" y="-12"/>
    </contour>
  </outline>
</glyph>
<glyph name="at.mono" format="2">
  <advance width="600"/>
  <unicode hex="0040"/>
  <outline>
    <contour>
      <point x="325" y="-89" type="curve" smooth="yes"/>
      <point x="386" y="-89"/>
      <point x="447" y="-74"/>
      <point x="496" y="-49" type="curve"/>
      <point x="496" y="-21" type="line"/>
      <point x="441" y="-49"/>
      <point x="381" y="-64"/>
      <point x="323" y="-64" type="curve" smooth="yes"/>
      <point x="147" y="-64"/>
      <point x="42" y="72"/>
      <point x="42" y="292" type="curve" smooth="yes"/>
      <point x="42" y="545"/>
      <point x="157" y="688"/>
      <point x="321" y="688" type="curve" smooth="yes"/>
      <point x="475" y="688"/>
      <point x="558" y="559"/>
      <point x="558" y="353" type="curve" smooth="yes"/>
      <point x="558" y="232"/>
      <point x="531" y="139"/>
      <point x="469" y="139" type="curve" smooth="yes"/>
      <point x="425" y="139"/>
      <point x="409" y="180"/>
      <point x="409" y="257" type="curve" smooth="yes"/>
      <point x="409" y="285"/>
      <point x="412" y="324"/>
      <point x="413" y="348" type="curve" smooth="yes"/>
      <point x="420" y="493" type="line"/>
      <point x="389" y="506"/>
      <point x="356" y="513"/>
      <point x="328" y="513" type="curve" smooth="yes"/>
      <point x="226" y="513"/>
      <point x="167" y="419"/>
      <point x="167" y="287" type="curve" smooth="yes"/>
      <point x="167" y="179"/>
      <point x="207" y="114"/>
      <point x="279" y="114" type="curve" smooth="yes"/>
      <point x="327" y="114"/>
      <point x="369" y="144"/>
      <point x="388" y="197" type="curve"/>
      <point x="390" y="197" type="line"/>
      <point x="395" y="146"/>
      <point x="425" y="114"/>
      <point x="471" y="114" type="curve" smooth="yes"/>
      <point x="547" y="114"/>
      <point x="585" y="221"/>
      <point x="585" y="356" type="curve" smooth="yes"/>
      <point x="585" y="576"/>
      <point x="486" y="713"/>
      <point x="318" y="713" type="curve" smooth="yes"/>
      <point x="142" y="713"/>
      <point x="15" y="562"/>
      <point x="15" y="294" type="curve" smooth="yes"/>
      <point x="15" y="59"/>
      <point x="129" y="-89"/>
    </contour>
    <contour>
      <point x="282" y="139" type="curve" smooth="yes"/>
      <point x="222" y="139"/>
      <point x="194" y="195"/>
      <point x="194" y="288" type="curve" smooth="yes"/>
      <point x="194" y="412"/>
      <point x="244" y="488"/>
      <point x="328" y="488" type="curve" smooth="yes"/>
      <point x="349" y="488"/>
      <point x="372" y="483"/>
      <point x="394" y="473" type="curve"/>
      <point x="385" y="323" type="line" smooth="yes"/>
      <point x="377" y="195"/>
      <point x="341" y="139"/>
    </contour>
  </outline>
</glyph>
<glyph name="at.serif" format="2">
  <advance width="921"/>
  <unicode hex="0040"/>
  <outline>
    <contour>
      <point x="390" y="-142" type="curve" smooth="yes"/>
      <point x="507" y="-142"/>
      <point x="593" y="-91"/>
      <point x="653" y="-45" type="curve"/>
      <point x="637" y="-26" type="line"/>
      <point x="582" y="-69"/>
      <point x="505" y="-117"/>
      <point x="394" y="-117" type="curve" smooth="yes"/>
      <point x="211" y="-117"/>
      <point x="111" y="-24"/>
      <point x="111" y="192" type="curve" smooth="yes"/>
      <point x="111" y="465"/>
      <point x="276" y="689"/>
      <point x="534" y="689" type="curve" smooth="yes"/>
      <point x="701" y="689"/>
      <point x="822" y="567"/>
      <point x="822" y="394" type="curve" smooth="yes"/>
      <point x="822" y="230"/>
      <point x="727" y="102"/>
      <point x="650" y="102" type="curve" smooth="yes"/>
      <point x="595" y="102"/>
      <point x="575" y="135"/>
      <point x="575" y="184" type="curve" smooth="yes"/>
      <point x="575" y="211"/>
      <point x="576" y="236"/>
      <point x="590" y="291" type="curve" smooth="yes"/>
      <point x="647" y="520" type="line"/>
      <point x="638" y="520" type="line"/>
      <point x="614" y="497" type="line"/>
      <point x="591" y="514"/>
      <point x="549" y="529"/>
      <point x="513" y="529" type="curve" smooth="yes"/>
      <point x="379" y="529"/>
      <point x="274" y="403"/>
      <point x="274" y="237" type="curve" smooth="yes"/>
      <point x="274" y="124"/>
      <point x="329" y="77"/>
      <point x="400" y="77" type="curve" smooth="yes"/>
      <point x="480" y="77"/>
      <point x="525" y="143"/>
      <point x="546" y="182" type="curve"/>
      <point x="548" y="182" type="line"/>
      <point x="547" y="122"/>
      <point x="584" y="77"/>
      <point x="650" y="77" type="curve" smooth="yes"/>
      <point x="744" y="77"/>
      <point x="850" y="209"/>
      <point x="850" y="392" type="curve" smooth="yes"/>
      <point x="850" y="579"/>
      <point x="726" y="714"/>
      <point x="530" y="714" type="curve" smooth="yes"/>
      <point x="285" y="714"/>
      <point x="83" y="511"/>
      <point x="83" y="186" type="curve" smooth="yes"/>
      <point x="83" y="-36"/>
      <point x="194" y="-142"/>
    </contour>
    <contour>
      <point x="405" y="102" type="curve" smooth="yes"/>
      <point x="344" y="102"/>
      <point x="302" y="144"/>
      <point x="302" y="235" type="curve" smooth="yes"/>
      <point x="302" y="369"/>
      <point x="381" y="504"/>
      <point x="513" y="504" type="curve" smooth="yes"/>
      <point x="555" y="504"/>
      <point x="590" y="486"/>
      <point x="606" y="473" type="curve"/>
      <point x="548" y="235" type="line" smooth="yes"/>
      <point x="537" y="191"/>
      <point x="474" y="102"/>
    </contour>
  </outline>
</glyph>
<glyph name="A.mono" format="2">
  <advance width="600"/>
  <unicode hex="0041"/>
  <anchor x="300" y="0" name="bottom"/>
  <anchor x="540" y="10" name="ogonek"/>
  <anchor x="300" y="714" name="top"/>
  <anchor x="580" y="714" name="topright"/>
  <outline>
    <contour>
      <point x="20" y="0" type="line"/>
      <point x="48" y="0" type="line"/>
      <point x="268" y="592" type="line" smooth="yes"/>
      <point x="278" y="619"/>
      <point x="290" y="651"/>
      <point x="300" y="681" type="curve"/>
      <point x="311" y="651"/>
      <point x="324" y="618"/>
      <point x="334" y="592" type="curve" smooth="yes"/>
      <point x="552" y="0" type="line"/>
      <point x="580" y="0" type="line"/>
      <point x="313" y="716" type="line"/>
      <point x="288" y="716" type="line"/>
    </contour>
    <contour>
      <point x="137" y="271" type="line"/>
      <point x="465" y="271" type="line"/>
      <point x="456" y="296" type="line"/>
      <point x="147" y="296" type="line"/>
    </contour>
  </outline>
</glyph>
<glyph name="A.serif" format="2">
  <advance width="645"/>
  <unicode hex="0041"/>
  <anchor x="553" y="0" name="bottom"/>
  <anchor x="323" y="714" name="top"/>
  <anchor x="525" y="714" name="topright"/>
  <outline>
    <contour>
      <point x="-4" y="0" type="line"/>
      <point x="220" y="0" type="line"/>
      <point x="220" y="20" type="line"/>
      <point x="167" y="20" type="line" smooth="yes"/>
      <point x="117" y="20"/>
      <point x="112" y="29"/>
      <point x="112" y="48" type="curve" smooth="yes"/>
      <point x="112" y="71"/>
      <point x="134" y="129"/>
      <point x="140" y="147" type="curve" smooth="yes"/>
      <point x="176" y="251" type="line"/>
      <point x="465" y="251" type="line"/>
      <point x="501" y="147" type="line" smooth="yes"/>
      <point x="507" y="129"/>
      <point x="529" y="71"/>
      <point x="529" y="48" type="curve" smooth="yes"/>
      <point x="529" y="29"/>
      <point x="524" y="20"/>
      <point x="474" y="20" type="curve" smooth="yes"/>
      <point x="440" y="20" type="line"/>
      <point x="440" y="0" type="line"/>
      <point x="645" y="0" type="line"/>
      <point x="645" y="20" type="line"/>
      <point x="623" y="20" type="line" smooth="yes"/>
      <point x="577" y="20"/>
      <point x="573" y="24"/>
      <point x="558" y="68" type="curve" smooth="yes"/>
      <point x="335" y="714" type="line"/>
      <point x="306" y="714" type="line"/>
      <point x="83" y="68" type="line" smooth="yes"/>
      <point x="68" y="24"/>
      <point x="64" y="20"/>
      <point x="18" y="20" type="curve" smooth="yes"/>
      <point x="-4" y="20" type="line"/>
    </contour>
    <contour>
      <point x="184" y="276" type="line"/>
      <point x="266" y="515" type="line" smooth="yes"/>
      <point x="281" y="560"/>
      <point x="313" y="649"/>
      <point x="321" y="680" type="curve"/>
      <point x="335" y="638"/>
      <point x="360" y="559"/>
      <point x="379" y="505" type="curve" smooth="yes"/>
      <point x="456" y="276" type="line"/>
    </contour>
  </outline>
</glyph>
<glyph name="C.mono" format="2">
  <advance width="600"/>
  <unicode hex="0043"/>
  <anchor x="347" y="0" name="bottom"/>
  <anchor x="360" y="714" name="top"/>
  <anchor x="580" y="714" name="topright"/>
  <outline>
    <contour>
      <point x="364" y="-10" type="curve" smooth="yes"/>
      <point x="435" y="-10"/>
      <point x="494" y="4"/>
      <point x="537" y="21" type="curve"/>
      <point x="537" y="48" type="line"/>
      <point x="490" y="31"/>
      <point x="428" y="15"/>
      <point x="368" y="15" type="curve" smooth="yes"/>
      <point x="187" y="15"/>
      <point x="97" y="152"/>
      <point x="97" y="349" type="curve" smooth="yes"/>
      <point x="97" y="564"/>
      <point x="200" y="699"/>
      <point x="383" y="699" type="curve" smooth="yes"/>
      <point x="425" y="699"/>
      <point x="482" y="691"/>
      <point x="540" y="663" type="curve"/>
      <point x="550" y="687" type="line"/>
      <point x="496" y="713"/>
      <point x="436" y="724"/>
      <point x="382" y="724" type="curve" smooth="yes"/>
      <point x="183" y="724"/>
      <point x="70" y="577"/>
      <point x="70" y="349" type="curve" smooth="yes"/>
      <point x="70" y="139"/>
      <point x="167" y="-10"/>
    </contour>
  </outline>
</glyph>
<glyph name="C.serif" format="2">
  <advance width="550"/>
  <unicode hex="0043"/>
  <anchor x="315" y="0" name="bottom"/>
  <anchor x="322" y="714" name="top"/>
  <anchor x="530" y="714" name="topright"/>
  <outline>
    <contour>
      <point x="324" y="-10" type="curve" smooth="yes"/>
      <point x="452" y="-10"/>
      <point x="510" y="65"/>
      <point x="510" y="86" type="curve" smooth="yes"/>
      <point x="510" y="96"/>
      <point x="506" y="106"/>
      <point x="497" y="111" type="curve"/>
      <point x="473" y="59"/>
      <point x="422" y="15"/>
      <point x="323" y="15" type="curve" smooth="yes"/>
      <point x="162" y="15"/>
      <point x="85" y="147"/>
      <point x="85" y="358" type="curve" smooth="yes"/>
      <point x="85" y="566"/>
      <point x="166" y="699"/>
      <point x="318" y="699" type="curve" smooth="yes"/>
      <point x="457" y="699"/>
      <point x="495" y="650"/>
      <point x="495" y="568" type="curve"/>
      <point x="509" y="568"/>
      <point x="516" y="583"/>
      <point x="516" y="610" type="curve" smooth="yes"/>
      <point x="516" y="666"/>
      <point x="464" y="724"/>
      <point x="324" y="724" type="curve" smooth="yes"/>
      <point x="149" y="724"/>
      <point x="57" y="588"/>
      <point x="57" y="358" type="curve" smooth="yes"/>
      <point x="57" y="131"/>
      <point x="145" y="-10"/>
    </contour>
  </outline>
</glyph>
<glyph name="D.mono" format="2">
  <advance width="600"/>
  <unicode hex="0044"/>
  <anchor x="270" y="0" name="bottom"/>
  <anchor x="284" y="357" name="center"/>
  <anchor x="302" y="714" name="top"/>
  <anchor x="600" y="714" name="topright"/>
  <outline>
    <contour>
      <point x="95" y="0" type="line"/>
      <point x="228" y="0" type="line" smooth="yes"/>
      <point x="437" y="0"/>
      <point x="545" y="126"/>
      <point x="545" y="363" type="curve" smooth="yes"/>
      <point x="545" y="592"/>
      <point x="445" y="714"/>
      <point x="237" y="714" type="curve" smooth="yes"/>
      <point x="95" y="714" type="line"/>
    </contour>
    <contour>
      <point x="217" y="25" type="curve" smooth="yes"/>
      <point x="121" y="25" type="line"/>
      <point x="121" y="689" type="line"/>
      <point x="227" y="689" type="line" smooth="yes"/>
      <point x="431" y="689"/>
      <point x="518" y="575"/>
      <point x="518" y="362" type="curve" smooth="yes"/>
      <point x="518" y="136"/>
      <point x="420" y="25"/>
    </contour>
  </outline>
</glyph>
<glyph name="D.serif" format="2">
  <advance width="677"/>
  <unicode hex="0044"/>
  <anchor x="339" y="0" name="bottom"/>
  <anchor x="339" y="357" name="center"/>
  <anchor x="339" y="714" name="top"/>
  <anchor x="657" y="714" name="topright"/>
  <outline>
    <contour>
      <point x="50" y="0" type="line"/>
      <point x="319" y="0" type="line" smooth="yes"/>
      <point x="523" y="0"/>
      <point x="616" y="123"/>
      <point x="616" y="342" type="curve" smooth="yes"/>
      <point x="616" y="569"/>
      <point x="514" y="714"/>
      <point x="315" y="714" type="curve" smooth="yes"/>
      <point x="50" y="714" type="line"/>
      <point x="50" y="694" type="line"/>
      <point x="93" y="694" type="line" smooth="yes"/>
      <point x="143" y="694"/>
      <point x="149" y="683"/>
      <point x="149" y="606" type="curve" smooth="yes"/>
      <point x="149" y="108" type="line" smooth="yes"/>
      <point x="149" y="31"/>
      <point x="143" y="20"/>
      <point x="93" y="20" type="curve" smooth="yes"/>
      <point x="50" y="20" type="line"/>
    </contour>
    <contour>
      <point x="305" y="25" type="curve" smooth="yes"/>
      <point x="177" y="25" type="line"/>
      <point x="177" y="689" type="line"/>
      <point x="306" y="689" type="line" smooth="yes"/>
      <point x="503" y="689"/>
      <point x="588" y="552"/>
      <point x="588" y="342" type="curve" smooth="yes"/>
      <point x="588" y="132"/>
      <point x="505" y="25"/>
    </contour>
  </outline>
</glyph>
<glyph name="E.display" format="2">
  <advance width="518"/>
  <unicode hex="0045"/>
  <anchor x="278" y="0" name="bottom"/>
  <anchor x="287" y="714" name="top"/>
  <anchor x="499" y="714" name="topright"/>
  <outline>
    <contour>
      <point x="460" y="0" type="line"/>
      <point x="460" y="25" type="line"/>
      <point x="124" y="25" type="line"/>
      <point x="124" y="364" type="line"/>
      <point x="441" y="364" type="line"/>
      <point x="441" y="389" type="line"/>
      <point x="124" y="389" type="line"/>
      <point x="124" y="689" type="line"/>
      <point x="460" y="689" type="line"/>
      <point x="460" y="714" type="line"/>
      <point x="97" y="714" type="line"/>
      <point x="97" y="0" type="line"/>
    </contour>
  </outline>
</glyph>
<glyph name="E.mono" format="2">
  <advance width="600"/>
  <unicode hex="0045"/>
  <anchor x="310" y="0" name="bottom"/>
  <anchor x="457" y="10" name="ogonek"/>
  <anchor x="310" y="714" name="top"/>
  <anchor x="20" y="714" name="topleft"/>
  <anchor x="580" y="714" name="topright"/>
  <outline>
    <contour>
      <point x="115" y="0" type="line"/>
      <point x="510" y="0" type="line"/>
      <point x="510" y="25" type="line"/>
      <point x="141" y="25" type="line"/>
      <point x="141" y="364" type="line"/>
      <point x="490" y="364" type="line"/>
      <point x="490" y="389" type="line"/>
      <point x="141" y="389" type="line"/>
      <point x="141" y="689" type="line"/>
      <point x="510" y="689" type="line"/>
      <point x="510" y="714" type="line"/>
      <point x="115" y="714" type="line"/>
    </contour>
  </outline>
</glyph>
<glyph name="E.serif" format="2">
  <advance width="585"/>
  <unicode hex="0045"/>
  <anchor x="313" y="0" name="bottom"/>
  <anchor x="293" y="714" name="top"/>
  <anchor x="565" y="714" name="topright"/>
  <outline>
    <contour>
      <point x="50" y="0" type="line"/>
      <point x="524" y="0" type="line"/>
      <point x="531" y="163" type="line"/>
      <point x="511" y="163" type="line"/>
      <point x="507" y="94" type="line" smooth="yes"/>
      <point x="504" y="39"/>
      <point x="498" y="25"/>
      <point x="446" y="25" type="curve" smooth="yes"/>
      <point x="177" y="25" type="line"/>
      <point x="177" y="362" type="line"/>
      <point x="421" y="362" type="line"/>
      <point x="421" y="387" type="line"/>
      <point x="177" y="387" type="line"/>
      <point x="177" y="689" type="line"/>
      <point x="412" y="689" type="line" smooth="yes"/>
      <point x="464" y="689"/>
      <point x="470" y="675"/>
      <point x="473" y="620" type="curve" smooth="yes"/>
      <point x="477" y="551" type="line"/>
      <point x="497" y="551" type="line"/>
      <point x="490" y="714" type="line"/>
      <point x="50" y="714" type="line"/>
      <point x="50" y="694" type="line"/>
      <point x="93" y="694" type="line" smooth="yes"/>
      <point x="143" y="694"/>
      <point x="149" y="683"/>
      <point x="149" y="606" type="curve" smooth="yes"/>
      <point x="149" y="108" type="line" smooth="yes"/>
      <point x="149" y="31"/>
      <point x="143" y="20"/>
      <point x="93" y="20" type="curve" smooth="yes"/>
      <point x="50" y="20" type="line"/>
    </contour>
  </outline>
</glyph>
<glyph name="F.mono" format="2">
  <advance width="600"/>
  <unicode hex="0046"/>
  <anchor x="313" y="0" name="bottom"/>
  <anchor x="322" y="714" name="top"/>
  <anchor x="580" y="714" name="topright"/>
  <outline>
    <contour>
      <point x="115" y="0" type="line"/>
      <point x="141" y="0" type="line"/>
      <point x="141" y="329" type="line"/>
      <point x="491" y="329" type="line"/>
      <point x="491" y="354" type="line"/>
      <point x="141" y="354" type="line"/>
      <point x="141" y="689" type="line"/>
      <point x="510" y="689" type="line"/>
      <point x="510" y="714" type="line"/>
      <point x="115" y="714" type="line"/>
    </contour>
  </outline>
</glyph>
<glyph name="F.serif" format="2">
  <advance width="550"/>
  <unicode hex="0046"/>
  <anchor x="163" y="0" name="bottom"/>
  <anchor x="275" y="714" name="top"/>
  <anchor x="530" y="714" name="topright"/>
  <outline>
    <contour>
      <point x="50" y="0" type="line"/>
      <point x="303" y="0" type="line"/>
      <point x="303" y="20" type="line"/>
      <point x="233" y="20" type="line" smooth="yes"/>
      <point x="183" y="20"/>
      <point x="177" y="31"/>
      <point x="177" y="108" type="curve" smooth="yes"/>
      <point x="177" y="338" type="line"/>
      <point x="423" y="338" type="line"/>
      <point x="423" y="363" type="line"/>
      <point x="177" y="363" type="line"/>
      <point x="177" y="689" type="line"/>
      <point x="414" y="689" type="line" smooth="yes"/>
      <point x="466" y="689"/>
      <point x="472" y="675"/>
      <point x="474" y="620" type="curve" smooth="yes"/>
      <point x="477" y="551" type="line"/>
      <point x="497" y="551" type="line"/>
      <point x="492" y="714" type="line"/>
      <point x="50" y="714" type="line"/>
      <point x="50" y="694" type="line"/>
      <point x="93" y="694" type="line" smooth="yes"/>
      <point x="143" y="694"/>
      <point x="149" y="683"/>
      <point x="149" y="606" type="curve" smooth="yes"/>
      <point x="149" y="108" type="line" smooth="yes"/>
      <point x="149" y="31"/>
      <point x="143" y="20"/>
      <point x="93" y="20" type="curve" smooth="yes"/>
      <point x="50" y="20" type="line"/>
    </contour>
  </outline>
</glyph>
<glyph name="G.mono" format="2">
  <advance width="600"/>
  <unicode hex="0047"/>
  <anchor x="330" y="0" name="bottom"/>
  <anchor x="326" y="714" name="top"/>
  <anchor x="580" y="714" name="topright"/>
  <outline>
    <contour>
      <point x="324" y="-10" type="curve" smooth="yes"/>
      <point x="383" y="-10"/>
      <point x="450" y="5"/>
      <point x="505" y="36" type="curve"/>
      <point x="505" y="350" type="line"/>
      <point x="317" y="350" type="line"/>
      <point x="317" y="325" type="line"/>
      <point x="479" y="325" type="line"/>
      <point x="479" y="52" type="line"/>
      <point x="436" y="30"/>
      <point x="383" y="15"/>
      <point x="326" y="15" type="curve" smooth="yes"/>
      <point x="175" y="15"/>
      <point x="82" y="118"/>
      <point x="82" y="343" type="curve" smooth="yes"/>
      <point x="82" y="566"/>
      <point x="174" y="701"/>
      <point x="336" y="701" type="curve" smooth="yes"/>
      <point x="374" y="701"/>
      <point x="430" y="694"/>
      <point x="485" y="662" type="curve"/>
      <point x="497" y="685" type="line"/>
      <point x="446" y="715"/>
      <point x="386" y="726"/>
      <point x="337" y="726" type="curve" smooth="yes"/>
      <point x="157" y="726"/>
      <point x="55" y="576"/>
      <point x="55" y="344" type="curve" smooth="yes"/>
      <point x="55" y="124"/>
      <point x="147" y="-10"/>
    </contour>
  </outline>
</glyph>
<glyph name="G.serif" format="2">
  <advance width="644"/>
  <unicode hex="0047"/>
  <anchor x="372" y="0" name="bottom"/>
  <anchor x="382" y="714" name="top"/>
  <anchor x="624" y="714" name="topright"/>
  <outline>
    <contour>
      <point x="373" y="-10" type="curve" smooth="yes"/>
      <point x="453" y="-10"/>
      <point x="509" y="1"/>
      <point x="562" y="26" type="curve"/>
      <point x="562" y="214" type="line" smooth="yes"/>
      <point x="562" y="291"/>
      <point x="568" y="302"/>
      <point x="618" y="302" type="curve" smooth="yes"/>
      <point x="637" y="302" type="line"/>
      <point x="637" y="322" type="line"/>
      <point x="445" y="322" type="line"/>
      <point x="445" y="302" type="line"/>
      <point x="478" y="302" type="line" smooth="yes"/>
      <point x="528" y="302"/>
      <point x="534" y="291"/>
      <point x="534" y="214" type="curve" smooth="yes"/>
      <point x="534" y="41" type="line"/>
      <point x="499" y="24"/>
      <point x="439" y="15"/>
      <point x="383" y="15" type="curve" smooth="yes"/>
      <point x="175" y="15"/>
      <point x="87" y="150"/>
      <point x="87" y="358" type="curve" smooth="yes"/>
      <point x="87" y="573"/>
      <point x="199" y="699"/>
      <point x="375" y="699" type="curve" smooth="yes"/>
      <point x="507" y="699"/>
      <point x="543" y="654"/>
      <point x="543" y="566" type="curve"/>
      <point x="556" y="566"/>
      <point x="564" y="579"/>
      <point x="564" y="608" type="curve" smooth="yes"/>
      <point x="564" y="667"/>
      <point x="518" y="724"/>
      <point x="379" y="724" type="curve" smooth="yes"/>
      <point x="183" y="724"/>
      <point x="59" y="588"/>
      <point x="59" y="358" type="curve" smooth="yes"/>
      <point x="59" y="137"/>
      <point x="161" y="-10"/>
    </contour>
  </outline>
</glyph>
<glyph name="H.serif" format="2">
  <advance width="761"/>
  <unicode hex="0048"/>
  <anchor x="381" y="0" name="bottom"/>
  <anchor x="381" y="374" name="center"/>
  <anchor x="381" y="714" name="top"/>
  <anchor x="741" y="714" name="topright"/>
  <outline>
    <contour>
      <point x="50" y="0" type="line"/>
      <point x="278" y="0" type="line"/>
      <point x="278" y="20" type="line"/>
      <point x="233" y="20" type="line" smooth="yes"/>
      <point x="183" y="20"/>
      <point x="177" y="31"/>
      <point x="177" y="108" type="curve" smooth="yes"/>
      <point x="177" y="361" type="line"/>
      <point x="584" y="361" type="line"/>
      <point x="584" y="108" type="line" smooth="yes"/>
      <point x="584" y="31"/>
      <point x="578" y="20"/>
      <point x="528" y="20" type="curve" smooth="yes"/>
      <point x="483" y="20" type="line"/>
      <point x="483" y="0" type="line"/>
      <point x="711" y="0" type="line"/>
      <point x="711" y="20" type="line"/>
      <point x="668" y="20" type="line" smooth="yes"/>
      <point x="618" y="20"/>
      <point x="612" y="31"/>
      <point x="612" y="108" type="curve" smooth="yes"/>
      <point x="612" y="606" type="line" smooth="yes"/>
      <point x="612" y="683"/>
      <point x="618" y="694"/>
      <point x="668" y="694" type="curve" smooth="yes"/>
      <point x="711" y="694" type="line"/>
      <point x="711" y="714" type="line"/>
      <point x="483" y="714" type="line"/>
      <point x="483" y="694" type="line"/>
      <point x="528" y="694" type="line" smooth="yes"/>
      <point x="578" y="694"/>
      <point x="584" y="683"/>
      <point x="584" y="606" type="curve" smooth="yes"/>
      <point x="584" y="386" type="line"/>
      <point x="177" y="386" type="line"/>
      <point x="177" y="606" type="line" smooth="yes"/>
      <point x="177" y="683"/>
      <point x="183" y="694"/>
      <point x="233" y="694" type="curve" smooth="yes"/>
      <point x="278" y="694" type="line"/>
      <point x="278" y="714" type="line"/>
      <point x="50" y="714" type="line"/>
      <point x="50" y="694" type="line"/>
      <point x="93" y="694" type="line" smooth="yes"/>
      <point x="143" y="694"/>
      <point x="149" y="683"/>
      <point x="149" y="606" type="curve" smooth="yes"/>
      <point x="149" y="108" type="line" smooth="yes"/>
      <point x="149" y="31"/>
      <point x="143" y="20"/>
      <point x="93" y="20" type="curve" smooth="yes"/>
      <point x="50" y="20" type="line"/>
    </contour>
  </outline>
</glyph>
<glyph name="I.mono" format="2">
  <advance width="600"/>
  <unicode hex="0049"/>
  <anchor x="300" y="0" name="bottom"/>
  <anchor x="337" y="10" name="ogonek"/>
  <anchor x="300" y="714" name="top"/>
  <anchor x="20" y="714" name="topleft"/>
  <anchor x="580" y="714" name="topright"/>
  <outline>
    <contour>
      <point x="160" y="0" type="line"/>
      <point x="440" y="0" type="line"/>
      <point x="440" y="20" type="line"/>
      <point x="313" y="23" type="line"/>
      <point x="313" y="690" type="line"/>
      <point x="440" y="694" type="line"/>
      <point x="440" y="714" type="line"/>
      <point x="160" y="714" type="line"/>
      <point x="160" y="694" type="line"/>
      <point x="287" y="690" type="line"/>
      <point x="287" y="23" type="line"/>
      <point x="160" y="20" type="line"/>
    </contour>
  </outline>
</glyph>
<glyph name="I.serif" format="2">
  <advance width="325"/>
  <unicode hex="0049"/>
  <anchor x="163" y="0" name="bottom"/>
  <anchor x="163" y="714" name="top"/>
  <anchor x="305" y="714" name="topright"/>
  <outline>
    <contour>
      <point x="50" y="0" type="line"/>
      <point x="273" y="0" type="line"/>
      <point x="273" y="20" type="line"/>
      <point x="233" y="20" type="line" smooth="yes"/>
      <point x="183" y="20"/>
      <point x="177" y="31"/>
      <point x="177" y="108" type="curve" smooth="yes"/>
      <point x="177" y="606" type="line" smooth="yes"/>
      <point x="177" y="683"/>
      <point x="183" y="694"/>
      <point x="233" y="694" type="curve" smooth="yes"/>
      <point x="273" y="694" type="line"/>
      <point x="273" y="714" type="line"/>
      <point x="50" y="714" type="line"/>
      <point x="50" y="694" type="line"/>
      <point x="93" y="694" type="line" smooth="yes"/>
      <point x="143" y="694"/>
      <point x="149" y="683"/>
      <point x="149" y="606" type="curve" smooth="yes"/>
      <point x="149" y="108" type="line" smooth="yes"/>
      <point x="149" y="31"/>
      <point x="143" y="20"/>
      <point x="93" y="20" type="curve" smooth="yes"/>
      <point x="50" y="20" type="line"/>
    </contour>
  </outline>
</glyph>
<glyph name="J.mono" format="2">
  <advance width="600"/>
  <unicode hex="004A"/>
  <anchor x="300" y="0" name="bottom"/>
  <anchor x="408" y="714" name="top"/>
  <anchor x="580" y="714" name="topright"/>
  <outline>
    <contour>
      <point x="255" y="-15" type="curve" smooth="yes"/>
      <point x="378" y="-15"/>
      <point x="420" y="65"/>
      <point x="420" y="196" type="curve" smooth="yes"/>
      <point x="420" y="714" type="line"/>
      <point x="394" y="714" type="line"/>
      <point x="394" y="204" type="line" smooth="yes"/>
      <point x="394" y="76"/>
      <point x="358" y="9"/>
      <point x="255" y="9" type="curve" smooth="yes"/>
      <point x="196" y="9"/>
      <point x="157" y="31"/>
      <point x="120" y="55" type="curve"/>
      <point x="120" y="27" type="line"/>
      <point x="160" y="2"/>
      <point x="198" y="-15"/>
    </contour>
  </outline>
</glyph>
<glyph name="J.serif" format="2">
  <advance width="343"/>
  <unicode hex="004A"/>
  <anchor x="92" y="-240" name="bottom"/>
  <anchor x="182" y="714" name="top"/>
  <anchor x="323" y="714" name="topright"/>
  <outline>
    <contour>
      <point x="22" y="-240" type="line"/>
      <point x="25" y="-240" type="line" smooth="yes"/>
      <point x="157" y="-240"/>
      <point x="197" y="-174"/>
      <point x="197" y="-16" type="curve" smooth="yes"/>
      <point x="197" y="606" type="line" smooth="yes"/>
      <point x="197" y="683"/>
      <point x="203" y="694"/>
      <point x="253" y="694" type="curve" smooth="yes"/>
      <point x="295" y="694" type="line"/>
      <point x="295" y="714" type="line"/>
      <point x="72" y="714" type="line"/>
      <point x="72" y="694" type="line"/>
      <point x="113" y="694" type="line" smooth="yes"/>
      <point x="163" y="694"/>
      <point x="169" y="683"/>
      <point x="169" y="606" type="curve" smooth="yes"/>
      <point x="169" y="-17" type="line" smooth="yes"/>
      <point x="169" y="-153"/>
      <point x="140" y="-215"/>
      <point x="30" y="-215" type="curve" smooth="yes"/>
      <point x="22" y="-215" type="line"/>
    </contour>
  </outline>
</glyph>
<glyph name="K.mono" format="2">
  <advance width="600"/>
  <unicode hex="004B"/>
  <anchor x="320" y="0" name="bottom"/>
  <anchor x="300" y="714" name="top"/>
  <anchor x="580" y="714" name="topright"/>
  <outline>
    <contour>
      <point x="95" y="0" type="line"/>
      <point x="121" y="0" type="line"/>
      <point x="121" y="293" type="line"/>
      <point x="229" y="400" type="line"/>
      <point x="510" y="0" type="line"/>
      <point x="540" y="0" type="line"/>
      <point x="246" y="417" type="line"/>
      <point x="534" y="714" type="line"/>
      <point x="497" y="714" type="line"/>
      <point x="172" y="376" type="line" smooth="yes"/>
      <point x="152" y="356"/>
      <point x="139" y="343"/>
      <point x="121" y="322" type="curve"/>
      <point x="121" y="714" type="line"/>
      <point x="95" y="714" type="line"/>
    </contour>
  </outline>
</glyph>
<glyph name="K.serif" format="2">
  <advance width="658"/>
  <unicode hex="004B"/>
  <anchor x="349" y="0" name="bottom"/>
  <anchor x="349" y="714" name="top"/>
  <anchor x="638" y="714" name="topright"/>
  <outline>
    <contour>
      <point x="50" y="0" type="line"/>
      <point x="278" y="0" type="line"/>
      <point x="278" y="20" type="line"/>
      <point x="233" y="20" type="line" smooth="yes"/>
      <point x="183" y="20"/>
      <point x="177" y="31"/>
      <point x="177" y="108" type="curve" smooth="yes"/>
      <point x="177" y="220" type="line"/>
      <point x="312" y="382" type="line"/>
      <point x="545" y="104" type="line" smooth="yes"/>
      <point x="618" y="16"/>
      <point x="637" y="0"/>
      <point x="680" y="0" type="curve" smooth="yes"/>
      <point x="686" y="0" type="line"/>
      <point x="686" y="25" type="line"/>
      <point x="684" y="25" type="line" smooth="yes"/>
      <point x="658" y="25"/>
      <point x="636" y="39"/>
      <point x="580" y="106" type="curve" smooth="yes"/>
      <point x="331" y="403" type="line"/>
      <point x="500" y="603" type="line" smooth="yes"/>
      <point x="553" y="666"/>
      <point x="568" y="693"/>
      <point x="620" y="694" type="curve"/>
      <point x="620" y="714" type="line"/>
      <point x="463" y="714" type="line"/>
      <point x="463" y="694" type="line"/>
      <point x="500" y="694"/>
      <point x="518" y="694"/>
      <point x="518" y="680" type="curve" smooth="yes"/>
      <point x="518" y="665"/>
      <point x="507" y="653"/>
      <point x="457" y="593" type="curve" smooth="yes"/>
      <point x="177" y="259" type="line"/>
      <point x="177" y="606" type="line" smooth="yes"/>
      <point x="177" y="683"/>
      <point x="183" y="694"/>
      <point x="233" y="694" type="curve" smooth="yes"/>
      <point x="276" y="694" type="line"/>
      <point x="276" y="714" type="line"/>
      <point x="50" y="714" type="line"/>
      <point x="50" y="694" type="line"/>
      <point x="93" y="694" type="line" smooth="yes"/>
      <point x="143" y="694"/>
      <point x="149" y="683"/>
      <point x="149" y="606" type="curve" smooth="yes"/>
      <point x="149" y="108" type="line" smooth="yes"/>
      <point x="149" y="31"/>
      <point x="143" y="20"/>
      <point x="93" y="20" type="curve" smooth="yes"/>
      <point x="50" y="20" type="line"/>
    </contour>
  </outline>
</glyph>
<glyph name="L.serif" format="2">
  <advance width="583"/>
  <unicode hex="004C"/>
  <anchor x="312" y="0" name="bottom"/>
  <anchor x="163" y="357" name="center"/>
  <anchor x="162" y="714" name="top"/>
  <anchor x="563" y="714" name="topright"/>
  <outline>
    <contour>
      <point x="50" y="0" type="line"/>
      <point x="524" y="0" type="line"/>
      <point x="531" y="205" type="line"/>
      <point x="511" y="205" type="line"/>
      <point x="506" y="94" type="line" smooth="yes"/>
      <point x="504" y="39"/>
      <point x="498" y="25"/>
      <point x="446" y="25" type="curve" smooth="yes"/>
      <point x="177" y="25" type="line"/>
      <point x="177" y="606" type="line" smooth="yes"/>
      <point x="177" y="683"/>
      <point x="183" y="694"/>
      <point x="233" y="694" type="curve" smooth="yes"/>
      <point x="273" y="694" type="line"/>
      <point x="273" y="714" type="line"/>
      <point x="50" y="714" type="line"/>
      <point x="50" y="694" type="line"/>
      <point x="93" y="694" type="line" smooth="yes"/>
      <point x="143" y="694"/>
      <point x="149" y="683"/>
      <point x="149" y="606" type="curve" smooth="yes"/>
      <point x="149" y="108" type="line" smooth="yes"/>
      <point x="149" y="31"/>
      <point x="143" y="20"/>
      <point x="93" y="20" type="curve" smooth="yes"/>
      <point x="50" y="20" type="line"/>
    </contour>
  </outline>
</glyph>
<glyph name="M.mono" format="2">
  <advance width="600"/>
  <unicode hex="004D"/>
  <anchor x="300" y="0" name="bottom"/>
  <anchor x="304" y="714" name="top"/>
  <anchor x="600" y="714" name="topright"/>
  <outline>
    <contour>
      <point x="60" y="0" type="line"/>
      <point x="86" y="0" type="line"/>
      <point x="86" y="586" type="line" smooth="yes"/>
      <point x="86" y="615"/>
      <point x="86" y="630"/>
      <point x="84" y="675" type="curve"/>
      <point x="86" y="675" type="line"/>
      <point x="286" y="203" type="line"/>
      <point x="314" y="203" type="line"/>
      <point x="512" y="674" type="line"/>
      <point x="514" y="674" type="line"/>
      <point x="514" y="643"/>
      <point x="514" y="613"/>
      <point x="514" y="582" type="curve" smooth="yes"/>
      <point x="514" y="0" type="line"/>
      <point x="540" y="0" type="line"/>
      <point x="540" y="714" type="line"/>
      <point x="502" y="714" type="line"/>
      <point x="301" y="235" type="line"/>
      <point x="298" y="235" type="line"/>
      <point x="96" y="714" type="line"/>
      <point x="60" y="714" type="line"/>
    </contour>
  </outline>
</glyph>
<glyph name="M.serif" format="2">
  <advance width="908"/>
  <unicode hex="004D"/>
  <anchor x="452" y="0" name="bottom"/>
  <anchor x="454" y="714" name="top"/>
  <anchor x="888" y="714" name="topright"/>
  <outline>
    <contour>
      <point x="50" y="0" type="line"/>
      <point x="263" y="0" type="line"/>
      <point x="263" y="20" type="line"/>
      <point x="230" y="20" type="line" smooth="yes"/>
      <point x="180" y="20"/>
      <point x="174" y="31"/>
      <point x="174" y="108" type="curve" smooth="yes"/>
      <point x="174" y="663" type="line"/>
      <point x="435" y="0" type="line"/>
      <point x="471" y="0" type="line"/>
      <point x="733" y="669" type="line"/>
      <point x="733" y="108" type="line" smooth="yes"/>
      <point x="733" y="31"/>
      <point x="727" y="20"/>
      <point x="677" y="20" type="curve" smooth="yes"/>
      <point x="622" y="20" type="line"/>
      <point x="622" y="0" type="line"/>
      <point x="858" y="0" type="line"/>
      <point x="858" y="20" type="line"/>
      <point x="817" y="20" type="line" smooth="yes"/>
      <point x="767" y="20"/>
      <point x="761" y="31"/>
      <point x="761" y="108" type="curve" smooth="yes"/>
      <point x="761" y="606" type="line" smooth="yes"/>
      <point x="761" y="683"/>
      <point x="767" y="694"/>
      <point x="817" y="694" type="curve" smooth="yes"/>
      <point x="858" y="694" type="line"/>
      <point x="858" y="714" type="line"/>
      <point x="721" y="714" type="line"/>
      <point x="453" y="31" type="line"/>
      <point x="184" y="714" type="line"/>
      <point x="50" y="714" type="line"/>
      <point x="50" y="694" type="line"/>
      <point x="93" y="694" type="line" smooth="yes"/>
      <point x="143" y="694"/>
      <point x="149" y="683"/>
      <point x="149" y="606" type="curve" smooth="yes"/>
      <point x="149" y="108" type="line" smooth="yes"/>
      <point x="149" y="31"/>
      <point x="143" y="20"/>
      <point x="93" y="20" type="curve" smooth="yes"/>
      <point x="50" y="20" type="line"/>
    </contour>
  </outline>
</glyph>
<glyph name="N.mono" format="2">
  <advance width="600"/>
  <unicode hex="004E"/>
  <anchor x="300" y="0" name="bottom"/>
  <anchor x="305" y="714" name="top"/>
  <anchor x="600" y="714" name="topright"/>
  <outline>
    <contour>
      <point x="95" y="0" type="line"/>
      <point x="121" y="0" type="line"/>
      <point x="121" y="530" type="line" smooth="yes"/>
      <point x="121" y="585"/>
      <point x="121" y="622"/>
      <point x="120" y="665" type="curve"/>
      <point x="122" y="665" type="line"/>
      <point x="478" y="0" type="line"/>
      <point x="505" y="0" type="line"/>
      <point x="505" y="714" type="line"/>
      <point x="479" y="714" type="line"/>
      <point x="479" y="191" type="line" smooth="yes"/>
      <point x="479" y="154"/>
      <point x="479" y="100"/>
      <point x="480" y="53" type="curve"/>
      <point x="478" y="53" type="line"/>
      <point x="122" y="714" type="line"/>
      <point x="95" y="714" type="line"/>
    </contour>
  </outline>
</glyph>
<glyph name="N.serif" format="2">
  <advance width="731"/>
  <unicode hex="004E"/>
  <anchor x="376" y="0" name="bottom"/>
  <anchor x="366" y="714" name="top"/>
  <anchor x="711" y="714" name="topright"/>
  <outline>
    <contour>
      <point x="50" y="0" type="line"/>
      <point x="271" y="0" type="line"/>
      <point x="271" y="20" type="line"/>
      <point x="230" y="20" type="line" smooth="yes"/>
      <point x="180" y="20"/>
      <point x="174" y="31"/>
      <point x="174" y="108" type="curve" smooth="yes"/>
      <point x="174" y="653" type="line"/>
      <point x="567" y="0" type="line"/>
      <point x="592" y="0" type="line"/>
      <point x="592" y="606" type="line" smooth="yes"/>
      <point x="592" y="683"/>
      <point x="598" y="694"/>
      <point x="648" y="694" type="curve" smooth="yes"/>
      <point x="689" y="694" type="line"/>
      <point x="689" y="714" type="line"/>
      <point x="470" y="714" type="line"/>
      <point x="470" y="694" type="line"/>
      <point x="511" y="694" type="line" smooth="yes"/>
      <point x="561" y="694"/>
      <point x="567" y="683"/>
      <point x="567" y="606" type="curve" smooth="yes"/>
      <point x="567" y="55" type="line"/>
      <point x="170" y="714" type="line"/>
      <point x="50" y="714" type="line"/>
      <point x="50" y="694" type="line"/>
      <point x="93" y="694" type="line" smooth="yes"/>
      <point x="143" y="694"/>
      <point x="149" y="683"/>
      <point x="149" y="606" type="curve" smooth="yes"/>
      <point x="149" y="108" type="line" smooth="yes"/>
      <point x="149" y="31"/>
      <point x="143" y="20"/>
      <point x="93" y="20" type="curve" smooth="yes"/>
      <point x="50" y="20" type="line"/>
    </contour>
  </outline>
</glyph>
<glyph name="O.mono" format="2">
  <advance width="600"/>
  <unicode hex="004F"/>
  <anchor x="300" y="0" name="bottom"/>
  <anchor x="300" y="357" name="center"/>
  <anchor x="302" y="10" name="ogonek"/>
  <anchor x="300" y="714" name="top"/>
  <anchor x="20" y="714" name="topleft"/>
  <anchor x="600" y="714" name="topright"/>
  <outline>
    <contour>
      <point x="301" y="-10" type="curve" smooth="yes"/>
      <point x="474" y="-10"/>
      <point x="545" y="154"/>
      <point x="545" y="360" type="curve" smooth="yes"/>
      <point x="545" y="579"/>
      <point x="465" y="724"/>
      <point x="303" y="724" type="curve" smooth="yes"/>
      <point x="145" y="724"/>
      <point x="55" y="587"/>
      <point x="55" y="360" type="curve" smooth="yes"/>
      <point x="55" y="158"/>
      <point x="126" y="-10"/>
    </contour>
    <contour>
      <point x="302" y="15" type="curve" smooth="yes"/>
      <point x="155" y="15"/>
      <point x="81" y="151"/>
      <point x="81" y="358" type="curve" smooth="yes"/>
      <point x="81" y="564"/>
      <point x="157" y="699"/>
      <point x="302" y="699" type="curve" smooth="yes"/>
      <point x="442" y="699"/>
      <point x="518" y="576"/>
      <point x="518" y="358" type="curve" smooth="yes"/>
      <point x="518" y="146"/>
      <point x="446" y="15"/>
    </contour>
  </outline>
</glyph>
<glyph name="P.mono" format="2">
  <advance width="600"/>
  <unicode hex="0050"/>
  <anchor x="300" y="0" name="bottom"/>
  <anchor x="300" y="714" name="top"/>
  <anchor x="600" y="714" name="topright"/>
  <outline>
    <contour>
      <point x="115" y="0" type="line"/>
      <point x="141" y="0" type="line"/>
      <point x="141" y="305" type="line"/>
      <point x="280" y="305" type="line" smooth="yes"/>
      <point x="445" y="305"/>
      <point x="540" y="364"/>
      <point x="540" y="516" type="curve" smooth="yes"/>
      <point x="540" y="658"/>
      <point x="456" y="714"/>
      <point x="294" y="714" type="curve" smooth="yes"/>
      <point x="115" y="714" type="line"/>
    </contour>
    <contour>
      <point x="278" y="330" type="curve" smooth="yes"/>
      <point x="141" y="330" type="line"/>
      <point x="141" y="689" type="line"/>
      <point x="290" y="689" type="line" smooth="yes"/>
      <point x="443" y="689"/>
      <point x="513" y="639"/>
      <point x="513" y="516" type="curve" smooth="yes"/>
      <point x="513" y="372"/>
      <point x="417" y="330"/>
    </contour>
  </outline>
</glyph>
<glyph name="P.serif" format="2">
  <advance width="562"/>
  <unicode hex="0050"/>
  <anchor x="163" y="0" name="bottom"/>
  <anchor x="281" y="714" name="top"/>
  <anchor x="542" y="714" name="topright"/>
  <outline>
    <contour>
      <point x="50" y="0" type="line"/>
      <point x="293" y="0" type="line"/>
      <point x="293" y="20" type="line"/>
      <point x="233" y="20" type="line" smooth="yes"/>
      <point x="183" y="20"/>
      <point x="177" y="31"/>
      <point x="177" y="108" type="curve" smooth="yes"/>
      <point x="177" y="284" type="line"/>
      <point x="277" y="284" type="line" smooth="yes"/>
      <point x="452" y="284"/>
      <point x="511" y="383"/>
      <point x="511" y="509" type="curve" smooth="yes"/>
      <point x="511" y="639"/>
      <point x="449" y="714"/>
      <point x="299" y="714" type="curve" smooth="yes"/>
      <point x="50" y="714" type="line"/>
      <point x="50" y="694" type="line"/>
      <point x="93" y="694" type="line" smooth="yes"/>
      <point x="143" y="694"/>
      <point x="149" y="683"/>
      <point x="149" y="606" type="curve" smooth="yes"/>
      <point x="149" y="108" type="line" smooth="yes"/>
      <point x="149" y="31"/>
      <point x="143" y="20"/>
      <point x="93" y="20" type="curve" smooth="yes"/>
      <point x="50" y="20" type="line"/>
    </contour>
    <contour>
      <point x="276" y="309" type="curve" smooth="yes"/>
      <point x="177" y="309" type="line"/>
      <point x="177" y="689" type="line"/>
      <point x="299" y="689" type="line" smooth="yes"/>
      <point x="430" y="689"/>
      <point x="483" y="624"/>
      <point x="483" y="509" type="curve" smooth="yes"/>
      <point x="483" y="401"/>
      <point x="438" y="309"/>
    </contour>
  </outline>
</glyph>
<glyph name="Q.mono" format="2">
  <advance width="600"/>
  <unicode hex="0051"/>
  <anchor x="300" y="-210" name="bottom"/>
  <anchor x="300" y="714" name="top"/>
  <anchor x="600" y="714" name="topright"/>
  <outline>
    <contour>
      <point x="467" y="-170" type="line"/>
      <point x="497" y="-170" type="line"/>
      <point x="387" y="16" type="line"/>
      <point x="361" y="12" type="line"/>
    </contour>
    <component base="O"/>
  </outline>
</glyph>
<glyph name="Q.serif" format="2">
  <advance width="686"/>
  <unicode hex="0051"/>
  <anchor x="343" y="-218" name="bottom"/>
  <anchor x="343" y="714" name="top"/>
  <anchor x="666" y="714" name="topright"/>
  <outline>
    <contour>
      <point x="537" y="-218" type="curve" smooth="yes"/>
      <point x="544" y="-218" type="line"/>
      <point x="544" y="-193" type="line"/>
      <point x="528" y="-193" type="line" smooth="yes"/>
      <point x="427" y="-193"/>
      <point x="375" y="-133"/>
      <point x="364" y="-10" type="curve"/>
      <point x="540" y="0"/>
      <point x="627" y="129"/>
      <point x="627" y="358" type="curve" smooth="yes"/>
      <point x="627" y="591"/>
      <point x="546" y="725"/>
      <point x="344" y="725" type="curve" smooth="yes"/>
      <point x="148" y="725"/>
      <point x="58" y="581"/>
      <point x="58" y="359" type="curve" smooth="yes"/>
      <point x="58" y="121"/>
      <point x="153" y="-5"/>
      <point x="336" y="-10" type="curve"/>
      <point x="349" y="-183"/>
      <point x="449" y="-218"/>
    </contour>
    <contour>
      <point x="343" y="15" type="curve" smooth="yes"/>
      <point x="171" y="15"/>
      <point x="86" y="144"/>
      <point x="86" y="358" type="curve" smooth="yes"/>
      <point x="86" y="556"/>
      <point x="161" y="700"/>
      <point x="344" y="700" type="curve" smooth="yes"/>
      <point x="530" y="700"/>
      <point x="599" y="573"/>
      <point x="599" y="358" type="curve" smooth="yes"/>
      <point x="599" y="142"/>
      <point x="522" y="15"/>
    </contour>
  </outline>
</glyph>
<glyph name="R.mono" format="2">
  <advance width="600"/>
  <unicode hex="0052"/>
  <anchor x="340" y="0" name="bottom"/>
  <anchor x="300" y="714" name="top"/>
  <anchor x="580" y="714" name="topright"/>
  <outline>
    <contour>
      <point x="115" y="0" type="line"/>
      <point x="141" y="0" type="line"/>
      <point x="141" y="320" type="line"/>
      <point x="344" y="320" type="line"/>
      <point x="535" y="0" type="line"/>
      <point x="565" y="0" type="line"/>
      <point x="369" y="327" type="line"/>
      <point x="474" y="351"/>
      <point x="530" y="407"/>
      <point x="530" y="520" type="curve" smooth="yes"/>
      <point x="530" y="669"/>
      <point x="433" y="714"/>
      <point x="276" y="714" type="curve" smooth="yes"/>
      <point x="115" y="714" type="line"/>
    </contour>
    <contour>
      <point x="307" y="345" type="curve" smooth="yes"/>
      <point x="141" y="345" type="line"/>
      <point x="141" y="689" type="line"/>
      <point x="271" y="689" type="line" smooth="yes"/>
      <point x="416" y="689"/>
      <point x="503" y="648"/>
      <point x="503" y="522" type="curve" smooth="yes"/>
      <point x="503" y="397"/>
      <point x="417" y="345"/>
    </contour>
  </outline>
</glyph>
<glyph name="R.serif" format="2">
  <advance width="592"/>
  <unicode hex="0052"/>
  <anchor x="326" y="0" name="bottom"/>
  <anchor x="296" y="714" name="top"/>
  <anchor x="572" y="714" name="topright"/>
  <outline>
    <contour>
      <point x="50" y="0" type="line"/>
      <point x="273" y="0" type="line"/>
      <point x="273" y="20" type="line"/>
      <point x="233" y="20" type="line" smooth="yes"/>
      <point x="183" y="20"/>
      <point x="177" y="31"/>
      <point x="177" y="108" type="curve" smooth="yes"/>
      <point x="177" y="321" type="line"/>
      <point x="301" y="321" type="line"/>
      <point x="456" y="90" type="line" smooth="yes"/>
      <point x="503" y="21"/>
      <point x="518" y="0"/>
      <point x="596" y="0" type="curve" smooth="yes"/>
      <point x="600" y="0" type="line"/>
      <point x="600" y="28" type="line"/>
      <point x="589" y="28" type="line" smooth="yes"/>
      <point x="546" y="28"/>
      <point x="521" y="46"/>
      <point x="480" y="106" type="curve" smooth="yes"/>
      <point x="329" y="329" type="line"/>
      <point x="420" y="351"/>
      <point x="488" y="416"/>
      <point x="488" y="533" type="curve" smooth="yes"/>
      <point x="488" y="664"/>
      <point x="420" y="714"/>
      <point x="253" y="714" type="curve" smooth="yes"/>
      <point x="50" y="714" type="line"/>
      <point x="50" y="694" type="line"/>
      <point x="93" y="694" type="line" smooth="yes"/>
      <point x="143" y="694"/>
      <point x="149" y="683"/>
      <point x="149" y="606" type="curve" smooth="yes"/>
      <point x="149" y="108" type="line" smooth="yes"/>
      <point x="149" y="31"/>
      <point x="143" y="20"/>
      <point x="93" y="20" type="curve" smooth="yes"/>
      <point x="50" y="20" type="line"/>
    </contour>
    <contour>
      <point x="259" y="346" type="curve" smooth="yes"/>
      <point x="177" y="346" type="line"/>
      <point x="177" y="689" type="line"/>
      <point x="264" y="689" type="line" smooth="yes"/>
      <point x="417" y="689"/>
      <point x="460" y="631"/>
      <point x="460" y="532" type="curve" smooth="yes"/>
      <point x="460" y="415"/>
      <point x="382" y="346"/>
    </contour>
  </outline>
</glyph>
<glyph name="S.mono" format="2">
  <advance width="600"/>
  <unicode hex="0053"/>
  <anchor x="300" y="0" name="bottom"/>
  <anchor x="321" y="714" name="top"/>
  <anchor x="580" y="714" name="topright"/>
  <outline>
    <contour>
      <point x="278" y="-10" type="curve" smooth="yes"/>
      <point x="424" y="-10"/>
      <point x="525" y="52"/>
      <point x="525" y="181" type="curve" smooth="yes"/>
      <point x="525" y="302"/>
      <point x="435" y="334"/>
      <point x="311" y="375" type="curve" smooth="yes"/>
      <point x="205" y="410"/>
      <point x="125" y="438"/>
      <point x="125" y="542" type="curve" smooth="yes"/>
      <point x="125" y="657"/>
      <point x="223" y="699"/>
      <point x="328" y="699" type="curve" smooth="yes"/>
      <point x="374" y="699"/>
      <point x="432" y="691"/>
      <point x="494" y="664" type="curve"/>
      <point x="505" y="688" type="line"/>
      <point x="446" y="714"/>
      <point x="386" y="724"/>
      <point x="329" y="724" type="curve" smooth="yes"/>
      <point x="199" y="724"/>
      <point x="98" y="668"/>
      <point x="98" y="540" type="curve" smooth="yes"/>
      <point x="98" y="426"/>
      <point x="179" y="392"/>
      <point x="297" y="352" type="curve" smooth="yes"/>
      <point x="422" y="310"/>
      <point x="498" y="283"/>
      <point x="498" y="180" type="curve" smooth="yes"/>
      <point x="498" y="65"/>
      <point x="402" y="15"/>
      <point x="278" y="15" type="curve" smooth="yes"/>
      <point x="215" y="15"/>
      <point x="144" y="28"/>
      <point x="90" y="48" type="curve"/>
      <point x="90" y="20" type="line"/>
      <point x="133" y="7"/>
      <point x="202" y="-10"/>
    </contour>
  </outline>
</glyph>
<glyph name="T.mono" format="2">
  <advance width="600"/>
  <unicode hex="0054"/>
  <anchor x="299" y="0" name="bottom"/>
  <anchor x="300" y="357" name="center"/>
  <anchor x="300" y="714" name="top"/>
  <anchor x="580" y="714" name="topright"/>
  <outline>
    <contour>
      <point x="287" y="0" type="line"/>
      <point x="313" y="0" type="line"/>
      <point x="313" y="689" type="line"/>
      <point x="550" y="689" type="line"/>
      <point x="550" y="714" type="line"/>
      <point x="50" y="714" type="line"/>
      <point x="50" y="689" type="line"/>
      <point x="287" y="689" type="line"/>
    </contour>
  </outline>
</glyph>
<glyph name="T.serif" format="2">
  <advance width="563"/>
  <unicode hex="0054"/>
  <anchor x="282" y="0" name="bottom"/>
  <anchor x="282" y="357" name="center"/>
  <anchor x="282" y="714" name="top"/>
  <anchor x="543" y="714" name="topright"/>
  <outline>
    <contour>
      <point x="144" y="0" type="line"/>
      <point x="413" y="0" type="line"/>
      <point x="413" y="20" type="line"/>
      <point x="349" y="20" type="line" smooth="yes"/>
      <point x="299" y="20"/>
      <point x="293" y="31"/>
      <point x="293" y="108" type="curve" smooth="yes"/>
      <point x="293" y="689" type="line"/>
      <point x="445" y="689" type="line" smooth="yes"/>
      <point x="497" y="689"/>
      <point x="503" y="675"/>
      <point x="506" y="620" type="curve" smooth="yes"/>
      <point x="509" y="563" type="line"/>
      <point x="529" y="563" type="line"/>
      <point x="523" y="714" type="line"/>
      <point x="38" y="714" type="line"/>
      <point x="32" y="563" type="line"/>
      <point x="52" y="563" type="line"/>
      <point x="55" y="620" type="line" smooth="yes"/>
      <point x="58" y="675"/>
      <point x="64" y="689"/>
      <point x="116" y="689" type="curve" smooth="yes"/>
      <point x="265" y="689" type="line"/>
      <point x="265" y="108" type="line" smooth="yes"/>
      <point x="265" y="31"/>
      <point x="259" y="20"/>
      <point x="209" y="20" type="curve" smooth="yes"/>
      <point x="144" y="20" type="line"/>
    </contour>
  </outline>
</glyph>
<glyph name="U.mono" format="2">
  <advance width="600"/>
  <unicode hex="0055"/>
  <anchor x="300" y="0" name="bottom"/>
  <anchor x="540" y="10" name="ogonek"/>
  <anchor x="300" y="714" name="top"/>
  <anchor x="580" y="714" name="topright"/>
  <outline>
    <contour>
      <point x="296" y="-10" type="curve" smooth="yes"/>
      <point x="429" y="-10"/>
      <point x="505" y="74"/>
      <point x="505" y="252" type="curve" smooth="yes"/>
      <point x="505" y="714" type="line"/>
      <point x="479" y="714" type="line"/>
      <point x="479" y="258" type="line" smooth="yes"/>
      <point x="479" y="91"/>
      <point x="416" y="15"/>
      <point x="297" y="15" type="curve" smooth="yes"/>
      <point x="174" y="15"/>
      <point x="121" y="97"/>
      <point x="121" y="258" type="curve" smooth="yes"/>
      <point x="121" y="714" type="line"/>
      <point x="95" y="714" type="line"/>
      <point x="95" y="254" type="line" smooth="yes"/>
      <point x="95" y="82"/>
      <point x="157" y="-10"/>
    </contour>
  </outline>
</glyph>
<glyph name="U.serif" format="2">
  <advance width="679"/>
  <unicode hex="0055"/>
  <anchor x="340" y="0" name="bottom"/>
  <anchor x="348" y="714" name="top"/>
  <anchor x="659" y="714" name="topright"/>
  <outline>
    <contour>
      <point x="340" y="-10" type="curve" smooth="yes"/>
      <point x="495" y="-10"/>
      <point x="569" y="88"/>
      <point x="569" y="218" type="curve" smooth="yes"/>
      <point x="569" y="606" type="line" smooth="yes"/>
      <point x="569" y="683"/>
      <point x="575" y="694"/>
      <point x="625" y="694" type="curve" smooth="yes"/>
      <point x="664" y="694" type="line"/>
      <point x="664" y="714" type="line"/>
      <point x="444" y="714" type="line"/>
      <point x="444" y="694" type="line"/>
      <point x="485" y="694" type="line" smooth="yes"/>
      <point x="535" y="694"/>
      <point x="541" y="683"/>
      <point x="541" y="606" type="curve" smooth="yes"/>
      <point x="541" y="219" type="line" smooth="yes"/>
      <point x="541" y="106"/>
      <point x="479" y="15"/>
      <point x="338" y="15" type="curve" smooth="yes"/>
      <point x="214" y="15"/>
      <point x="138" y="76"/>
      <point x="138" y="210" type="curve" smooth="yes"/>
      <point x="138" y="606" type="line" smooth="yes"/>
      <point x="138" y="683"/>
      <point x="144" y="694"/>
      <point x="194" y="694" type="curve" smooth="yes"/>
      <point x="236" y="694" type="line"/>
      <point x="236" y="714" type="line"/>
      <point x="13" y="714" type="line"/>
      <point x="13" y="694" type="line"/>
      <point x="54" y="694" type="line" smooth="yes"/>
      <point x="104" y="694"/>
      <point x="110" y="683"/>
      <point x="110" y="606" type="curve" smooth="yes"/>
      <point x="110" y="214" type="line" smooth="yes"/>
      <point x="110" y="51"/>
      <point x="202" y="-10"/>
    </contour>
  </outline>
</glyph>
<glyph name="V.mono" format="2">
  <advance width="600"/>
  <unicode hex="0056"/>
  <anchor x="300" y="0" name="bottom"/>
  <anchor x="300" y="714" name="top"/>
  <anchor x="580" y="714" name="topright"/>
  <outline>
    <contour>
      <point x="287" y="0" type="line"/>
      <point x="314" y="0" type="line"/>
      <point x="560" y="714" type="line"/>
      <point x="531" y="714" type="line"/>
      <point x="336" y="143" type="line" smooth="yes"/>
      <point x="321" y="99"/>
      <point x="311" y="64"/>
      <point x="301" y="34" type="curve"/>
      <point x="300" y="34" type="line"/>
      <point x="290" y="64"/>
      <point x="280" y="98"/>
      <point x="265" y="143" type="curve" smooth="yes"/>
      <point x="68" y="714" type="line"/>
      <point x="40" y="714" type="line"/>
    </contour>
  </outline>
</glyph>
<glyph name="V.serif" format="2">
  <advance width="645"/>
  <unicode hex="0056"/>
  <anchor x="323" y="0" name="bottom"/>
  <anchor x="323" y="714" name="top"/>
  <anchor x="625" y="714" name="topright"/>
  <outline>
    <contour>
      <point x="82" y="646" type="curve" smooth="yes"/>
      <point x="307" y="0" type="line"/>
      <point x="336" y="0" type="line"/>
      <point x="555" y="646" type="line" smooth="yes"/>
      <point x="570" y="690"/>
      <point x="574" y="694"/>
      <point x="620" y="694" type="curve" smooth="yes"/>
      <point x="645" y="694" type="line"/>
      <point x="645" y="714" type="line"/>
      <point x="429" y="714" type="line"/>
      <point x="429" y="694" type="line"/>
      <point x="471" y="694" type="line" smooth="yes"/>
      <point x="521" y="694"/>
      <point x="526" y="685"/>
      <point x="526" y="666" type="curve" smooth="yes"/>
      <point x="526" y="643"/>
      <point x="504" y="586"/>
      <point x="498" y="567" type="curve" smooth="yes"/>
      <point x="388" y="244" type="line" smooth="yes"/>
      <point x="356" y="150"/>
      <point x="340" y="98"/>
      <point x="322" y="35" type="curve"/>
      <point x="303" y="94"/>
      <point x="283" y="155"/>
      <point x="252" y="244" type="curve" smooth="yes"/>
      <point x="139" y="567" type="line" smooth="yes"/>
      <point x="132" y="588"/>
      <point x="111" y="643"/>
      <point x="111" y="666" type="curve" smooth="yes"/>
      <point x="111" y="685"/>
      <point x="116" y="694"/>
      <point x="166" y="694" type="curve" smooth="yes"/>
      <point x="215" y="694" type="line"/>
      <point x="215" y="714" type="line"/>
      <point x="0" y="714" type="line"/>
      <point x="0" y="694" type="line"/>
      <point x="17" y="694" type="line" smooth="yes"/>
      <point x="63" y="694"/>
      <point x="67" y="690"/>
    </contour>
  </outline>
</glyph>
<glyph name="W.mono" format="2">
  <advance width="600"/>
  <unicode hex="0057"/>
  <anchor x="300" y="0" name="bottom"/>
  <anchor x="300" y="714" name="top"/>
  <anchor x="580" y="714" name="topright"/>
  <outline>
    <contour>
      <point x="155" y="0" type="line"/>
      <point x="190" y="0" type="line"/>
      <point x="276" y="388" type="line" smooth="yes"/>
      <point x="286" y="434"/>
      <point x="291" y="450"/>
      <point x="299" y="495" type="curve"/>
      <point x="301" y="495" type="line"/>
      <point x="309" y="450"/>
      <point x="312" y="434"/>
      <point x="322" y="388" type="curve" smooth="yes"/>
      <point x="408" y="0" type="line"/>
      <point x="443" y="0" type="line"/>
      <point x="560" y="714" type="line"/>
      <point x="533" y="714" type="line"/>
      <point x="504" y="528"/>
      <point x="474" y="342"/>
      <point x="445" y="156" type="curve" smooth="yes"/>
      <point x="438" y="111"/>
      <point x="434" y="75"/>
      <point x="426" y="29" type="curve"/>
      <point x="424" y="29" type="line"/>
      <point x="416" y="77"/>
      <point x="410" y="104"/>
      <point x="398" y="156" type="curve" smooth="yes"/>
      <point x="314" y="528" type="line"/>
      <point x="285" y="528" type="line"/>
      <point x="200" y="152" type="line" smooth="yes"/>
      <point x="185" y="84"/>
      <point x="181" y="70"/>
      <point x="175" y="29" type="curve"/>
      <point x="173" y="29" type="line"/>
      <point x="168" y="67"/>
      <point x="164" y="88"/>
      <point x="154" y="152" type="curve" smooth="yes"/>
      <point x="125" y="339"/>
      <point x="96" y="527"/>
      <point x="67" y="714" type="curve"/>
      <point x="40" y="714" type="line"/>
    </contour>
  </outline>
</glyph>
<glyph name="W.serif" format="2">
  <advance width="1021"/>
  <unicode hex="0057"/>
  <anchor x="511" y="0" name="bottom"/>
  <anchor x="511" y="714" name="top"/>
  <anchor x="1001" y="714" name="topright"/>
  <outline>
    <contour>
      <point x="108" y="646" type="curve" smooth="yes"/>
      <point x="306" y="0" type="line"/>
      <point x="334" y="0" type="line"/>
      <point x="507" y="669" type="line"/>
      <point x="682" y="0" type="line"/>
      <point x="710" y="0" type="line"/>
      <point x="909" y="645" type="line" smooth="yes"/>
      <point x="923" y="690"/>
      <point x="929" y="694"/>
      <point x="974" y="694" type="curve" smooth="yes"/>
      <point x="1002" y="694" type="line"/>
      <point x="1002" y="714" type="line"/>
      <point x="790" y="714" type="line"/>
      <point x="790" y="694" type="line"/>
      <point x="825" y="694" type="line" smooth="yes"/>
      <point x="875" y="694"/>
      <point x="880" y="685"/>
      <point x="880" y="666" type="curve" smooth="yes"/>
      <point x="880" y="652"/>
      <point x="874" y="632"/>
      <point x="863" y="595" type="curve" smooth="yes"/>
      <point x="744" y="205" type="line" smooth="yes"/>
      <point x="726" y="147"/>
      <point x="708" y="84"/>
      <point x="699" y="41" type="curve"/>
      <point x="688" y="92"/>
      <point x="674" y="143"/>
      <point x="657" y="208" type="curve" smooth="yes"/>
      <point x="522" y="714" type="line"/>
      <point x="494" y="714" type="line"/>
      <point x="354" y="189" type="line" smooth="yes"/>
      <point x="339" y="135"/>
      <point x="332" y="96"/>
      <point x="320" y="40" type="curve"/>
      <point x="305" y="100"/>
      <point x="298" y="126"/>
      <point x="279" y="189" type="curve" smooth="yes"/>
      <point x="154" y="595" type="line" smooth="yes"/>
      <point x="142" y="633"/>
      <point x="136" y="653"/>
      <point x="136" y="666" type="curve" smooth="yes"/>
      <point x="136" y="685"/>
      <point x="141" y="694"/>
      <point x="191" y="694" type="curve" smooth="yes"/>
      <point x="232" y="694" type="line"/>
      <point x="232" y="714" type="line"/>
      <point x="21" y="714" type="line"/>
      <point x="21" y="694" type="line"/>
      <point x="43" y="694" type="line" smooth="yes"/>
      <point x="88" y="694"/>
      <point x="95" y="690"/>
    </contour>
  </outline>
</glyph>
<glyph name="X.mono" format="2">
  <advance width="600"/>
  <unicode hex="0058"/>
  <anchor x="300" y="0" name="bottom"/>
  <anchor x="300" y="714" name="top"/>
  <anchor x="580" y="714" name="topright"/>
  <outline>
    <contour>
      <point x="50" y="0" type="line"/>
      <point x="81" y="0" type="line"/>
      <point x="302" y="352" type="line"/>
      <point x="519" y="0" type="line"/>
      <point x="550" y="0" type="line"/>
      <point x="316" y="373" type="line"/>
      <point x="532" y="714" type="line"/>
      <point x="502" y="714" type="line"/>
      <point x="302" y="393" type="line"/>
      <point x="106" y="714" type="line"/>
      <point x="75" y="714" type="line"/>
      <point x="288" y="372" type="line"/>
    </contour>
  </outline>
</glyph>
<glyph name="X.serif" format="2">
  <advance width="570"/>
  <unicode hex="0058"/>
  <anchor x="295" y="0" name="bottom"/>
  <anchor x="285" y="714" name="top"/>
  <anchor x="550" y="714" name="topright"/>
  <outline>
    <contour>
      <point x="6" y="0" type="line"/>
      <point x="226" y="0" type="line"/>
      <point x="226" y="20" type="line"/>
      <point x="176" y="20" type="line" smooth="yes"/>
      <point x="140" y="20"/>
      <point x="137" y="28"/>
      <point x="137" y="40" type="curve" smooth="yes"/>
      <point x="137" y="56"/>
      <point x="148" y="75"/>
      <point x="184" y="143" type="curve" smooth="yes"/>
      <point x="288" y="340" type="line"/>
      <point x="408" y="120" type="line" smooth="yes"/>
      <point x="433" y="74"/>
      <point x="444" y="56"/>
      <point x="444" y="40" type="curve" smooth="yes"/>
      <point x="444" y="28"/>
      <point x="441" y="20"/>
      <point x="408" y="20" type="curve" smooth="yes"/>
      <point x="370" y="20" type="line"/>
      <point x="370" y="0" type="line"/>
      <point x="564" y="0" type="line"/>
      <point x="564" y="20" type="line"/>
      <point x="540" y="20" type="line" smooth="yes"/>
      <point x="496" y="20"/>
      <point x="493" y="24"/>
      <point x="469" y="68" type="curve" smooth="yes"/>
      <point x="302" y="369" type="line"/>
      <point x="448" y="648" type="line" smooth="yes"/>
      <point x="469" y="690"/>
      <point x="475" y="694"/>
      <point x="519" y="694" type="curve" smooth="yes"/>
      <point x="549" y="694" type="line"/>
      <point x="549" y="714" type="line"/>
      <point x="350" y="714" type="line"/>
      <point x="350" y="694" type="line"/>
      <point x="386" y="694" type="line" smooth="yes"/>
      <point x="420" y="694"/>
      <point x="423" y="686"/>
      <point x="423" y="674" type="curve" smooth="yes"/>
      <point x="423" y="658"/>
      <point x="410" y="636"/>
      <point x="395" y="607" type="curve" smooth="yes"/>
      <point x="286" y="398" type="line"/>
      <point x="173" y="608" type="line" smooth="yes"/>
      <point x="156" y="639"/>
      <point x="145" y="658"/>
      <point x="145" y="674" type="curve" smooth="yes"/>
      <point x="145" y="686"/>
      <point x="148" y="694"/>
      <point x="184" y="694" type="curve" smooth="yes"/>
      <point x="213" y="694" type="line"/>
      <point x="213" y="714" type="line"/>
      <point x="18" y="714" type="line"/>
      <point x="18" y="694" type="line"/>
      <point x="49" y="694" type="line" smooth="yes"/>
      <point x="93" y="694"/>
      <point x="96" y="690"/>
      <point x="120" y="647" type="curve" smooth="yes"/>
      <point x="271" y="370" type="line"/>
      <point x="113" y="67" type="line" smooth="yes"/>
      <point x="90" y="24"/>
      <point x="85" y="20"/>
      <point x="41" y="20" type="curve" smooth="yes"/>
      <point x="6" y="20" type="line"/>
    </contour>
  </outline>
</glyph>
<glyph name="Y.mono" format="2">
  <advance width="600"/>
  <unicode hex="0059"/>
  <anchor x="300" y="0" name="bottom"/>
  <anchor x="300" y="714" name="top"/>
  <anchor x="20" y="714" name="topleft"/>
  <anchor x="580" y="714" name="topright"/>
  <outline>
    <contour>
      <point x="289" y="0" type="line"/>
      <point x="315" y="0" type="line"/>
      <point x="315" y="271" type="line"/>
      <point x="550" y="714" type="line"/>
      <point x="521" y="714" type="line"/>
      <point x="302" y="294" type="line"/>
      <point x="79" y="714" type="line"/>
      <point x="50" y="714" type="line"/>
      <point x="289" y="271" type="line"/>
    </contour>
  </outline>
</glyph>
<glyph name="Y.serif" format="2">
  <advance width="539"/>
  <unicode hex="0059"/>
  <anchor x="270" y="0" name="bottom"/>
  <anchor x="270" y="714" name="top"/>
  <anchor x="519" y="714" name="topright"/>
  <outline>
    <contour>
      <point x="153" y="0" type="line"/>
      <point x="390" y="0" type="line"/>
      <point x="390" y="20" type="line"/>
      <point x="342" y="20" type="line" smooth="yes"/>
      <point x="292" y="20"/>
      <point x="286" y="31"/>
      <point x="286" y="108" type="curve" smooth="yes"/>
      <point x="286" y="356" type="line"/>
      <point x="466" y="652" type="line" smooth="yes"/>
      <point x="489" y="690"/>
      <point x="495" y="694"/>
      <point x="538" y="694" type="curve" smooth="yes"/>
      <point x="546" y="694" type="line"/>
      <point x="546" y="714" type="line"/>
      <point x="354" y="714" type="line"/>
      <point x="354" y="694" type="line"/>
      <point x="403" y="694" type="line" smooth="yes"/>
      <point x="437" y="694"/>
      <point x="441" y="687"/>
      <point x="441" y="677" type="curve" smooth="yes"/>
      <point x="441" y="665"/>
      <point x="432" y="650"/>
      <point x="419" y="629" type="curve" smooth="yes"/>
      <point x="325" y="474" type="line" smooth="yes"/>
      <point x="300" y="432"/>
      <point x="281" y="402"/>
      <point x="271" y="382" type="curve"/>
      <point x="249" y="421"/>
      <point x="223" y="462"/>
      <point x="197" y="503" type="curve" smooth="yes"/>
      <point x="118" y="629" type="line" smooth="yes"/>
      <point x="105" y="650"/>
      <point x="95" y="665"/>
      <point x="95" y="677" type="curve" smooth="yes"/>
      <point x="95" y="687"/>
      <point x="99" y="694"/>
      <point x="133" y="694" type="curve" smooth="yes"/>
      <point x="166" y="694" type="line"/>
      <point x="166" y="714" type="line"/>
      <point x="-11" y="714" type="line"/>
      <point x="-11" y="694" type="line"/>
      <point x="-2" y="694" type="line" smooth="yes"/>
      <point x="41" y="694"/>
      <point x="46" y="690"/>
      <point x="71" y="651" type="curve" smooth="yes"/>
      <point x="258" y="354" type="line"/>
      <point x="258" y="108" type="line" smooth="yes"/>
      <point x="258" y="31"/>
      <point x="252" y="20"/>
      <point x="202" y="20" type="curve" smooth="yes"/>
      <point x="153" y="20" type="line"/>
    </contour>
  </outline>
</glyph>
<glyph name="Z.mono" format="2">
  <advance width="600"/>
  <unicode hex="005A"/>
  <anchor x="320" y="0" name="bottom"/>
  <anchor x="317" y="714" name="top"/>
  <anchor x="580" y="714" name="topright"/>
  <outline>
    <contour>
      <point x="115" y="0" type="line"/>
      <point x="495" y="0" type="line"/>
      <point x="495" y="25" type="line"/>
      <point x="148" y="25" type="line"/>
      <point x="483" y="696" type="line"/>
      <point x="483" y="714" type="line"/>
      <point x="143" y="714" type="line"/>
      <point x="143" y="689" type="line"/>
      <point x="450" y="689" type="line"/>
      <point x="115" y="18" type="line"/>
    </contour>
  </outline>
</glyph>
<glyph name="Z.serif" format="2">
  <advance width="498"/>
  <unicode hex="005A"/>
  <anchor x="249" y="0" name="bottom"/>
  <anchor x="249" y="714" name="top"/>
  <anchor x="478" y="714" name="topright"/>
  <outline>
    <contour>
      <point x="28" y="0" type="line"/>
      <point x="453" y="0" type="line"/>
      <point x="458" y="135" type="line"/>
      <point x="438" y="135" type="line"/>
      <point x="436" y="93" type="line" smooth="yes"/>
      <point x="433" y="39"/>
      <point x="427" y="25"/>
      <point x="375" y="25" type="curve" smooth="yes"/>
      <point x="62" y="25" type="line"/>
      <point x="450" y="685" type="line"/>
      <point x="450" y="714" type="line"/>
      <point x="52" y="714" type="line"/>
      <point x="47" y="579" type="line"/>
      <point x="67" y="579" type="line"/>
      <point x="69" y="620" type="line" smooth="yes"/>
      <point x="72" y="675"/>
      <point x="78" y="689"/>
      <point x="130" y="689" type="curve" smooth="yes"/>
      <point x="420" y="689" type="line"/>
      <point x="28" y="22" type="line"/>
    </contour>
  </outline>
</glyph>
<glyph name="bracketleft.mono" format="2">
  <advance width="600"/>
  <unicode hex="005B"/>
  <outline>
    <contour>
      <point x="238" y="-158" type="line"/>
      <point x="438" y="-158" type="line"/>
      <point x="438" y="-133" type="line"/>
      <point x="263" y="-133" type="line"/>
      <point x="263" y="689" type="line"/>
      <point x="438" y="689" type="line"/>
      <point x="438" y="714" type="line"/>
      <point x="238" y="714" type="line"/>
    </contour>
  </outline>
</glyph>
<glyph name="bracketright.serif" format="2">
  <advance width="292"/>
  <unicode hex="005D"/>
  <outline>
    <contour>
      <point x="37" y="-128" type="line"/>
      <point x="192" y="-128" type="line"/>
      <point x="192" y="760" type="line"/>
      <point x="37" y="760" type="line"/>
      <point x="37" y="740" type="line"/>
      <point x="108" y="740" type="line" smooth="yes"/>
      <point x="158" y="740"/>
      <point x="164" y="729"/>
      <point x="164" y="652" type="curve" smooth="yes"/>
      <point x="164" y="-20" type="line" smooth="yes"/>
      <point x="164" y="-97"/>
      <point x="158" y="-108"/>
      <point x="108" y="-108" type="curve" smooth="yes"/>
      <point x="37" y="-108" type="line"/>
    </contour>
  </outline>
</glyph>
<glyph name="asciicircum.mono" format="2">
  <advance width="600"/>
  <unicode hex="005E"/>
  <outline>
    <contour>
      <point x="61" y="278" type="line"/>
      <point x="90" y="278" type="line"/>
      <point x="307" y="686" type="line"/>
      <point x="510" y="278" type="line"/>
      <point x="539" y="278" type="line"/>
      <point x="320" y="719" type="line"/>
      <point x="297" y="719" type="line"/>
    </contour>
  </outline>
</glyph>
<glyph name="grave.mono" format="2">
  <advance width="600"/>
  <unicode hex="0060"/>
  <outline>
    <contour>
      <point x="359" y="606" type="curve"/>
      <point x="380" y="606" type="line"/>
      <point x="380" y="612" type="line"/>
      <point x="335" y="652"/>
      <point x="270" y="723"/>
      <point x="241" y="766" type="curve"/>
      <point x="211" y="766" type="line"/>
      <point x="211" y="759" type="line"/>
      <point x="246" y="714"/>
      <point x="306" y="650"/>
    </contour>
  </outline>
</glyph>
<glyph name="a.mono" format="2">
  <advance width="600"/>
  <unicode hex="0061"/>
  <anchor x="306" y="0" name="bottom"/>
  <anchor x="540" y="10" name="ogonek"/>
  <anchor x="305" y="528" name="top"/>
  <anchor x="580" y="528" name="topright"/>
  <outline>
    <contour>
      <point x="254" y="-10" type="curve" smooth="yes"/>
      <point x="363" y="-10"/>
      <point x="432" y="39"/>
      <point x="462" y="103" type="curve"/>
      <point x="464" y="103" type="line"/>
      <point x="468" y="0" type="line"/>
      <point x="490" y="0" type="line"/>
      <point x="490" y="350" type="line" smooth="yes"/>
      <point x="490" y="480"/>
      <point x="429" y="537"/>
      <point x="305" y="537" type="curve" smooth="yes"/>
      <point x="247" y="537"/>
      <point x="192" y="523"/>
      <point x="139" y="497" type="curve"/>
      <point x="148" y="472" type="line"/>
      <point x="205" y="501"/>
      <point x="255" y="512"/>
      <point x="304" y="512" type="curve" smooth="yes"/>
      <point x="413" y="512"/>
      <point x="464" y="465"/>
      <point x="464" y="343" type="curve" smooth="yes"/>
      <point x="464" y="300" type="line"/>
      <point x="341" y="294" type="line" smooth="yes"/>
      <point x="189" y="286"/>
      <point x="90" y="240"/>
      <point x="90" y="128" type="curve" smooth="yes"/>
      <point x="90" y="44"/>
      <point x="146" y="-10"/>
    </contour>
    <contour>
      <point x="256" y="15" type="curve" smooth="yes"/>
      <point x="164" y="15"/>
      <point x="117" y="58"/>
      <point x="117" y="128" type="curve" smooth="yes"/>
      <point x="117" y="228"/>
      <point x="211" y="264"/>
      <point x="346" y="270" type="curve" smooth="yes"/>
      <point x="464" y="275" type="line"/>
      <point x="464" y="220" type="line" smooth="yes"/>
      <point x="464" y="100"/>
      <point x="392" y="15"/>
    </contour>
  </outline>
</glyph>
<glyph name="a.serif" format="2">
  <advance width="517"/>
  <unicode hex="0061"/>
  <anchor x="409" y="0" name="bottom"/>
  <anchor x="244" y="536" name="top"/>
  <anchor x="497" y="536" name="topright"/>
  <outline>
    <contour>
      <point x="197" y="-10" type="curve" smooth="yes"/>
      <point x="295" y="-10"/>
      <point x="349" y="61"/>
      <point x="372" y="104" type="curve"/>
      <point x="374" y="104" type="line"/>
      <point x="380" y="0" type="line"/>
      <point x="466" y="0" type="line"/>
      <point x="466" y="20" type="line"/>
      <point x="459" y="20" type="line" smooth="yes"/>
      <point x="405" y="20"/>
      <point x="401" y="35"/>
      <point x="401" y="110" type="curve" smooth="yes"/>
      <point x="401" y="386" type="line" smooth="yes"/>
      <point x="401" y="481"/>
      <point x="359" y="542"/>
      <point x="242" y="542" type="curve" smooth="yes"/>
      <point x="127" y="542"/>
      <point x="98" y="482"/>
      <point x="98" y="441" type="curve" smooth="yes"/>
      <point x="98" y="409"/>
      <point x="105" y="395"/>
      <point x="119" y="395" type="curve"/>
      <point x="119" y="471"/>
      <point x="143" y="517"/>
      <point x="242" y="517" type="curve" smooth="yes"/>
      <point x="355" y="517"/>
      <point x="373" y="456"/>
      <point x="373" y="371" type="curve" smooth="yes"/>
      <point x="373" y="306" type="line"/>
      <point x="290" y="303" type="line" smooth="yes"/>
      <point x="129" y="297"/>
      <point x="56" y="251"/>
      <point x="56" y="146" type="curve" smooth="yes"/>
      <point x="56" y="39"/>
      <point x="118" y="-10"/>
    </contour>
    <contour>
      <point x="201" y="15" type="curve" smooth="yes"/>
      <point x="117" y="15"/>
      <point x="84" y="77"/>
      <point x="84" y="145" type="curve" smooth="yes"/>
      <point x="84" y="225"/>
      <point x="131" y="275"/>
      <point x="287" y="280" type="curve" smooth="yes"/>
      <point x="373" y="283" type="line"/>
      <point x="373" y="170" type="line" smooth="yes"/>
      <point x="373" y="104"/>
      <point x="298" y="15"/>
    </contour>
  </outline>
</glyph>
<glyph name="b.mono" format="2">
  <advance width="600"/>
  <unicode hex="0062"/>
  <anchor x="300" y="0" name="bottom"/>
  <anchor x="300" y="760" name="top"/>
  <anchor x="580" y="760" name="topright"/>
  <outline>
    <contour>
      <point x="309" y="-10" type="curve" smooth="yes"/>
      <point x="469" y="-10"/>
      <point x="530" y="112"/>
      <point x="530" y="273" type="curve" smooth="yes"/>
      <point x="530" y="438"/>
      <point x="459" y="537"/>
      <point x="325" y="537" type="curve" smooth="yes"/>
      <point x="221" y="537"/>
      <point x="152" y="477"/>
      <point x="131" y="398" type="curve"/>
      <point x="129" y="398" type="line"/>
      <point x="130" y="440"/>
      <point x="131" y="491"/>
      <point x="131" y="525" type="curve" smooth="yes"/>
      <point x="131" y="760" type="line"/>
      <point x="105" y="760" type="line"/>
      <point x="105" y="0" type="line"/>
      <point x="127" y="0" type="line"/>
      <point x="131" y="104" type="line"/>
      <point x="133" y="104" type="line"/>
      <point x="156" y="38"/>
      <point x="212" y="-10"/>
    </contour>
    <contour>
      <point x="309" y="15" type="curve" smooth="yes"/>
      <point x="188" y="15"/>
      <point x="131" y="97"/>
      <point x="131" y="256" type="curve" smooth="yes"/>
      <point x="131" y="420"/>
      <point x="195" y="512"/>
      <point x="323" y="512" type="curve" smooth="yes"/>
      <point x="446" y="512"/>
      <point x="503" y="421"/>
      <point x="503" y="272" type="curve" smooth="yes"/>
      <point x="503" y="105"/>
      <point x="435" y="15"/>
    </contour>
  </outline>
</glyph>
<glyph name="b.serif" format="2">
  <advance width="570"/>
  <unicode hex="0062"/>
  <anchor x="285" y="0" name="bottom"/>
  <anchor x="132" y="760" name="top"/>
  <anchor x="510" y="760" name="topright"/>
  <outline>
    <contour>
      <point x="313" y="-10" type="curve" smooth="yes"/>
      <point x="429" y="-10"/>
      <point x="506" y="83"/>
      <point x="506" y="267" type="curve" smooth="yes"/>
      <point x="506" y="460"/>
      <point x="448" y="544"/>
      <point x="320" y="544" type="curve" smooth="yes"/>
      <point x="228" y="544"/>
      <point x="170" y="497"/>
      <point x="144" y="414" type="curve"/>
      <point x="141" y="414" type="line"/>
      <point x="145" y="459"/>
      <point x="146" y="522"/>
      <point x="146" y="560" type="curve" smooth="yes"/>
      <point x="146" y="760" type="line"/>
      <point x="20" y="760" type="line"/>
      <point x="20" y="740" type="line"/>
      <point x="51" y="740" type="line" smooth="yes"/>
      <point x="111" y="740"/>
      <point x="118" y="736"/>
      <point x="118" y="662" type="curve" smooth="yes"/>
      <point x="118" y="94" type="line" smooth="yes"/>
      <point x="118" y="24"/>
      <point x="114" y="20"/>
      <point x="41" y="20" type="curve" smooth="yes"/>
      <point x="20" y="20" type="line"/>
      <point x="20" y="0" type="line"/>
      <point x="142" y="0" type="line"/>
      <point x="145" y="99" type="line"/>
      <point x="148" y="99" type="line"/>
      <point x="176" y="28"/>
      <point x="237" y="-10"/>
    </contour>
    <contour>
      <point x="317" y="15" type="curve" smooth="yes"/>
      <point x="187" y="15"/>
      <point x="145" y="110"/>
      <point x="145" y="269" type="curve" smooth="yes"/>
      <point x="145" y="424"/>
      <point x="198" y="519"/>
      <point x="316" y="519" type="curve" smooth="yes"/>
      <point x="433" y="519"/>
      <point x="478" y="443"/>
      <point x="478" y="270" type="curve" smooth="yes"/>
      <point x="478" y="107"/>
      <point x="419" y="15"/>
    </contour>
  </outline>
</glyph>
<glyph name="c.mono" format="2">
  <advance width="600"/>
  <unicode hex="0063"/>
  <anchor x="335" y="0" name="bottom"/>
  <anchor x="330" y="528" name="top"/>
  <anchor x="580" y="528" name="topright"/>
  <outline>
    <contour>
      <point x="351" y="-10" type="curve" smooth="yes"/>
      <point x="409" y="-10"/>
      <point x="463" y="2"/>
      <point x="496" y="16" type="curve"/>
      <point x="496" y="42" type="line"/>
      <point x="457" y="26"/>
      <point x="401" y="15"/>
      <point x="351" y="15" type="curve" smooth="yes"/>
      <point x="186" y="15"/>
      <point x="117" y="126"/>
      <point x="117" y="257" type="curve" smooth="yes"/>
      <point x="117" y="412"/>
      <point x="213" y="512"/>
      <point x="369" y="512" type="curve" smooth="yes"/>
      <point x="407" y="512"/>
      <point x="455" y="505"/>
      <point x="495" y="487" type="curve"/>
      <point x="500" y="513" type="line"/>
      <point x="462" y="529"/>
      <point x="418" y="537"/>
      <point x="371" y="537" type="curve" smooth="yes"/>
      <point x="195" y="537"/>
      <point x="90" y="426"/>
      <point x="90" y="256" type="curve" smooth="yes"/>
      <point x="90" y="108"/>
      <point x="169" y="-10"/>
    </contour>
  </outline>
</glyph>
<glyph name="c.serif" format="2">
  <advance width="448"/>
  <unicode hex="0063"/>
  <anchor x="254" y="0" name="bottom"/>
  <anchor x="262" y="536" name="top"/>
  <anchor x="428" y="536" name="topright"/>
  <outline>
    <contour>
      <point x="259" y="-10" type="curve" smooth="yes"/>
      <point x="358" y="-10"/>
      <point x="412" y="53"/>
      <point x="412" y="86" type="curve" smooth="yes"/>
      <point x="412" y="98"/>
      <point x="410" y="106"/>
      <point x="404" y="114" type="curve"/>
      <point x="382" y="60"/>
      <point x="343" y="16"/>
      <point x="259" y="15" type="curve" smooth="yes"/>
      <point x="169" y="14"/>
      <point x="92" y="103"/>
      <point x="92" y="264" type="curve" smooth="yes"/>
      <point x="92" y="452"/>
      <point x="160" y="517"/>
      <point x="258" y="517" type="curve" smooth="yes"/>
      <point x="343" y="517"/>
      <point x="384" y="462"/>
      <point x="384" y="406" type="curve"/>
      <point x="399" y="407"/>
      <point x="409" y="417"/>
      <point x="409" y="433" type="curve" smooth="yes"/>
      <point x="409" y="490"/>
      <point x="354" y="542"/>
      <point x="262" y="542" type="curve" smooth="yes"/>
      <point x="148" y="542"/>
      <point x="64" y="475"/>
      <point x="64" y="263" type="curve" smooth="yes"/>
      <point x="64" y="78"/>
      <point x="151" y="-10"/>
    </contour>
  </outline>
</glyph>
<glyph name="d.mono" format="2">
  <advance width="600"/>
  <unicode hex="0064"/>
  <anchor x="300" y="0" name="bottom"/>
  <anchor x="300" y="264" name="center"/>
  <anchor x="300" y="760" name="top"/>
  <anchor x="580" y="760" name="topright"/>
  <outline>
    <contour>
      <point x="281" y="-10" type="curve" smooth="yes"/>
      <point x="387" y="-10"/>
      <point x="442" y="42"/>
      <point x="469" y="113" type="curve"/>
      <point x="471" y="113" type="line"/>
      <point x="473" y="0" type="line"/>
      <point x="495" y="0" type="line"/>
      <point x="495" y="760" type="line"/>
      <point x="469" y="760" type="line"/>
      <point x="469" y="543" type="line" smooth="yes"/>
      <point x="469" y="501"/>
      <point x="469" y="454"/>
      <point x="471" y="409" type="curve"/>
      <point x="469" y="409" type="line"/>
      <point x="447" y="477"/>
      <point x="394" y="537"/>
      <point x="289" y="537" type="curve" smooth="yes"/>
      <point x="150" y="537"/>
      <point x="70" y="437"/>
      <point x="70" y="254" type="curve" smooth="yes"/>
      <point x="70" y="86"/>
      <point x="140" y="-10"/>
    </contour>
    <contour>
      <point x="283" y="15" type="curve" smooth="yes"/>
      <point x="160" y="15"/>
      <point x="97" y="95"/>
      <point x="97" y="254" type="curve" smooth="yes"/>
      <point x="97" y="427"/>
      <point x="167" y="512"/>
      <point x="289" y="512" type="curve" smooth="yes"/>
      <point x="412" y="512"/>
      <point x="469" y="426"/>
      <point x="469" y="266" type="curve" smooth="yes"/>
      <point x="469" y="263" type="line" smooth="yes"/>
      <point x="469" y="106"/>
      <point x="417" y="15"/>
    </contour>
  </outline>
</glyph>
<glyph name="d.serif" format="2">
  <advance width="570"/>
  <unicode hex="0064"/>
  <anchor x="285" y="0" name="bottom"/>
  <anchor x="285" y="268" name="center"/>
  <anchor x="441" y="760" name="top"/>
  <anchor x="510" y="760" name="topright"/>
  <outline>
    <contour>
      <point x="264" y="-10" type="curve" smooth="yes"/>
      <point x="353" y="-10"/>
      <point x="400" y="41"/>
      <point x="430" y="111" type="curve"/>
      <point x="432" y="111" type="line"/>
      <point x="436" y="0" type="line"/>
      <point x="553" y="0" type="line"/>
      <point x="553" y="20" type="line"/>
      <point x="537" y="20" type="line" smooth="yes"/>
      <point x="464" y="20"/>
      <point x="460" y="24"/>
      <point x="460" y="94" type="curve" smooth="yes"/>
      <point x="460" y="760" type="line"/>
      <point x="340" y="760" type="line"/>
      <point x="340" y="740" type="line"/>
      <point x="365" y="740" type="line" smooth="yes"/>
      <point x="425" y="740"/>
      <point x="432" y="736"/>
      <point x="432" y="662" type="curve" smooth="yes"/>
      <point x="432" y="543" type="line" smooth="yes"/>
      <point x="432" y="515"/>
      <point x="433" y="478"/>
      <point x="434" y="441" type="curve"/>
      <point x="430" y="441" type="line"/>
      <point x="403" y="505"/>
      <point x="345" y="543"/>
      <point x="256" y="543" type="curve" smooth="yes"/>
      <point x="126" y="543"/>
      <point x="66" y="443"/>
      <point x="66" y="267" type="curve" smooth="yes"/>
      <point x="66" y="88"/>
      <point x="141" y="-10"/>
    </contour>
    <contour>
      <point x="258" y="14" type="curve" smooth="yes"/>
      <point x="163" y="12"/>
      <point x="94" y="103"/>
      <point x="94" y="264" type="curve" smooth="yes"/>
      <point x="94" y="426"/>
      <point x="141" y="518"/>
      <point x="259" y="518" type="curve" smooth="yes"/>
      <point x="392" y="518"/>
      <point x="433" y="432"/>
      <point x="433" y="265" type="curve" smooth="yes"/>
      <point x="433" y="112"/>
      <point x="376" y="16"/>
    </contour>
  </outline>
</glyph>
<glyph name="e.mono" format="2">
  <advance width="600"/>
  <unicode hex="0065"/>
  <anchor x="310" y="0" name="bottom"/>
  <anchor x="315" y="10" name="ogonek"/>
  <anchor x="303" y="528" name="top"/>
  <anchor x="580" y="528" name="topright"/>
  <outline>
    <contour>
      <point x="336" y="-10" type="curve" smooth="yes"/>
      <point x="394" y="-10"/>
      <point x="457" y="1"/>
      <point x="510" y="23" type="curve"/>
      <point x="510" y="51" type="line"/>
      <point x="454" y="28"/>
      <point x="402" y="15"/>
      <point x="337" y="15" type="curve" smooth="yes"/>
      <point x="169" y="15"/>
      <point x="102" y="108"/>
      <point x="102" y="266" type="curve"/>
      <point x="525" y="266" type="line"/>
      <point x="525" y="291" type="line" smooth="yes"/>
      <point x="525" y="430"/>
      <point x="464" y="537"/>
      <point x="318" y="537" type="curve" smooth="yes"/>
      <point x="151" y="537"/>
      <point x="75" y="410"/>
      <point x="75" y="254" type="curve" smooth="yes"/>
      <point x="75" y="104"/>
      <point x="147" y="-10"/>
    </contour>
    <contour>
      <point x="498" y="291" type="curve"/>
      <point x="103" y="291" type="line"/>
      <point x="116" y="436"/>
      <point x="201" y="512"/>
      <point x="318" y="512" type="curve" smooth="yes"/>
      <point x="440" y="512"/>
      <point x="498" y="425"/>
    </contour>
  </outline>
</glyph>
<glyph name="f.mono" format="2">
  <advance width="600"/>
  <unicode hex="0066"/>
  <anchor x="300" y="0" name="bottom"/>
  <anchor x="420" y="765" name="top"/>
  <anchor x="620" y="765" name="topright"/>
  <outline>
    <contour>
      <point x="273" y="0" type="line"/>
      <point x="299" y="0" type="line"/>
      <point x="299" y="503" type="line"/>
      <point x="528" y="503" type="line"/>
      <point x="528" y="528" type="line"/>
      <point x="299" y="528" type="line"/>
      <point x="299" y="592" type="line" smooth="yes"/>
      <point x="299" y="703"/>
      <point x="346" y="740"/>
      <point x="445" y="740" type="curve" smooth="yes"/>
      <point x="484" y="740"/>
      <point x="528" y="735"/>
      <point x="556" y="728" type="curve"/>
      <point x="560" y="752" type="line"/>
      <point x="535" y="759"/>
      <point x="480" y="765"/>
      <point x="445" y="765" type="curve" smooth="yes"/>
      <point x="325" y="765"/>
      <point x="273" y="707"/>
      <point x="273" y="603" type="curve" smooth="yes"/>
      <point x="273" y="528" type="line"/>
      <point x="94" y="524" type="line"/>
      <point x="94" y="503" type="line"/>
      <point x="273" y="503" type="line"/>
    </contour>
  </outline>
</glyph>
<glyph name="g.mono" format="2">
  <advance width="600"/>
  <unicode hex="0067"/>
  <anchor x="300" y="-247" name="bottom"/>
  <anchor x="300" y="528" name="top"/>
  <anchor x="580" y="528" name="topright"/>
  <outline>
    <contour>
      <point x="274" y="-247" type="curve" smooth="yes"/>
      <point x="436" y="-247"/>
      <point x="495" y="-164"/>
      <point x="495" y="-38" type="curve" smooth="yes"/>
      <point x="495" y="528" type="line"/>
      <point x="473" y="528" type="line"/>
      <point x="468" y="432" type="line"/>
      <point x="466" y="432" type="line"/>
      <point x="438" y="490"/>
      <point x="390" y="537"/>
      <point x="292" y="537" type="curve" smooth="yes"/>
      <point x="145" y="537"/>
      <point x="70" y="431"/>
      <point x="70" y="257" type="curve" smooth="yes"/>
      <point x="70" y="80"/>
      <point x="148" y="-10"/>
      <point x="280" y="-10" type="curve" smooth="yes"/>
      <point x="376" y="-10"/>
      <point x="444" y="38"/>
      <point x="469" y="123" type="curve"/>
      <point x="471" y="123" type="line"/>
      <point x="469" y="84"/>
      <point x="469" y="56"/>
      <point x="469" y="17" type="curve" smooth="yes"/>
      <point x="469" y="-32" type="line" smooth="yes"/>
      <point x="469" y="-147"/>
      <point x="417" y="-222"/>
      <point x="276" y="-222" type="curve" smooth="yes"/>
      <point x="205" y="-222"/>
      <point x="144" y="-203"/>
      <point x="98" y="-180" type="curve"/>
      <point x="98" y="-210" type="line"/>
      <point x="144" y="-230"/>
      <point x="200" y="-247"/>
    </contour>
    <contour>
      <point x="283" y="15" type="curve" smooth="yes"/>
      <point x="159" y="15"/>
      <point x="97" y="99"/>
      <point x="97" y="258" type="curve" smooth="yes"/>
      <point x="97" y="416"/>
      <point x="158" y="512"/>
      <point x="292" y="512" type="curve" smooth="yes"/>
      <point x="428" y="512"/>
      <point x="469" y="416"/>
      <point x="469" y="294" type="curve" smooth="yes"/>
      <point x="469" y="246" type="line" smooth="yes"/>
      <point x="469" y="137"/>
      <point x="433" y="15"/>
    </contour>
  </outline>
</glyph>
<glyph name="g.serif" format="2">
  <advance width="510"/>
  <unicode hex="0067"/>
  <anchor x="252" y="-240" name="bottom"/>
  <anchor x="252" y="536" name="top"/>
  <anchor x="490" y="536" name="topright"/>
  <outline>
    <contour>
      <point x="237" y="-240" type="curve" smooth="yes"/>
      <point x="384" y="-240"/>
      <point x="458" y="-170"/>
      <point x="458" y="-65" type="curve" smooth="yes"/>
      <point x="458" y="27"/>
      <point x="408" y="71"/>
      <point x="313" y="71" type="curve" smooth="yes"/>
      <point x="244" y="71" type="line" smooth="yes"/>
      <point x="190" y="71"/>
      <point x="144" y="82"/>
      <point x="144" y="126" type="curve" smooth="yes"/>
      <point x="144" y="164"/>
      <point x="163" y="188"/>
      <point x="186" y="206" type="curve"/>
      <point x="196" y="200"/>
      <point x="234" y="196"/>
      <point x="250" y="196" type="curve" smooth="yes"/>
      <point x="354" y="196"/>
      <point x="407" y="264"/>
      <point x="407" y="364" type="curve" smooth="yes"/>
      <point x="407" y="417"/>
      <point x="391" y="460"/>
      <point x="373" y="485" type="curve"/>
      <point x="398" y="510"/>
      <point x="415" y="529"/>
      <point x="445" y="529" type="curve" smooth="yes"/>
      <point x="463" y="529"/>
      <point x="471" y="514"/>
      <point x="471" y="476" type="curve"/>
      <point x="485" y="476"/>
      <point x="492" y="490"/>
      <point x="492" y="513" type="curve" smooth="yes"/>
      <point x="492" y="537"/>
      <point x="478" y="557"/>
      <point x="445" y="557" type="curve" smooth="yes"/>
      <point x="406" y="557"/>
      <point x="376" y="523"/>
      <point x="358" y="503" type="curve"/>
      <point x="334" y="526"/>
      <point x="298" y="542"/>
      <point x="250" y="542" type="curve" smooth="yes"/>
      <point x="144" y="542"/>
      <point x="85" y="470"/>
      <point x="85" y="372" type="curve" smooth="yes"/>
      <point x="85" y="311"/>
      <point x="106" y="247"/>
      <point x="164" y="216" type="curve"/>
      <point x="148" y="204"/>
      <point x="116" y="170"/>
      <point x="116" y="132" type="curve" smooth="yes"/>
      <point x="116" y="93"/>
      <point x="138" y="72"/>
      <point x="168" y="63" type="curve"/>
      <point x="111" y="53"/>
      <point x="49" y="2"/>
      <point x="49" y="-80" type="curve" smooth="yes"/>
      <point x="49" y="-179"/>
      <point x="115" y="-240"/>
    </contour>
    <contour>
      <point x="241" y="-215" type="curve" smooth="yes"/>
      <point x="118" y="-215"/>
      <point x="77" y="-152"/>
      <point x="77" y="-82" type="curve" smooth="yes"/>
      <point x="77" y="11"/>
      <point x="140" y="46"/>
      <point x="220" y="46" type="curve" smooth="yes"/>
      <point x="311" y="46" type="line" smooth="yes"/>
      <point x="388" y="46"/>
      <point x="430" y="21"/>
      <point x="430" y="-66" type="curve" smooth="yes"/>
      <point x="430" y="-162"/>
      <point x="367" y="-215"/>
    </contour>
    <contour>
      <point x="247" y="221" type="curve" smooth="yes"/>
      <point x="169" y="221"/>
      <point x="113" y="265"/>
      <point x="113" y="364" type="curve" smooth="yes"/>
      <point x="113" y="472"/>
      <point x="169" y="517"/>
      <point x="247" y="517" type="curve" smooth="yes"/>
      <point x="331" y="517"/>
      <point x="379" y="472"/>
      <point x="379" y="365" type="curve" smooth="yes"/>
      <point x="379" y="258"/>
      <point x="329" y="221"/>
    </contour>
  </outline>
</glyph>
<glyph name="h.serif" format="2">
  <advance width="595"/>
  <unicode hex="0068"/>
  <anchor x="298" y="0" name="bottom"/>
  <anchor x="298" y="268" name="center"/>
  <anchor x="129" y="760" name="top"/>
  <anchor x="485" y="760" name="topright"/>
  <outline>
    <contour>
      <point x="16" y="0" type="line"/>
      <point x="242" y="0" type="line"/>
      <point x="242" y="20" type="line"/>
      <point x="223" y="20" type="line" smooth="yes"/>
      <point x="150" y="20"/>
      <point x="146" y="24"/>
      <point x="146" y="94" type="curve" smooth="yes"/>
      <point x="146" y="334" type="line" smooth="yes"/>
      <point x="146" y="461"/>
      <point x="213" y="517"/>
      <point x="314" y="517" type="curve" smooth="yes"/>
      <point x="407" y="517"/>
      <point x="447" y="468"/>
      <point x="447" y="360" type="curve" smooth="yes"/>
      <point x="447" y="0" type="line"/>
      <point x="569" y="0" type="line"/>
      <point x="569" y="20" type="line"/>
      <point x="552" y="20" type="line" smooth="yes"/>
      <point x="479" y="20"/>
      <point x="475" y="24"/>
      <point x="475" y="94" type="curve" smooth="yes"/>
      <point x="475" y="362" type="line" smooth="yes"/>
      <point x="475" y="489"/>
      <point x="418" y="542"/>
      <point x="314" y="542" type="curve" smooth="yes"/>
      <point x="209" y="542"/>
      <point x="163" y="487"/>
      <point x="145" y="435" type="curve"/>
      <point x="143" y="435" type="line"/>
      <point x="145" y="447"/>
      <point x="146" y="465"/>
      <point x="146" y="482" type="curve" smooth="yes"/>
      <point x="146" y="760" type="line"/>
      <point x="26" y="760" type="line"/>
      <point x="26" y="740" type="line"/>
      <point x="51" y="740" type="line" smooth="yes"/>
      <point x="111" y="740"/>
      <point x="118" y="736"/>
      <point x="118" y="662" type="curve" smooth="yes"/>
      <point x="118" y="94" type="line" smooth="yes"/>
      <point x="118" y="24"/>
      <point x="114" y="20"/>
      <point x="41" y="20" type="curve" smooth="yes"/>
      <point x="16" y="20" type="line"/>
    </contour>
  </outline>
</glyph>
<glyph name="i.mono" format="2">
  <advance width="600"/>
  <unicode hex="0069"/>
  <anchor x="321" y="0" name="bottom"/>
  <anchor x="320" y="284" name="center"/>
  <anchor x="314" y="734" name="top"/>
  <anchor x="491" y="734" name="topright"/>
  <outline>
    <contour>
      <point x="100" y="0" type="line"/>
      <point x="530" y="0" type="line"/>
      <point x="530" y="21" type="line"/>
      <point x="333" y="25" type="line"/>
      <point x="333" y="528" type="line"/>
      <point x="118" y="528" type="line"/>
      <point x="118" y="507" type="line"/>
      <point x="307" y="503" type="line"/>
      <point x="307" y="25" type="line"/>
      <point x="100" y="21" type="line"/>
    </contour>
    <contour>
      <point x="317" y="660" type="curve" smooth="yes"/>
      <point x="343" y="660"/>
      <point x="347" y="679"/>
      <point x="347" y="697" type="curve" smooth="yes"/>
      <point x="347" y="716"/>
      <point x="341" y="734"/>
      <point x="317" y="734" type="curve" smooth="yes"/>
      <point x="291" y="734"/>
      <point x="285" y="716"/>
      <point x="285" y="697" type="curve" smooth="yes"/>
      <point x="285" y="677"/>
      <point x="292" y="660"/>
    </contour>
  </outline>
</glyph>
<glyph name="i.serif" format="2">
  <advance width="280"/>
  <unicode hex="0069"/>
  <anchor x="150" y="0" name="bottom"/>
  <anchor x="145" y="738" name="top"/>
  <anchor x="230" y="738" name="topright"/>
  <outline>
    <contour>
      <point x="31" y="0" type="line"/>
      <point x="273" y="0" type="line"/>
      <point x="273" y="20" type="line"/>
      <point x="243" y="20" type="line" smooth="yes"/>
      <point x="170" y="20"/>
      <point x="166" y="24"/>
      <point x="166" y="94" type="curve" smooth="yes"/>
      <point x="166" y="536" type="line"/>
      <point x="53" y="536" type="line"/>
      <point x="53" y="516" type="line"/>
      <point x="71" y="516" type="line" smooth="yes"/>
      <point x="131" y="516"/>
      <point x="138" y="512"/>
      <point x="138" y="438" type="curve" smooth="yes"/>
      <point x="138" y="94" type="line" smooth="yes"/>
      <point x="138" y="24"/>
      <point x="134" y="20"/>
      <point x="61" y="20" type="curve" smooth="yes"/>
      <point x="31" y="20" type="line"/>
    </contour>
    <contour>
      <point x="147" y="658" type="curve" smooth="yes"/>
      <point x="162" y="658"/>
      <point x="170" y="666"/>
      <point x="170" y="698" type="curve" smooth="yes"/>
      <point x="170" y="729"/>
      <point x="162" y="738"/>
      <point x="147" y="738" type="curve" smooth="yes"/>
      <point x="133" y="738"/>
      <point x="124" y="729"/>
      <point x="124" y="698" type="curve" smooth="yes"/>
      <point x="124" y="666"/>
      <point x="133" y="658"/>
    </contour>
  </outline>
</glyph>
<glyph name="j.mono" format="2">
  <advance width="600"/>
  <unicode hex="006A"/>
  <anchor x="254" y="-248" name="bottom"/>
  <anchor x="340" y="734" name="top"/>
  <anchor x="520" y="734" name="topright"/>
  <outline>
    <contour>
      <point x="201" y="-248" type="curve" smooth="yes"/>
      <point x="294" y="-248"/>
      <point x="356" y="-196"/>
      <point x="356" y="-88" type="curve" smooth="yes"/>
      <point x="356" y="528" type="line"/>
      <point x="141" y="528" type="line"/>
      <point x="141" y="507" type="line"/>
      <point x="330" y="503" type="line"/>
      <point x="330" y="-81" type="line" smooth="yes"/>
      <point x="330" y="-168"/>
      <point x="288" y="-222"/>
      <point x="201" y="-222" type="curve" smooth="yes"/>
      <point x="161" y="-222"/>
      <point x="100" y="-210"/>
      <point x="80" y="-201" type="curve"/>
      <point x="80" y="-228" type="line"/>
      <point x="96" y="-234"/>
      <point x="151" y="-248"/>
    </contour>
    <contour>
      <point x="340" y="660" type="curve" smooth="yes"/>
      <point x="366" y="660"/>
      <point x="370" y="679"/>
      <point x="370" y="697" type="curve" smooth="yes"/>
      <point x="370" y="716"/>
      <point x="364" y="734"/>
      <point x="340" y="734" type="curve" smooth="yes"/>
      <point x="314" y="734"/>
      <point x="308" y="716"/>
      <point x="308" y="697" type="curve" smooth="yes"/>
      <point x="308" y="677"/>
      <point x="315" y="660"/>
    </contour>
  </outline>
</glyph>
<glyph name="j.serif" format="2">
  <advance width="284"/>
  <unicode hex="006A"/>
  <anchor x="92" y="-240" name="bottom"/>
  <anchor x="152" y="738" name="top"/>
  <anchor x="234" y="738" name="topright"/>
  <outline>
    <contour>
      <point x="26" y="-240" type="line"/>
      <point x="42" y="-240" type="line" smooth="yes"/>
      <point x="120" y="-240"/>
      <point x="174" y="-187"/>
      <point x="174" y="-8" type="curve" smooth="yes"/>
      <point x="174" y="536" type="line"/>
      <point x="61" y="536" type="line"/>
      <point x="61" y="516" type="line"/>
      <point x="79" y="516" type="line" smooth="yes"/>
      <point x="139" y="516"/>
      <point x="146" y="512"/>
      <point x="146" y="438" type="curve" smooth="yes"/>
      <point x="146" y="-8" type="line" smooth="yes"/>
      <point x="146" y="-165"/>
      <point x="105" y="-215"/>
      <point x="37" y="-215" type="curve" smooth="yes"/>
      <point x="26" y="-215" type="line"/>
    </contour>
    <contour>
      <point x="155" y="658" type="curve" smooth="yes"/>
      <point x="170" y="658"/>
      <point x="178" y="666"/>
      <point x="178" y="698" type="curve" smooth="yes"/>
      <point x="178" y="729"/>
      <point x="170" y="738"/>
      <point x="155" y="738" type="curve" smooth="yes"/>
      <point x="141" y="738"/>
      <point x="132" y="729"/>
      <point x="132" y="698" type="curve" smooth="yes"/>
      <point x="132" y="666"/>
      <point x="141" y="658"/>
    </contour>
  </outline>
</glyph>
<glyph name="k.mono" format="2">
  <advance width="600"/>
  <unicode hex="006B"/>
  <anchor x="334" y="0" name="bottom"/>
  <anchor x="340" y="760" name="top"/>
  <anchor x="530" y="840" name="topright"/>
  <outline>
    <contour>
      <point x="140" y="0" type="line"/>
      <point x="166" y="0" type="line"/>
      <point x="166" y="169" type="line"/>
      <point x="300" y="297" type="line"/>
      <point x="514" y="0" type="line"/>
      <point x="545" y="0" type="line"/>
      <point x="318" y="315" type="line"/>
      <point x="525" y="528" type="line"/>
      <point x="491" y="528" type="line"/>
      <point x="235" y="269" type="line" smooth="yes"/>
      <point x="210" y="244"/>
      <point x="188" y="222"/>
      <point x="167" y="201" type="curve"/>
      <point x="165" y="201" type="line"/>
      <point x="166" y="265"/>
      <point x="166" y="321"/>
      <point x="166" y="385" type="curve" smooth="yes"/>
      <point x="166" y="760" type="line"/>
      <point x="140" y="760" type="line"/>
    </contour>
  </outline>
</glyph>
<glyph name="k.serif" format="2">
  <advance width="521"/>
  <unicode hex="006B"/>
  <anchor x="289" y="0" name="bottom"/>
  <anchor x="130" y="760" name="top"/>
  <anchor x="431" y="860" name="topright"/>
  <outline>
    <contour>
      <point x="20" y="0" type="line"/>
      <point x="233" y="0" type="line"/>
      <point x="233" y="20" type="line"/>
      <point x="223" y="20" type="line" smooth="yes"/>
      <point x="150" y="20"/>
      <point x="146" y="24"/>
      <point x="146" y="94" type="curve" smooth="yes"/>
      <point x="146" y="181" type="line"/>
      <point x="255" y="298" type="line"/>
      <point x="371" y="110" type="line" smooth="yes"/>
      <point x="434" y="9"/>
      <point x="445" y="0"/>
      <point x="510" y="0" type="curve" smooth="yes"/>
      <point x="524" y="0" type="line"/>
      <point x="524" y="20" type="line"/>
      <point x="520" y="20" type="line" smooth="yes"/>
      <point x="477" y="20"/>
      <point x="448" y="40"/>
      <point x="400" y="116" type="curve" smooth="yes"/>
      <point x="274" y="318" type="line"/>
      <point x="385" y="437" type="line" smooth="yes"/>
      <point x="447" y="504"/>
      <point x="438" y="516"/>
      <point x="494" y="516" type="curve"/>
      <point x="494" y="536" type="line"/>
      <point x="325" y="536" type="line"/>
      <point x="325" y="516" type="line"/>
      <point x="372" y="516"/>
      <point x="393" y="514"/>
      <point x="393" y="497" type="curve" smooth="yes"/>
      <point x="393" y="483"/>
      <point x="383" y="466"/>
      <point x="294" y="373" type="curve" smooth="yes"/>
      <point x="144" y="215" type="line"/>
      <point x="145" y="272"/>
      <point x="146" y="322"/>
      <point x="146" y="374" type="curve" smooth="yes"/>
      <point x="146" y="760" type="line"/>
      <point x="20" y="760" type="line"/>
      <point x="20" y="740" type="line"/>
      <point x="51" y="740" type="line" smooth="yes"/>
      <point x="111" y="740"/>
      <point x="118" y="736"/>
      <point x="118" y="662" type="curve" smooth="yes"/>
      <point x="118" y="94" type="line" smooth="yes"/>
      <point x="118" y="24"/>
      <point x="114" y="20"/>
      <point x="41" y="20" type="curve" smooth="yes"/>
      <point x="20" y="20" type="line"/>
    </contour>
  </outline>
</glyph>
<glyph name="l.mono" format="2">
  <advance width="600"/>
  <unicode hex="006C"/>
  <anchor x="314" y="0" name="bottom"/>
  <anchor x="314" y="379" name="center"/>
  <anchor x="300" y="760" name="top"/>
  <anchor x="486" y="760" name="topright"/>
  <outline>
    <contour>
      <point x="100" y="0" type="line"/>
      <point x="530" y="0" type="line"/>
      <point x="530" y="21" type="line"/>
      <point x="327" y="25" type="line"/>
      <point x="327" y="760" type="line"/>
      <point x="122" y="760" type="line"/>
      <point x="122" y="739" type="line"/>
      <point x="301" y="735" type="line"/>
      <point x="301" y="25" type="line"/>
      <point x="100" y="21" type="line"/>
    </contour>
  </outline>
</glyph>
<glyph name="l.serif" format="2">
  <advance width="256"/>
  <unicode hex="006C"/>
  <anchor x="128" y="0" name="bottom"/>
  <anchor x="128" y="268" name="center"/>
  <anchor x="120" y="760" name="top"/>
  <anchor x="186" y="760" name="topright"/>
  <outline>
    <contour>
      <point x="7" y="0" type="line"/>
      <point x="249" y="0" type="line"/>
      <point x="249" y="20" type="line"/>
      <point x="219" y="20" type="line" smooth="yes"/>
      <point x="146" y="20"/>
      <point x="142" y="24"/>
      <point x="142" y="94" type="curve" smooth="yes"/>
      <point x="142" y="760" type="line"/>
      <point x="7" y="760" type="line"/>
      <point x="7" y="740" type="line"/>
      <point x="47" y="740" type="line" smooth="yes"/>
      <point x="107" y="740"/>
      <point x="114" y="736"/>
      <point x="114" y="662" type="curve" smooth="yes"/>
      <point x="114" y="94" type="line" smooth="yes"/>
      <point x="114" y="24"/>
      <point x="110" y="20"/>
      <point x="37" y="20" type="curve" smooth="yes"/>
      <point x="7" y="20" type="line"/>
    </contour>
  </outline>
</glyph>
<glyph name="m.serif" format="2">
  <advance width="891"/>
  <unicode hex="006D"/>
  <anchor x="503" y="0" name="bottom"/>
  <anchor x="456" y="536" name="top"/>
  <anchor x="831" y="536" name="topright"/>
  <outline>
    <contour>
      <point x="38" y="0" type="line"/>
      <point x="263" y="0" type="line"/>
      <point x="263" y="20" type="line"/>
      <point x="243" y="20" type="line" smooth="yes"/>
      <point x="170" y="20"/>
      <point x="166" y="24"/>
      <point x="166" y="94" type="curve" smooth="yes"/>
      <point x="166" y="334" type="line" smooth="yes"/>
      <point x="166" y="431"/>
      <point x="215" y="517"/>
      <point x="315" y="517" type="curve" smooth="yes"/>
      <point x="409" y="517"/>
      <point x="443" y="462"/>
      <point x="443" y="365" type="curve" smooth="yes"/>
      <point x="443" y="0" type="line"/>
      <point x="563" y="0" type="line"/>
      <point x="563" y="20" type="line"/>
      <point x="548" y="20" type="line" smooth="yes"/>
      <point x="475" y="20"/>
      <point x="471" y="24"/>
      <point x="471" y="94" type="curve" smooth="yes"/>
      <point x="471" y="349" type="line" smooth="yes"/>
      <point x="471" y="443"/>
      <point x="516" y="518"/>
      <point x="622" y="518" type="curve" smooth="yes"/>
      <point x="712" y="518"/>
      <point x="748" y="463"/>
      <point x="748" y="365" type="curve" smooth="yes"/>
      <point x="748" y="0" type="line"/>
      <point x="863" y="0" type="line"/>
      <point x="863" y="20" type="line"/>
      <point x="853" y="20" type="line" smooth="yes"/>
      <point x="780" y="20"/>
      <point x="776" y="24"/>
      <point x="776" y="94" type="curve" smooth="yes"/>
      <point x="776" y="361" type="line" smooth="yes"/>
      <point x="776" y="478"/>
      <point x="729" y="542"/>
      <point x="622" y="542" type="curve" smooth="yes"/>
      <point x="533" y="542"/>
      <point x="485" y="495"/>
      <point x="464" y="441" type="curve"/>
      <point x="461" y="441" type="line"/>
      <point x="446" y="495"/>
      <point x="412" y="542"/>
      <point x="321" y="542" type="curve" smooth="yes"/>
      <point x="251" y="542"/>
      <point x="195" y="510"/>
      <point x="170" y="443" type="curve"/>
      <point x="165" y="443" type="line"/>
      <point x="162" y="536" type="line"/>
      <point x="54" y="536" type="line"/>
      <point x="54" y="516" type="line"/>
      <point x="71" y="516" type="line" smooth="yes"/>
      <point x="131" y="516"/>
      <point x="138" y="511"/>
      <point x="138" y="442" type="curve" smooth="yes"/>
      <point x="138" y="94" type="line" smooth="yes"/>
      <point x="138" y="24"/>
      <point x="134" y="20"/>
      <point x="61" y="20" type="curve" smooth="yes"/>
      <point x="38" y="20" type="line"/>
    </contour>
  </outline>
</glyph>
<glyph name="n.mono" format="2">
  <advance width="600"/>
  <unicode hex="006E"/>
  <anchor x="309" y="0" name="bottom"/>
  <anchor x="308" y="528" name="top"/>
  <anchor x="580" y="528" name="topright"/>
  <outline>
    <contour>
      <point x="105" y="0" type="line"/>
      <point x="131" y="0" type="line"/>
      <point x="131" y="302" type="line" smooth="yes"/>
      <point x="131" y="446"/>
      <point x="207" y="512"/>
      <point x="319" y="512" type="curve" smooth="yes"/>
      <point x="416" y="512"/>
      <point x="474" y="462"/>
      <point x="474" y="345" type="curve" smooth="yes"/>
      <point x="474" y="0" type="line"/>
      <point x="500" y="0" type="line"/>
      <point x="500" y="354" type="line" smooth="yes"/>
      <point x="500" y="477"/>
      <point x="432" y="537"/>
      <point x="320" y="537" type="curve" smooth="yes"/>
      <point x="209" y="537"/>
      <point x="155" y="478"/>
      <point x="132" y="417" type="curve"/>
      <point x="130" y="417" type="line"/>
      <point x="127" y="528" type="line"/>
      <point x="105" y="528" type="line"/>
    </contour>
  </outline>
</glyph>
<glyph name="o.mono" format="2">
  <advance width="600"/>
  <unicode hex="006F"/>
  <anchor x="300" y="0" name="bottom"/>
  <anchor x="300" y="264" name="center"/>
  <anchor x="300" y="10" name="ogonek"/>
  <anchor x="300" y="528" name="top"/>
  <anchor x="580" y="528" name="topright"/>
  <outline>
    <contour>
      <point x="300" y="-10" type="curve" smooth="yes"/>
      <point x="457" y="-10"/>
      <point x="530" y="109"/>
      <point x="530" y="267" type="curve" smooth="yes"/>
      <point x="530" y="416"/>
      <point x="465" y="537"/>
      <point x="305" y="537" type="curve" smooth="yes"/>
      <point x="157" y="537"/>
      <point x="70" y="432"/>
      <point x="70" y="264" type="curve" smooth="yes"/>
      <point x="70" y="107"/>
      <point x="145" y="-10"/>
    </contour>
    <contour>
      <point x="300" y="15" type="curve" smooth="yes"/>
      <point x="163" y="15"/>
      <point x="97" y="116"/>
      <point x="97" y="263" type="curve" smooth="yes"/>
      <point x="97" y="420"/>
      <point x="174" y="512"/>
      <point x="305" y="512" type="curve" smooth="yes"/>
      <point x="449" y="512"/>
      <point x="503" y="402"/>
      <point x="503" y="265" type="curve" smooth="yes"/>
      <point x="503" y="119"/>
      <point x="440" y="15"/>
    </contour>
  </outline>
</glyph>
<glyph name="q.mono" format="2">
  <advance width="600"/>
  <unicode hex="0071"/>
  <anchor x="290" y="-240" name="bottom"/>
  <anchor x="290" y="528" name="top"/>
  <anchor x="580" y="528" name="topright"/>
  <outline>
    <contour>
      <point x="469" y="3" type="curve" smooth="yes"/>
      <point x="469" y="-240" type="line"/>
      <point x="495" y="-240" type="line"/>
      <point x="495" y="528" type="line"/>
      <point x="473" y="528" type="line"/>
      <point x="469" y="422" type="line"/>
      <point x="467" y="422" type="line"/>
      <point x="444" y="484"/>
      <point x="387" y="537"/>
      <point x="286" y="537" type="curve" smooth="yes"/>
      <point x="135" y="537"/>
      <point x="70" y="416"/>
      <point x="70" y="254" type="curve" smooth="yes"/>
      <point x="70" y="86"/>
      <point x="140" y="-10"/>
      <point x="277" y="-10" type="curve" smooth="yes"/>
      <point x="382" y="-10"/>
      <point x="442" y="46"/>
      <point x="469" y="124" type="curve"/>
      <point x="471" y="124" type="line"/>
      <point x="470" y="91"/>
      <point x="469" y="35"/>
    </contour>
    <contour>
      <point x="277" y="15" type="curve" smooth="yes"/>
      <point x="156" y="15"/>
      <point x="97" y="98"/>
      <point x="97" y="256" type="curve" smooth="yes"/>
      <point x="97" y="420"/>
      <point x="161" y="512"/>
      <point x="286" y="512" type="curve" smooth="yes"/>
      <point x="407" y="512"/>
      <point x="469" y="430"/>
      <point x="469" y="275" type="curve" smooth="yes"/>
      <point x="469" y="265" type="line" smooth="yes"/>
      <point x="469" y="109"/>
      <point x="406" y="15"/>
    </contour>
  </outline>
</glyph>
<glyph name="q.serif" format="2">
  <advance width="572"/>
  <unicode hex="0071"/>
  <anchor x="450" y="-240" name="bottom"/>
  <anchor x="286" y="536" name="top"/>
  <anchor x="552" y="536" name="topright"/>
  <outline>
    <contour>
      <point x="337" y="-240" type="line"/>
      <point x="538" y="-240" type="line"/>
      <point x="538" y="-220" type="line"/>
      <point x="527" y="-220" type="line" smooth="yes"/>
      <point x="467" y="-220"/>
      <point x="460" y="-216"/>
      <point x="460" y="-142" type="curve" smooth="yes"/>
      <point x="460" y="442" type="line" smooth="yes"/>
      <point x="460" y="512"/>
      <point x="464" y="516"/>
      <point x="537" y="516" type="curve" smooth="yes"/>
      <point x="548" y="516" type="line"/>
      <point x="548" y="536" type="line"/>
      <point x="436" y="536" type="line"/>
      <point x="433" y="433" type="line"/>
      <point x="430" y="433" type="line"/>
      <point x="404" y="507"/>
      <point x="356" y="546"/>
      <point x="271" y="546" type="curve" smooth="yes"/>
      <point x="135" y="546"/>
      <point x="65" y="458"/>
      <point x="65" y="265" type="curve" smooth="yes"/>
      <point x="65" y="73"/>
      <point x="136" y="-10"/>
      <point x="259" y="-10" type="curve" smooth="yes"/>
      <point x="356" y="-10"/>
      <point x="406" y="39"/>
      <point x="432" y="110" type="curve"/>
      <point x="434" y="110" type="line"/>
      <point x="432" y="92"/>
      <point x="432" y="35"/>
      <point x="432" y="-31" type="curve" smooth="yes"/>
      <point x="432" y="-142" type="line" smooth="yes"/>
      <point x="432" y="-216"/>
      <point x="425" y="-220"/>
      <point x="365" y="-220" type="curve" smooth="yes"/>
      <point x="337" y="-220" type="line"/>
    </contour>
    <contour>
      <point x="260" y="15" type="curve" smooth="yes"/>
      <point x="146" y="15"/>
      <point x="93" y="93"/>
      <point x="93" y="264" type="curve" smooth="yes"/>
      <point x="93" y="438"/>
      <point x="149" y="521"/>
      <point x="273" y="521" type="curve" smooth="yes"/>
      <point x="393" y="521"/>
      <point x="432" y="423"/>
      <point x="432" y="267" type="curve" smooth="yes"/>
      <point x="432" y="65"/>
      <point x="346" y="15"/>
    </contour>
  </outline>
</glyph>
<glyph name="r.mono" format="2">
  <advance width="600"/>
  <unicode hex="0072"/>
  <anchor x="286" y="0" name="bottom"/>
  <anchor x="346" y="528" name="top"/>
  <anchor x="580" y="528" name="topright"/>
  <outline>
    <contour>
      <point x="100" y="0" type="line"/>
      <point x="500" y="0" type="line"/>
      <point x="500" y="21" type="line"/>
      <point x="300" y="25" type="line"/>
      <point x="300" y="273" type="line" smooth="yes"/>
      <point x="300" y="417"/>
      <point x="357" y="510"/>
      <point x="472" y="510" type="curve" smooth="yes"/>
      <point x="505" y="510"/>
      <point x="536" y="505"/>
      <point x="561" y="497" type="curve"/>
      <point x="567" y="523" type="line"/>
      <point x="545" y="530"/>
      <point x="508" y="536"/>
      <point x="473" y="536" type="curve" smooth="yes"/>
      <point x="382" y="536"/>
      <point x="320" y="479"/>
      <point x="303" y="407" type="curve"/>
      <point x="300" y="407" type="line"/>
      <point x="300" y="528" type="line"/>
      <point x="118" y="528" type="line"/>
      <point x="118" y="507" type="line"/>
      <point x="274" y="503" type="line"/>
      <point x="274" y="25" type="line"/>
      <point x="100" y="21" type="line"/>
    </contour>
  </outline>
</glyph>
<glyph name="r.serif" format="2">
  <advance width="405"/>
  <unicode hex="0072"/>
  <anchor x="153" y="0" name="bottom"/>
  <anchor x="223" y="536" name="top"/>
  <anchor x="385" y="536" name="topright"/>
  <outline>
    <contour>
      <point x="49" y="0" type="line"/>
      <point x="268" y="0" type="line"/>
      <point x="268" y="20" type="line"/>
      <point x="233" y="20" type="line" smooth="yes"/>
      <point x="173" y="20"/>
      <point x="166" y="24"/>
      <point x="166" y="98" type="curve" smooth="yes"/>
      <point x="166" y="284" type="line" smooth="yes"/>
      <point x="166" y="407"/>
      <point x="223" y="519"/>
      <point x="301" y="519" type="curve" smooth="yes"/>
      <point x="346" y="519"/>
      <point x="369" y="501"/>
      <point x="369" y="443" type="curve"/>
      <point x="383" y="443"/>
      <point x="390" y="458"/>
      <point x="390" y="476" type="curve" smooth="yes"/>
      <point x="390" y="514"/>
      <point x="357" y="544"/>
      <point x="306" y="544" type="curve" smooth="yes"/>
      <point x="230" y="544"/>
      <point x="190" y="482"/>
      <point x="167" y="424" type="curve"/>
      <point x="165" y="424" type="line"/>
      <point x="162" y="536" type="line"/>
      <point x="43" y="536" type="line"/>
      <point x="43" y="516" type="line"/>
      <point x="61" y="516" type="line" smooth="yes"/>
      <point x="134" y="516"/>
      <point x="138" y="512"/>
      <point x="138" y="442" type="curve" smooth="yes"/>
      <point x="138" y="98" type="line" smooth="yes"/>
      <point x="138" y="24"/>
      <point x="131" y="20"/>
      <point x="71" y="20" type="curve" smooth="yes"/>
      <point x="49" y="20" type="line"/>
    </contour>
  </outline>
</glyph>
<glyph name="t.mono" format="2">
  <advance width="600"/>
  <unicode hex="0074"/>
  <anchor x="387" y="0" name="bottom"/>
  <anchor x="267" y="264" name="center"/>
  <anchor x="270" y="659" name="top"/>
  <anchor x="540" y="840" name="topright"/>
  <outline>
    <contour>
      <point x="411" y="-10" type="curve" smooth="yes"/>
      <point x="446" y="-10"/>
      <point x="468" y="-4"/>
      <point x="490" y="3" type="curve"/>
      <point x="490" y="28" type="line"/>
      <point x="468" y="20"/>
      <point x="444" y="15"/>
      <point x="411" y="15" type="curve" smooth="yes"/>
      <point x="309" y="15"/>
      <point x="281" y="75"/>
      <point x="281" y="183" type="curve" smooth="yes"/>
      <point x="281" y="503" type="line"/>
      <point x="498" y="503" type="line"/>
      <point x="498" y="528" type="line"/>
      <point x="281" y="528" type="line"/>
      <point x="281" y="659" type="line"/>
      <point x="259" y="659" type="line"/>
      <point x="254" y="528" type="line"/>
      <point x="84" y="524" type="line"/>
      <point x="84" y="503" type="line"/>
      <point x="255" y="503" type="line"/>
      <point x="255" y="180" type="line" smooth="yes"/>
      <point x="255" y="62"/>
      <point x="291" y="-10"/>
    </contour>
  </outline>
</glyph>
<glyph name="t.serif" format="2">
  <advance width="286"/>
  <unicode hex="0074"/>
  <anchor x="163" y="0" name="bottom"/>
  <anchor x="112" y="268" name="center"/>
  <anchor x="114" y="657" name="top"/>
  <anchor x="156" y="900" name="topright"/>
  <outline>
    <contour>
      <point x="202" y="-10" type="curve" smooth="yes"/>
      <point x="220" y="-10"/>
      <point x="238" y="-9"/>
      <point x="259" y="-5" type="curve"/>
      <point x="259" y="20" type="line"/>
      <point x="238" y="16"/>
      <point x="223" y="15"/>
      <point x="201" y="15" type="curve" smooth="yes"/>
      <point x="145" y="15"/>
      <point x="123" y="46"/>
      <point x="123" y="132" type="curve" smooth="yes"/>
      <point x="123" y="511" type="line"/>
      <point x="250" y="511" type="line"/>
      <point x="250" y="536" type="line"/>
      <point x="123" y="536" type="line"/>
      <point x="123" y="657" type="line"/>
      <point x="103" y="657" type="line"/>
      <point x="103" y="592"/>
      <point x="92" y="563"/>
      <point x="79" y="551" type="curve" smooth="yes"/>
      <point x="66" y="539"/>
      <point x="45" y="531"/>
      <point x="17" y="531" type="curve"/>
      <point x="17" y="511" type="line"/>
      <point x="95" y="511" type="line"/>
      <point x="95" y="141" type="line" smooth="yes"/>
      <point x="95" y="30"/>
      <point x="125" y="-10"/>
    </contour>
  </outline>
</glyph>
<glyph name="u.mono" format="2">
  <advance width="600"/>
  <unicode hex="0075"/>
  <anchor x="300" y="0" name="bottom"/>
  <anchor x="540" y="10" name="ogonek"/>
  <anchor x="300" y="528" name="top"/>
  <anchor x="580" y="528" name="topright"/>
  <outline>
    <contour>
      <point x="281" y="-10" type="curve" smooth="yes"/>
      <point x="390" y="-10"/>
      <point x="446" y="51"/>
      <point x="468" y="112" type="curve"/>
      <point x="470" y="112" type="line"/>
      <point x="473" y="0" type="line"/>
      <point x="495" y="0" type="line"/>
      <point x="495" y="528" type="line"/>
      <point x="469" y="528" type="line"/>
      <point x="469" y="226" type="line" smooth="yes"/>
      <point x="469" y="82"/>
      <point x="392" y="15"/>
      <point x="282" y="15" type="curve" smooth="yes"/>
      <point x="181" y="15"/>
      <point x="126" y="71"/>
      <point x="126" y="198" type="curve" smooth="yes"/>
      <point x="126" y="528" type="line"/>
      <point x="100" y="528" type="line"/>
      <point x="100" y="194" type="line" smooth="yes"/>
      <point x="100" y="61"/>
      <point x="162" y="-10"/>
    </contour>
  </outline>
</glyph>
<glyph name="u.serif" format="2">
  <advance width="597"/>
  <unicode hex="0075"/>
  <anchor x="513" y="0" name="bottom"/>
  <anchor x="285" y="536" name="top"/>
  <anchor x="517" y="536" name="topright"/>
  <outline>
    <contour>
      <point x="281" y="-10" type="curve" smooth="yes"/>
      <point x="370" y="-10"/>
      <point x="420" y="39"/>
      <point x="446" y="91" type="curve"/>
      <point x="450" y="91" type="line"/>
      <point x="453" y="0" type="line"/>
      <point x="576" y="0" type="line"/>
      <point x="576" y="20" type="line"/>
      <point x="544" y="20" type="line" smooth="yes"/>
      <point x="484" y="20"/>
      <point x="477" y="25"/>
      <point x="477" y="94" type="curve" smooth="yes"/>
      <point x="477" y="536" type="line"/>
      <point x="354" y="536" type="line"/>
      <point x="354" y="516" type="line"/>
      <point x="372" y="516" type="line" smooth="yes"/>
      <point x="445" y="516"/>
      <point x="449" y="512"/>
      <point x="449" y="442" type="curve" smooth="yes"/>
      <point x="449" y="202" type="line" smooth="yes"/>
      <point x="449" y="104"/>
      <point x="392" y="15"/>
      <point x="281" y="15" type="curve" smooth="yes"/>
      <point x="172" y="15"/>
      <point x="146" y="86"/>
      <point x="146" y="181" type="curve" smooth="yes"/>
      <point x="146" y="536" type="line"/>
      <point x="15" y="536" type="line"/>
      <point x="15" y="516" type="line"/>
      <point x="41" y="516" type="line" smooth="yes"/>
      <point x="114" y="516"/>
      <point x="118" y="512"/>
      <point x="118" y="442" type="curve" smooth="yes"/>
      <point x="118" y="184" type="line" smooth="yes"/>
      <point x="118" y="52"/>
      <point x="171" y="-10"/>
    </contour>
  </outline>
</glyph>
<glyph name="v.serif" format="2">
  <advance width="545"/>
  <unicode hex="0076"/>
  <anchor x="273" y="0" name="bottom"/>
  <anchor x="273" y="536" name="top"/>
  <anchor x="535" y="536" name="topright"/>
  <outline>
    <contour>
      <point x="86" y="468" type="curve" smooth="yes"/>
      <point x="259" y="0" type="line"/>
      <point x="290" y="0" type="line"/>
      <point x="466" y="468" type="line" smooth="yes"/>
      <point x="483" y="514"/>
      <point x="486" y="516"/>
      <point x="536" y="516" type="curve" smooth="yes"/>
      <point x="538" y="516" type="line"/>
      <point x="538" y="536" type="line"/>
      <point x="364" y="536" type="line"/>
      <point x="364" y="516" type="line"/>
      <point x="396" y="516" type="line" smooth="yes"/>
      <point x="437" y="516"/>
      <point x="442" y="509"/>
      <point x="442" y="495" type="curve" smooth="yes"/>
      <point x="442" y="472"/>
      <point x="426" y="435"/>
      <point x="400" y="366" type="curve" smooth="yes"/>
      <point x="340" y="206" type="line" smooth="yes"/>
      <point x="304" y="111"/>
      <point x="284" y="52"/>
      <point x="275" y="28" type="curve"/>
      <point x="264" y="65"/>
      <point x="236" y="140"/>
      <point x="214" y="199" type="curve" smooth="yes"/>
      <point x="138" y="407" type="line" smooth="yes"/>
      <point x="127" y="437"/>
      <point x="110" y="478"/>
      <point x="110" y="495" type="curve" smooth="yes"/>
      <point x="110" y="509"/>
      <point x="115" y="516"/>
      <point x="156" y="516" type="curve" smooth="yes"/>
      <point x="180" y="516" type="line"/>
      <point x="180" y="536" type="line"/>
      <point x="8" y="536" type="line"/>
      <point x="8" y="516" type="line"/>
      <point x="66" y="516"/>
      <point x="69" y="515"/>
    </contour>
  </outline>
</glyph>
<glyph name="w.serif" format="2">
  <advance width="870"/>
  <unicode hex="0077"/>
  <anchor x="435" y="0" name="bottom"/>
  <anchor x="435" y="536" name="top"/>
  <anchor x="860" y="536" name="topright"/>
  <outline>
    <contour>
      <point x="89" y="463" type="curve" smooth="yes"/>
      <point x="221" y="0" type="line"/>
      <point x="254" y="0" type="line"/>
      <point x="428" y="511" type="line"/>
      <point x="605" y="0" type="line"/>
      <point x="641" y="0" type="line"/>
      <point x="787" y="467" type="line" smooth="yes"/>
      <point x="800" y="510"/>
      <point x="804" y="516"/>
      <point x="845" y="516" type="curve" smooth="yes"/>
      <point x="867" y="516" type="line"/>
      <point x="867" y="536" type="line"/>
      <point x="691" y="536" type="line"/>
      <point x="691" y="516" type="line"/>
      <point x="728" y="516" type="line" smooth="yes"/>
      <point x="762" y="516"/>
      <point x="766" y="509"/>
      <point x="766" y="496" type="curve" smooth="yes"/>
      <point x="766" y="481"/>
      <point x="758" y="456"/>
      <point x="749" y="428" type="curve" smooth="yes"/>
      <point x="679" y="205" type="line" smooth="yes"/>
      <point x="654" y="124"/>
      <point x="631" y="56"/>
      <point x="624" y="23" type="curve"/>
      <point x="621" y="23" type="line"/>
      <point x="612" y="61"/>
      <point x="571" y="175"/>
      <point x="554" y="223" type="curve" smooth="yes"/>
      <point x="446" y="536" type="line"/>
      <point x="411" y="536" type="line"/>
      <point x="297" y="206" type="line" smooth="yes"/>
      <point x="280" y="157"/>
      <point x="246" y="60"/>
      <point x="240" y="27" type="curve"/>
      <point x="237" y="27" type="line"/>
      <point x="231" y="60"/>
      <point x="205" y="152"/>
      <point x="192" y="200" type="curve" smooth="yes"/>
      <point x="129" y="425" type="line" smooth="yes"/>
      <point x="123" y="445"/>
      <point x="112" y="485"/>
      <point x="112" y="496" type="curve" smooth="yes"/>
      <point x="112" y="509"/>
      <point x="116" y="516"/>
      <point x="150" y="516" type="curve" smooth="yes"/>
      <point x="177" y="516" type="line"/>
      <point x="177" y="536" type="line"/>
      <point x="7" y="536" type="line"/>
      <point x="7" y="516" type="line"/>
      <point x="30" y="516" type="line" smooth="yes"/>
      <point x="71" y="516"/>
      <point x="76" y="510"/>
    </contour>
  </outline>
</glyph>
<glyph name="x.mono" format="2">
  <advance width="600"/>
  <unicode hex="0078"/>
  <anchor x="300" y="0" name="bottom"/>
  <anchor x="300" y="528" name="top"/>
  <anchor x="580" y="528" name="topright"/>
  <outline>
    <contour>
      <point x="85" y="0" type="line"/>
      <point x="116" y="0" type="line"/>
      <point x="299" y="252" type="line"/>
      <point x="484" y="0" type="line"/>
      <point x="515" y="0" type="line"/>
      <point x="315" y="271" type="line"/>
      <point x="503" y="528" type="line"/>
      <point x="473" y="528" type="line"/>
      <point x="298" y="288" type="line"/>
      <point x="127" y="528" type="line"/>
      <point x="96" y="528" type="line"/>
      <point x="283" y="270" type="line"/>
    </contour>
  </outline>
</glyph>
<glyph name="y.mono" format="2">
  <advance width="600"/>
  <unicode hex="0079"/>
  <anchor x="300" y="-247" name="bottom"/>
  <anchor x="300" y="528" name="top"/>
  <anchor x="580" y="528" name="topright"/>
  <outline>
    <contour>
      <point x="138" y="-247" type="curve" smooth="yes"/>
      <point x="204" y="-247"/>
      <point x="236" y="-206"/>
      <point x="269" y="-119" type="curve" smooth="yes"/>
      <point x="515" y="528" type="line"/>
      <point x="487" y="528" type="line"/>
      <point x="351" y="168" type="line" smooth="yes"/>
      <point x="327" y="105"/>
      <point x="317" y="80"/>
      <point x="303" y="39" type="curve"/>
      <point x="301" y="39" type="line"/>
      <point x="286" y="80"/>
      <point x="277" y="105"/>
      <point x="255" y="163" type="curve" smooth="yes"/>
      <point x="118" y="528" type="line"/>
      <point x="91" y="528" type="line"/>
      <point x="288" y="6" type="line"/>
      <point x="247" y="-106" type="line" smooth="yes"/>
      <point x="216" y="-190"/>
      <point x="190" y="-222"/>
      <point x="138" y="-222" type="curve" smooth="yes"/>
      <point x="119" y="-222"/>
      <point x="104" y="-218"/>
      <point x="85" y="-211" type="curve"/>
      <point x="85" y="-237" type="line"/>
      <point x="104" y="-244"/>
      <point x="120" y="-247"/>
    </contour>
  </outline>
</glyph>
<glyph name="y.serif" format="2">
  <advance width="547"/>
  <unicode hex="0079"/>
  <anchor x="154" y="-240" name="bottom"/>
  <anchor x="274" y="536" name="top"/>
  <anchor x="537" y="536" name="topright"/>
  <outline>
    <contour>
      <point x="52" y="-215" type="curve"/>
      <point x="52" y="-240" type="line"/>
      <point x="53" y="-240" type="line"/>
      <point x="216" y="-240"/>
      <point x="240" y="-193"/>
      <point x="312" y="16" type="curve" smooth="yes"/>
      <point x="468" y="468" type="line" smooth="yes"/>
      <point x="484" y="515"/>
      <point x="489" y="516"/>
      <point x="545" y="516" type="curve" smooth="yes"/>
      <point x="549" y="516" type="line"/>
      <point x="549" y="536" type="line"/>
      <point x="361" y="536" type="line"/>
      <point x="361" y="516" type="line"/>
      <point x="399" y="516" type="line" smooth="yes"/>
      <point x="440" y="516"/>
      <point x="445" y="509"/>
      <point x="445" y="495" type="curve" smooth="yes"/>
      <point x="445" y="482"/>
      <point x="436" y="455"/>
      <point x="425" y="423" type="curve" smooth="yes"/>
      <point x="338" y="171" type="line" smooth="yes"/>
      <point x="317" y="110"/>
      <point x="302" y="67"/>
      <point x="290" y="24" type="curve"/>
      <point x="277" y="69"/>
      <point x="244" y="150"/>
      <point x="220" y="212" type="curve" smooth="yes"/>
      <point x="144" y="407" type="line" smooth="yes"/>
      <point x="122" y="463"/>
      <point x="113" y="482"/>
      <point x="113" y="495" type="curve" smooth="yes"/>
      <point x="113" y="509"/>
      <point x="118" y="516"/>
      <point x="159" y="516" type="curve" smooth="yes"/>
      <point x="184" y="516" type="line"/>
      <point x="184" y="536" type="line"/>
      <point x="10" y="536" type="line"/>
      <point x="10" y="516" type="line"/>
      <point x="13" y="516" type="line" smooth="yes"/>
      <point x="69" y="516"/>
      <point x="72" y="515"/>
      <point x="90" y="468" type="curve" smooth="yes"/>
      <point x="277" y="-6" type="line"/>
      <point x="219" y="-160"/>
      <point x="200" y="-215"/>
    </contour>
  </outline>
</glyph>
<glyph name="z.mono" format="2">
  <advance width="600"/>
  <unicode hex="007A"/>
  <anchor x="310" y="0" name="bottom"/>
  <anchor x="310" y="528" name="top"/>
  <anchor x="580" y="528" name="topright"/>
  <outline>
    <contour>
      <point x="115" y="0" type="line"/>
      <point x="482" y="0" type="line"/>
      <point x="482" y="25" type="line"/>
      <point x="151" y="25" type="line"/>
      <point x="485" y="513" type="line"/>
      <point x="485" y="528" type="line"/>
      <point x="142" y="528" type="line"/>
      <point x="142" y="503" type="line"/>
      <point x="447" y="503" type="line"/>
      <point x="115" y="17" type="line"/>
    </contour>
  </outline>
</glyph>
<glyph name="z.serif" format="2">
  <advance width="489"/>
  <unicode hex="007A"/>
  <anchor x="245" y="0" name="bottom"/>
  <anchor x="245" y="536" name="top"/>
  <anchor x="439" y="536" name="topright"/>
  <outline>
    <contour>
      <point x="69" y="0" type="line"/>
      <point x="413" y="0" type="line"/>
      <point x="418" y="138" type="line"/>
      <point x="398" y="138" type="line"/>
      <point x="396" y="95" type="line" smooth="yes"/>
      <point x="393" y="39"/>
      <point x="387" y="25"/>
      <point x="335" y="25" type="curve" smooth="yes"/>
      <point x="103" y="25" type="line"/>
      <point x="411" y="514" type="line"/>
      <point x="411" y="536" type="line"/>
      <point x="78" y="536" type="line"/>
      <point x="70" y="420" type="line"/>
      <point x="90" y="420" type="line"/>
      <point x="92" y="442" type="line" smooth="yes"/>
      <point x="97" y="497"/>
      <point x="103" y="511"/>
      <point x="155" y="511" type="curve" smooth="yes"/>
      <point x="376" y="511" type="line"/>
      <point x="69" y="22" type="line"/>
    </contour>
  </outline>
</glyph>
<glyph name="braceleft.guru" format="2">
  <advance width="410"/>
  <unicode hex="007B"/>
  <outline>
    <contour>
      <point x="306" y="-132" type="curve" smooth="yes"/>
      <point x="336" y="-132" type="line"/>
      <point x="336" y="-107" type="line"/>
      <point x="311" y="-107" type="line" smooth="yes"/>
      <point x="248" y="-107"/>
      <point x="223" y="-68"/>
      <point x="223" y="7" type="curve" smooth="yes"/>
      <point x="223" y="175" type="line" smooth="yes"/>
      <point x="223" y="259"/>
      <point x="184" y="303"/>
      <point x="122" y="313" type="curve"/>
      <point x="122" y="315" type="line"/>
      <point x="184" y="325"/>
      <point x="223" y="369"/>
      <point x="223" y="454" type="curve" smooth="yes"/>
      <point x="223" y="620" type="line" smooth="yes"/>
      <point x="223" y="697"/>
      <point x="248" y="735"/>
      <point x="311" y="735" type="curve" smooth="yes"/>
      <point x="336" y="735" type="line"/>
      <point x="336" y="760" type="line"/>
      <point x="306" y="760" type="line" smooth="yes"/>
      <point x="236" y="760"/>
      <point x="196" y="710"/>
      <point x="196" y="621" type="curve" smooth="yes"/>
      <point x="196" y="458" type="line" smooth="yes"/>
      <point x="196" y="354"/>
      <point x="145" y="333"/>
      <point x="76" y="326" type="curve"/>
      <point x="76" y="302" type="line"/>
      <point x="145" y="295"/>
      <point x="196" y="274"/>
      <point x="196" y="171" type="curve" smooth="yes"/>
      <point x="196" y="8" type="line" smooth="yes"/>
      <point x="196" y="-82"/>
      <point x="236" y="-132"/>
    </contour>
  </outline>
</glyph>
<glyph name="braceleft.mono" format="2">
  <advance width="600"/>
  <unicode hex="007B"/>
  <outline>
    <contour>
      <point x="440" y="-158" type="curve"/>
      <point x="440" y="-133" type="line"/>
      <point x="335" y="-133"/>
      <point x="303" y="-103"/>
      <point x="303" y="-23" type="curve" smooth="yes"/>
      <point x="303" y="155" type="line" smooth="yes"/>
      <point x="303" y="221"/>
      <point x="283" y="267"/>
      <point x="224" y="279" type="curve"/>
      <point x="224" y="281" type="line"/>
      <point x="283" y="290"/>
      <point x="303" y="336"/>
      <point x="303" y="403" type="curve" smooth="yes"/>
      <point x="303" y="579" type="line" smooth="yes"/>
      <point x="303" y="659"/>
      <point x="335" y="689"/>
      <point x="440" y="689" type="curve"/>
      <point x="440" y="714" type="line"/>
      <point x="320" y="714"/>
      <point x="276" y="674"/>
      <point x="276" y="582" type="curve" smooth="yes"/>
      <point x="276" y="408" type="line" smooth="yes"/>
      <point x="276" y="323"/>
      <point x="246" y="291"/>
      <point x="166" y="291" type="curve"/>
      <point x="166" y="266" type="line"/>
      <point x="246" y="266"/>
      <point x="276" y="234"/>
      <point x="276" y="151" type="curve" smooth="yes"/>
      <point x="276" y="-26" type="line" smooth="yes"/>
      <point x="276" y="-118"/>
      <point x="320" y="-158"/>
    </contour>
  </outline>
</glyph>
<glyph name="braceright.guru" format="2">
  <advance width="410"/>
  <unicode hex="007D"/>
  <outline>
    <contour>
      <point x="76" y="-132" type="line"/>
      <point x="106" y="-132" type="line" smooth="yes"/>
      <point x="176" y="-132"/>
      <point x="216" y="-82"/>
      <point x="216" y="8" type="curve" smooth="yes"/>
      <point x="216" y="171" type="line" smooth="yes"/>
      <point x="216" y="274"/>
      <point x="267" y="295"/>
      <point x="336" y="302" type="curve"/>
      <point x="336" y="326" type="line"/>
      <point x="267" y="333"/>
      <point x="216" y="354"/>
      <point x="216" y="458" type="curve" smooth="yes"/>
      <point x="216" y="621" type="line" smooth="yes"/>
      <point x="216" y="710"/>
      <point x="176" y="760"/>
      <point x="106" y="760" type="curve" smooth="yes"/>
      <point x="76" y="760" type="line"/>
      <point x="76" y="735" type="line"/>
      <point x="101" y="735" type="line" smooth="yes"/>
      <point x="164" y="735"/>
      <point x="189" y="697"/>
      <point x="189" y="620" type="curve" smooth="yes"/>
      <point x="189" y="454" type="line" smooth="yes"/>
      <point x="189" y="369"/>
      <point x="228" y="325"/>
      <point x="290" y="315" type="curve"/>
      <point x="290" y="313" type="line"/>
      <point x="228" y="303"/>
      <point x="189" y="259"/>
      <point x="189" y="175" type="curve" smooth="yes"/>
      <point x="189" y="7" type="line" smooth="yes"/>
      <point x="189" y="-68"/>
      <point x="164" y="-107"/>
      <point x="101" y="-107" type="curve" smooth="yes"/>
      <point x="76" y="-107" type="line"/>
    </contour>
  </outline>
</glyph>
<glyph name="asciitilde.mono" format="2">
  <advance width="600"/>
  <unicode hex="007E"/>
  <outline>
    <contour>
      <point x="84" y="307" type="curve"/>
      <point x="112" y="307" type="line"/>
      <point x="117" y="383"/>
      <point x="140" y="440"/>
      <point x="192" y="440" type="curve" smooth="yes"/>
      <point x="236" y="440"/>
      <point x="269" y="402"/>
      <point x="297" y="368" type="curve" smooth="yes"/>
      <point x="318" y="343"/>
      <point x="355" y="307"/>
      <point x="408" y="307" type="curve" smooth="yes"/>
      <point x="487" y="307"/>
      <point x="509" y="401"/>
      <point x="514" y="466" type="curve"/>
      <point x="486" y="466" type="line"/>
      <point x="481" y="390"/>
      <point x="458" y="333"/>
      <point x="406" y="333" type="curve" smooth="yes"/>
      <point x="367" y="333"/>
      <point x="336" y="365"/>
      <point x="316" y="388" type="curve" smooth="yes"/>
      <point x="284" y="424"/>
      <point x="246" y="466"/>
      <point x="190" y="466" type="curve" smooth="yes"/>
      <point x="111" y="466"/>
      <point x="89" y="372"/>
    </contour>
  </outline>
</glyph>
<glyph name="cent.mono" format="2">
  <advance width="600"/>
  <unicode hex="00A2"/>
  <outline>
    <contour>
      <point x="323" y="90" type="curve"/>
      <point x="323" y="-10" type="line"/>
      <point x="348" y="-10" type="line"/>
      <point x="348" y="90" type="line"/>
      <point x="399" y="91"/>
      <point x="443" y="103"/>
      <point x="474" y="116" type="curve"/>
      <point x="474" y="141" type="line"/>
      <point x="435" y="125"/>
      <point x="386" y="115"/>
      <point x="338" y="115" type="curve" smooth="yes"/>
      <point x="186" y="115"/>
      <point x="122" y="225"/>
      <point x="122" y="361" type="curve" smooth="yes"/>
      <point x="122" y="509"/>
      <point x="211" y="613"/>
      <point x="355" y="613" type="curve" smooth="yes"/>
      <point x="393" y="613"/>
      <point x="433" y="607"/>
      <point x="473" y="589" type="curve"/>
      <point x="478" y="614" type="line"/>
      <point x="438" y="631"/>
      <point x="401" y="637"/>
      <point x="348" y="637" type="curve"/>
      <point x="348" y="724" type="line"/>
      <point x="323" y="724" type="line"/>
      <point x="323" y="636" type="line"/>
      <point x="180" y="622"/>
      <point x="95" y="511"/>
      <point x="95" y="361" type="curve" smooth="yes"/>
      <point x="95" y="211"/>
      <point x="165" y="97"/>
    </contour>
  </outline>
</glyph>
<glyph name="cent.serif" format="2">
  <advance width="559"/>
  <unicode hex="00A2"/>
  <outline>
    <contour>
      <point x="298" y="92" type="curve"/>
      <point x="298" y="0" type="line"/>
      <point x="324" y="0" type="line"/>
      <point x="324" y="92" type="line"/>
      <point x="416" y="96"/>
      <point x="466" y="156"/>
      <point x="466" y="188" type="curve" smooth="yes"/>
      <point x="466" y="200"/>
      <point x="464" y="208"/>
      <point x="458" y="216" type="curve"/>
      <point x="437" y="164"/>
      <point x="400" y="122"/>
      <point x="324" y="117" type="curve"/>
      <point x="324" y="618" type="line"/>
      <point x="401" y="613"/>
      <point x="438" y="561"/>
      <point x="438" y="508" type="curve"/>
      <point x="453" y="509"/>
      <point x="463" y="519"/>
      <point x="463" y="535" type="curve" smooth="yes"/>
      <point x="463" y="590"/>
      <point x="411" y="641"/>
      <point x="324" y="644" type="curve"/>
      <point x="324" y="714" type="line"/>
      <point x="298" y="714" type="line"/>
      <point x="298" y="643" type="line"/>
      <point x="193" y="636"/>
      <point x="118" y="565"/>
      <point x="118" y="365" type="curve" smooth="yes"/>
      <point x="118" y="188"/>
      <point x="197" y="100"/>
    </contour>
    <contour>
      <point x="298" y="618" type="curve"/>
      <point x="298" y="117" type="line"/>
      <point x="214" y="126"/>
      <point x="146" y="214"/>
      <point x="146" y="366" type="curve" smooth="yes"/>
      <point x="146" y="545"/>
      <point x="207" y="612"/>
    </contour>
  </outline>
</glyph>
<glyph name="sterling.mono" format="2">
  <advance width="600"/>
  <unicode hex="00A3"/>
  <outline>
    <contour>
      <point x="92" y="23" type="curve"/>
      <point x="92" y="0" type="line"/>
      <point x="538" y="0" type="line"/>
      <point x="538" y="25" type="line"/>
      <point x="161" y="25" type="line"/>
      <point x="207" y="48"/>
      <point x="241" y="95"/>
      <point x="241" y="178" type="curve" smooth="yes"/>
      <point x="241" y="335" type="line"/>
      <point x="420" y="335" type="line"/>
      <point x="420" y="360" type="line"/>
      <point x="241" y="360" type="line"/>
      <point x="241" y="512" type="line" smooth="yes"/>
      <point x="241" y="642"/>
      <point x="288" y="698"/>
      <point x="389" y="698" type="curve" smooth="yes"/>
      <point x="436" y="698"/>
      <point x="476" y="686"/>
      <point x="522" y="660" type="curve"/>
      <point x="531" y="684" type="line"/>
      <point x="493" y="706"/>
      <point x="447" y="723"/>
      <point x="389" y="723" type="curve" smooth="yes"/>
      <point x="274" y="723"/>
      <point x="215" y="657"/>
      <point x="215" y="516" type="curve" smooth="yes"/>
      <point x="215" y="360" type="line"/>
      <point x="108" y="360" type="line"/>
      <point x="108" y="335" type="line"/>
      <point x="215" y="335" type="line"/>
      <point x="215" y="187" type="line" smooth="yes"/>
      <point x="215" y="89"/>
      <point x="173" y="37"/>
    </contour>
  </outline>
</glyph>
<glyph name="sterling.serif" format="2">
  <advance width="559"/>
  <unicode hex="00A3"/>
  <outline>
    <contour>
      <point x="437" y="-11" type="curve" smooth="yes"/>
      <point x="456" y="-11"/>
      <point x="508" y="28"/>
      <point x="530" y="45" type="curve"/>
      <point x="530" y="68" type="line"/>
      <point x="507" y="46"/>
      <point x="455" y="17"/>
      <point x="435" y="17" type="curve" smooth="yes"/>
      <point x="399" y="17"/>
      <point x="354" y="33"/>
      <point x="331" y="42" type="curve" smooth="yes"/>
      <point x="313" y="48"/>
      <point x="256" y="68"/>
      <point x="229" y="68" type="curve" smooth="yes"/>
      <point x="215" y="68"/>
      <point x="200" y="67"/>
      <point x="149" y="42" type="curve"/>
      <point x="145" y="40" type="line"/>
      <point x="200" y="76"/>
      <point x="232" y="162"/>
      <point x="232" y="211" type="curve" smooth="yes"/>
      <point x="232" y="249"/>
      <point x="219" y="306"/>
      <point x="207" y="339" type="curve"/>
      <point x="351" y="339" type="line"/>
      <point x="351" y="363" type="line"/>
      <point x="198" y="363" type="line"/>
      <point x="182" y="410"/>
      <point x="155" y="470"/>
      <point x="155" y="542" type="curve" smooth="yes"/>
      <point x="155" y="635"/>
      <point x="210" y="698"/>
      <point x="307" y="698" type="curve" smooth="yes"/>
      <point x="415" y="698"/>
      <point x="445" y="638"/>
      <point x="445" y="572" type="curve"/>
      <point x="451" y="572"/>
      <point x="465" y="584"/>
      <point x="465" y="614" type="curve" smooth="yes"/>
      <point x="465" y="681"/>
      <point x="404" y="723"/>
      <point x="307" y="723" type="curve" smooth="yes"/>
      <point x="203" y="723"/>
      <point x="127" y="657"/>
      <point x="127" y="542" type="curve" smooth="yes"/>
      <point x="127" y="481"/>
      <point x="148" y="425"/>
      <point x="170" y="363" type="curve"/>
      <point x="78" y="363" type="line"/>
      <point x="78" y="339" type="line"/>
      <point x="179" y="339" type="line"/>
      <point x="191" y="302"/>
      <point x="204" y="249"/>
      <point x="204" y="211" type="curve" smooth="yes"/>
      <point x="204" y="122"/>
      <point x="155" y="62"/>
      <point x="118" y="38" type="curve" smooth="yes"/>
      <point x="98" y="25" type="line"/>
      <point x="98" y="4" type="line"/>
      <point x="117" y="14" type="line"/>
      <point x="143" y="28"/>
      <point x="166" y="38"/>
      <point x="208" y="38" type="curve" smooth="yes"/>
      <point x="253" y="38"/>
      <point x="275" y="28"/>
      <point x="304" y="17" type="curve" smooth="yes"/>
      <point x="344" y="5"/>
      <point x="375" y="-11"/>
    </contour>
  </outline>
</glyph>
<glyph name="currency.mono" format="2">
  <advance width="600"/>
  <unicode hex="00A4"/>
  <outline>
    <contour>
      <point x="432" y="202" type="curve"/>
      <point x="509" y="124" type="line"/>
      <point x="528" y="142" type="line"/>
      <point x="450" y="220" type="line"/>
      <point x="484" y="258"/>
      <point x="501" y="306"/>
      <point x="501" y="354" type="curve" smooth="yes"/>
      <point x="501" y="402"/>
      <point x="486" y="448"/>
      <point x="452" y="486" type="curve"/>
      <point x="529" y="563" type="line"/>
      <point x="512" y="581" type="line"/>
      <point x="435" y="504" type="line"/>
      <point x="397" y="538"/>
      <point x="348" y="555"/>
      <point x="300" y="555" type="curve" smooth="yes"/>
      <point x="252" y="555"/>
      <point x="204" y="538"/>
      <point x="166" y="504" type="curve"/>
      <point x="88" y="582" type="line"/>
      <point x="70" y="564" type="line"/>
      <point x="147" y="486" type="line"/>
      <point x="114" y="448"/>
      <point x="100" y="402"/>
      <point x="100" y="354" type="curve" smooth="yes"/>
      <point x="100" y="306"/>
      <point x="117" y="258"/>
      <point x="150" y="220" type="curve"/>
      <point x="73" y="144" type="line"/>
      <point x="91" y="126" type="line"/>
      <point x="169" y="202" type="line"/>
      <point x="207" y="168"/>
      <point x="252" y="153"/>
      <point x="300" y="153" type="curve" smooth="yes"/>
      <point x="348" y="153"/>
      <point x="394" y="168"/>
    </contour>
    <contour>
      <point x="299" y="179" type="curve" smooth="yes"/>
      <point x="206" y="179"/>
      <point x="125" y="254"/>
      <point x="125" y="353" type="curve" smooth="yes"/>
      <point x="125" y="451"/>
      <point x="198" y="530"/>
      <point x="303" y="530" type="curve" smooth="yes"/>
      <point x="402" y="530"/>
      <point x="475" y="450"/>
      <point x="475" y="356" type="curve" smooth="yes"/>
      <point x="475" y="259"/>
      <point x="396" y="179"/>
    </contour>
  </outline>
</glyph>
<glyph name="currency.serif" format="2">
  <advance width="559"/>
  <unicode hex="00A4"/>
  <outline>
    <contour>
      <point x="85" y="146" type="line"/>
      <point x="160" y="222" type="line"/>
      <point x="192" y="194"/>
      <point x="235" y="177"/>
      <point x="281" y="177" type="curve" smooth="yes"/>
      <point x="326" y="177"/>
      <point x="367" y="193"/>
      <point x="399" y="220" type="curve"/>
      <point x="473" y="147" type="line"/>
      <point x="491" y="164" type="line"/>
      <point x="417" y="238" type="line"/>
      <point x="446" y="270"/>
      <point x="464" y="313"/>
      <point x="464" y="360" type="curve" smooth="yes"/>
      <point x="464" y="406"/>
      <point x="447" y="448"/>
      <point x="418" y="480" type="curve"/>
      <point x="490" y="553" type="line"/>
      <point x="473" y="571" type="line"/>
      <point x="400" y="498" type="line"/>
      <point x="368" y="526"/>
      <point x="326" y="543"/>
      <point x="281" y="543" type="curve" smooth="yes"/>
      <point x="233" y="543"/>
      <point x="190" y="524"/>
      <point x="158" y="495" type="curve"/>
      <point x="84" y="569" type="line"/>
      <point x="66" y="552" type="line"/>
      <point x="141" y="478" type="line"/>
      <point x="114" y="446"/>
      <point x="98" y="405"/>
      <point x="98" y="360" type="curve" smooth="yes"/>
      <point x="98" y="314"/>
      <point x="115" y="271"/>
      <point x="143" y="239" type="curve"/>
      <point x="68" y="164" type="line"/>
    </contour>
    <contour>
      <point x="281" y="203" type="curve" smooth="yes"/>
      <point x="194" y="203"/>
      <point x="126" y="273"/>
      <point x="126" y="360" type="curve" smooth="yes"/>
      <point x="126" y="447"/>
      <point x="194" y="517"/>
      <point x="281" y="517" type="curve" smooth="yes"/>
      <point x="368" y="517"/>
      <point x="436" y="447"/>
      <point x="436" y="360" type="curve" smooth="yes"/>
      <point x="436" y="273"/>
      <point x="368" y="203"/>
    </contour>
  </outline>
</glyph>
<glyph name="yen.mono" format="2">
  <advance width="600"/>
  <unicode hex="00A5"/>
  <outline>
    <contour>
      <point x="288" y="0" type="line"/>
      <point x="314" y="0" type="line"/>
      <point x="314" y="162" type="line"/>
      <point x="489" y="162" type="line"/>
      <point x="489" y="187" type="line"/>
      <point x="314" y="187" type="line"/>
      <point x="314" y="298" type="line"/>
      <point x="489" y="298" type="line"/>
      <point x="489" y="323" type="line"/>
      <point x="321" y="323" type="line"/>
      <point x="560" y="714" type="line"/>
      <point x="529" y="714" type="line"/>
      <point x="301" y="336" type="line"/>
      <point x="71" y="714" type="line"/>
      <point x="40" y="714" type="line"/>
      <point x="279" y="323" type="line"/>
      <point x="112" y="323" type="line"/>
      <point x="112" y="298" type="line"/>
      <point x="288" y="298" type="line"/>
      <point x="288" y="187" type="line"/>
      <point x="112" y="187" type="line"/>
      <point x="112" y="162" type="line"/>
      <point x="288" y="162" type="line"/>
    </contour>
  </outline>
</glyph>
